<?xml version="1.0" encoding="utf-8"?>
<!-- Generator: Adobe Illustrator 18.0.0, SVG Export Plug-In . SVG Version: 6.00 Build 0)  -->
<!DOCTYPE svg PUBLIC "-//W3C//DTD SVG 1.0//EN" "http://www.w3.org/TR/2001/REC-SVG-20010904/DTD/svg10.dtd">
<svg version="1.0" id="Layer_1" xmlns="http://www.w3.org/2000/svg" xmlns:xlink="http://www.w3.org/1999/xlink" x="0px" y="0px"
	 width="30px" height="30px" viewBox="0 0 30 30" enable-background="new 0 0 30 30" xml:space="preserve">
<g>
	<path fill="#FFFFFF" d="M3.7,0h22.5c1,0,1.9,0.8,1.9,1.9v26.3c0,1-0.8,1.9-1.9,1.9H3.7c-1,0-1.9-0.8-1.9-1.9V1.9
		C1.9,0.8,2.7,0,3.7,0z"/>
	<path fill="#D3D6D8" d="M4.7,2.8h20.6v6.6H4.7V2.8z"/>
	<path fill="#B7BBBD" d="M19.7,4.7v2.8h3.8V4.7H19.7z M22.5,6.6h-1.9V5.6h1.9V6.6z"/>
	<path fill="#49616E" d="M4.7,15.9h3.8v-3.8H4.7V15.9z M10.3,15.9h3.8v-3.8h-3.8L10.3,15.9L10.3,15.9z M15.9,12.2v3.8h3.8v-3.8H15.9
		z M4.7,21.6h3.8v-3.7H4.7V21.6z M10.3,21.6h3.8v-3.7h-3.8L10.3,21.6L10.3,21.6z M15.9,21.6h3.8v-3.7h-3.8V21.6z M4.7,27.2h3.8v-3.8
		H4.7V27.2z M10.3,27.2h3.8v-3.8h-3.8L10.3,27.2L10.3,27.2z M15.9,27.2h3.8v-3.8h-3.8V27.2z"/>
	<path fill="#E2574C" d="M21.6,12.2v3.8h3.8v-3.8H21.6z M21.6,27.2h3.8v-9.4h-3.8L21.6,27.2L21.6,27.2z"/>
</g>
</svg>
