<?xml version="1.0" encoding="utf-8"?>
<!-- Generator: Adobe Illustrator 18.0.0, SVG Export Plug-In . SVG Version: 6.00 Build 0)  -->
<!DOCTYPE svg PUBLIC "-//W3C//DTD SVG 1.0//EN" "http://www.w3.org/TR/2001/REC-SVG-20010904/DTD/svg10.dtd">
<svg version="1.0" id="Layer_1" xmlns="http://www.w3.org/2000/svg" xmlns:xlink="http://www.w3.org/1999/xlink" x="0px" y="0px"
	 width="30px" height="30px" viewBox="0 0 30 30" enable-background="new 0 0 30 30" xml:space="preserve">
<g>
	<g id="XMLID_610_">
		<rect id="XMLID_611_" x="0" y="25.8" fill="#35495C" width="17.7" height="1.7"/>
	</g>
	<g id="XMLID_608_">
		<rect id="XMLID_609_" x="3.7" y="5.9" fill="#5494E0" width="10.3" height="21.6"/>
	</g>
	<g id="XMLID_606_">
		<rect id="XMLID_607_" x="5.9" y="5.9" fill="#5494E0" width="5.9" height="21.6"/>
	</g>
	<g id="XMLID_604_">
		<rect id="XMLID_605_" x="5.9" y="24" fill="#566E7F" width="5.9" height="3.4"/>
	</g>
	<g id="XMLID_597_">
		<g id="XMLID_602_">
			<rect id="XMLID_603_" x="5.2" y="8.8" fill="#FFFFFF" width="1.5" height="2"/>
		</g>
		<g id="XMLID_600_">
			<rect id="XMLID_601_" x="8.1" y="8.8" fill="#FFFFFF" width="1.5" height="2"/>
		</g>
		<g id="XMLID_598_">
			<rect id="XMLID_599_" x="11" y="8.8" fill="#FFFFFF" width="1.5" height="2"/>
		</g>
	</g>
	<g id="XMLID_590_">
		<g id="XMLID_595_">
			<rect id="XMLID_596_" x="5.2" y="12.3" fill="#FFFFFF" width="1.5" height="2"/>
		</g>
		<g id="XMLID_593_">
			<rect id="XMLID_594_" x="8.1" y="12.3" fill="#FFFFFF" width="1.5" height="2"/>
		</g>
		<g id="XMLID_591_">
			<rect id="XMLID_592_" x="11" y="12.3" fill="#FFFFFF" width="1.5" height="2"/>
		</g>
	</g>
	<g id="XMLID_583_">
		<g id="XMLID_588_">
			<rect id="XMLID_589_" x="5.2" y="15.7" fill="#FFFFFF" width="1.5" height="2"/>
		</g>
		<g id="XMLID_586_">
			<rect id="XMLID_587_" x="8.1" y="15.7" fill="#FFFFFF" width="1.5" height="2"/>
		</g>
		<g id="XMLID_584_">
			<rect id="XMLID_585_" x="11" y="15.7" fill="#FFFFFF" width="1.5" height="2"/>
		</g>
	</g>
	<g id="XMLID_576_">
		<g id="XMLID_581_">
			<rect id="XMLID_582_" x="5.2" y="19.1" fill="#FFFFFF" width="1.5" height="2"/>
		</g>
		<g id="XMLID_579_">
			<rect id="XMLID_580_" x="8.1" y="19.1" fill="#FFFFFF" width="1.5" height="2"/>
		</g>
		<g id="XMLID_577_">
			<rect id="XMLID_578_" x="11" y="19.1" fill="#FFFFFF" width="1.5" height="2"/>
		</g>
	</g>
	<g id="XMLID_573_">
		<g id="XMLID_574_">
			<rect id="XMLID_575_" x="8.1" y="24" fill="#FFFFFF" width="1.5" height="3.4"/>
		</g>
	</g>
	<g id="XMLID_526_">
		<rect id="XMLID_572_" x="12.3" y="25.8" fill="#35495C" width="17.7" height="1.7"/>
	</g>
	<g id="XMLID_524_">
		<rect id="XMLID_525_" x="16" y="2.5" fill="#5494E0" width="10.3" height="24.9"/>
	</g>
	<g id="XMLID_522_">
		<rect id="XMLID_523_" x="18.2" y="2.5" fill="#5494E0" width="5.9" height="24.9"/>
	</g>
	<g id="XMLID_520_">
		<rect id="XMLID_521_" x="18.2" y="24" fill="#566E7F" width="5.9" height="3.4"/>
	</g>
	<g id="XMLID_513_">
		<g id="XMLID_518_">
			<rect id="XMLID_519_" x="17.5" y="8.8" fill="#FFFFFF" width="1.5" height="2"/>
		</g>
		<g id="XMLID_516_">
			<rect id="XMLID_517_" x="20.4" y="8.8" fill="#FFFFFF" width="1.5" height="2"/>
		</g>
		<g id="XMLID_514_">
			<rect id="XMLID_515_" x="23.4" y="8.8" fill="#FFFFFF" width="1.5" height="2"/>
		</g>
	</g>
	<g id="XMLID_506_">
		<g id="XMLID_511_">
			<rect id="XMLID_512_" x="17.5" y="12.3" fill="#FFFFFF" width="1.5" height="2"/>
		</g>
		<g id="XMLID_509_">
			<rect id="XMLID_510_" x="20.4" y="12.3" fill="#FFFFFF" width="1.5" height="2"/>
		</g>
		<g id="XMLID_507_">
			<rect id="XMLID_508_" x="23.4" y="12.3" fill="#FFFFFF" width="1.5" height="2"/>
		</g>
	</g>
	<g id="XMLID_499_">
		<g id="XMLID_504_">
			<rect id="XMLID_505_" x="17.5" y="5.6" fill="#FFFFFF" width="1.5" height="2"/>
		</g>
		<g id="XMLID_502_">
			<rect id="XMLID_503_" x="20.4" y="5.6" fill="#FFFFFF" width="1.5" height="2"/>
		</g>
		<g id="XMLID_500_">
			<rect id="XMLID_501_" x="23.4" y="5.6" fill="#FFFFFF" width="1.5" height="2"/>
		</g>
	</g>
	<g id="XMLID_492_">
		<g id="XMLID_497_">
			<rect id="XMLID_498_" x="17.5" y="15.7" fill="#FFFFFF" width="1.5" height="2"/>
		</g>
		<g id="XMLID_495_">
			<rect id="XMLID_496_" x="20.4" y="15.7" fill="#FFFFFF" width="1.5" height="2"/>
		</g>
		<g id="XMLID_493_">
			<rect id="XMLID_494_" x="23.4" y="15.7" fill="#FFFFFF" width="1.5" height="2"/>
		</g>
	</g>
	<g id="XMLID_485_">
		<g id="XMLID_490_">
			<rect id="XMLID_491_" x="17.5" y="19.1" fill="#FFFFFF" width="1.5" height="2"/>
		</g>
		<g id="XMLID_488_">
			<rect id="XMLID_489_" x="20.4" y="19.1" fill="#FFFFFF" width="1.5" height="2"/>
		</g>
		<g id="XMLID_486_">
			<rect id="XMLID_487_" x="23.4" y="19.1" fill="#FFFFFF" width="1.5" height="2"/>
		</g>
	</g>
	<g id="XMLID_482_">
		<g id="XMLID_483_">
			<rect id="XMLID_484_" x="20.4" y="24" fill="#FFFFFF" width="1.5" height="3.4"/>
		</g>
	</g>
</g>
</svg>
