<?xml version="1.0" encoding="utf-8"?>
<!-- Generator: Adobe Illustrator 18.0.0, SVG Export Plug-In . SVG Version: 6.00 Build 0)  -->
<!DOCTYPE svg PUBLIC "-//W3C//DTD SVG 1.0//EN" "http://www.w3.org/TR/2001/REC-SVG-20010904/DTD/svg10.dtd">
<svg version="1.0" id="Layer_1" xmlns="http://www.w3.org/2000/svg" xmlns:xlink="http://www.w3.org/1999/xlink" x="0px" y="0px"
	 width="30px" height="30px" viewBox="0 0 30 30" enable-background="new 0 0 30 30" xml:space="preserve">
<g>
	<path fill="#E6E6E6" d="M25.7,11.7h-3.5V14h2.3c0.6,0,1.2,0.5,1.2,1.2v5.8c0,0.6-0.5,1.2-1.2,1.2h-2.3v2.3h3.5c1.3,0,2.3-1,2.3-2.3
		V14C28,12.7,26.9,11.7,25.7,11.7z"/>
	<path fill="#E6E6E6" d="M18.7,2.3c-0.8,0-1.5,0.3-2.1,0.7c-0.6-1.1-1.7-1.9-3.1-1.9c-0.5,0-1,0.1-1.4,0.3C11.5,0.6,10.4,0,9.2,0
		C7.4,0,5.9,1.3,5.6,3C5.4,2.9,5.1,2.9,4.9,2.9C3.3,2.9,2,4.2,2,5.8v4.6c0,0.6,0.5,1.2,1.2,1.2h0.6c0.6,0,1.2-0.5,1.2-1.2V9.5
		c0.3,0.2,0.8,0.3,1.2,0.3h1.1C8,9.8,8.6,9.5,9,8.9c0.6,0.9,1.7,1.5,2.8,1.5c1.9,0,3.5-1.6,3.5-3.5H22c0.1-0.4,0.2-0.7,0.2-1.2
		C22.2,3.9,20.7,2.3,18.7,2.3z"/>
	<path fill="#F4C44E" d="M15.3,6.9c0,1.9-1.6,3.5-3.5,3.5c-1.2,0-2.2-0.6-2.8-1.5C8.6,9.5,8,9.8,7.2,9.8H6.1c-0.4,0-0.8-0.1-1.2-0.3
		v17.7c0,1.6,1.3,2.9,2.9,2.9h11.5c1.6,0,2.9-1.3,2.9-2.9V6.9H15.3z"/>
	<path fill="#F9DA49" d="M8.4,14.4c0-1-0.8-1.7-1.7-1.7s-1.7,0.8-1.7,1.7v12.1h3.5V14.4z"/>
	<path fill="#EEAF4B" d="M11.8,14.4c0-1-0.8-1.7-1.7-1.7c-1,0-1.7,0.8-1.7,1.7v12.1h3.5V14.4z"/>
	<path fill="#F9DA49" d="M15.3,14.4c0-1-0.8-1.7-1.7-1.7c-1,0-1.7,0.8-1.7,1.7v12.1h3.5V14.4z"/>
	<path fill="#EEAF4B" d="M18.7,14.4c0-1-0.8-1.7-1.7-1.7c-1,0-1.7,0.8-1.7,1.7v12.1h3.5V14.4z"/>
	<path fill="#F9DA49" d="M22.2,14.4c0-1-0.8-1.7-1.7-1.7c-1,0-1.7,0.8-1.7,1.7v12.1h3.5V14.4z"/>
</g>
</svg>
