<?xml version="1.0" encoding="utf-8"?>
<!-- Generator: Adobe Illustrator 18.0.0, SVG Export Plug-In . SVG Version: 6.00 Build 0)  -->
<!DOCTYPE svg PUBLIC "-//W3C//DTD SVG 1.0//EN" "http://www.w3.org/TR/2001/REC-SVG-20010904/DTD/svg10.dtd">
<svg version="1.0" id="Layer_1" xmlns="http://www.w3.org/2000/svg" xmlns:xlink="http://www.w3.org/1999/xlink" x="0px" y="0px"
	 width="30px" height="30px" viewBox="0 0 30 30" enable-background="new 0 0 30 30" xml:space="preserve">
<g id="XMLID_2033_">
	<path id="XMLID_2034_" fill="#565659" d="M17.1,6V4.8c0-1.2-1-2.1-2.1-2.1s-2.1,1-2.1,2.1V6c0.7-0.1,1.4-0.2,2.1-0.2
		C15.7,5.9,16.4,5.9,17.1,6z"/>
	<path id="XMLID_2035_" fill="#FFD45E" d="M15,20.9h11.8H30C30,13.3,24.4,7.1,17.1,6c-0.7-0.1-1.4-0.2-2.1-0.2V20.9z"/>
	<path id="XMLID_2036_" fill="#FFD45E" d="M15,5.9c-0.7,0-1.4,0.1-2.1,0.2C5.6,7.1,0,13.3,0,20.9h3.2H15V5.9z"/>
	<polygon id="XMLID_2037_" fill="#565659" points="26.8,24.1 26.8,20.9 15,20.9 3.2,20.9 3.2,24.1 15,24.1 	"/>
	<polygon id="XMLID_2038_" fill="#FFD45E" points="3.2,24.1 0,24.1 0,27.3 15,27.3 15,24.1 	"/>
	<polygon id="XMLID_2039_" fill="#FFD45E" points="15,24.1 15,27.3 30,27.3 30,24.1 26.8,24.1 	"/>
</g>
</svg>
