<?xml version="1.0" encoding="utf-8"?>
<!-- Generator: Adobe Illustrator 18.0.0, SVG Export Plug-In . SVG Version: 6.00 Build 0)  -->
<!DOCTYPE svg PUBLIC "-//W3C//DTD SVG 1.0//EN" "http://www.w3.org/TR/2001/REC-SVG-20010904/DTD/svg10.dtd">
<svg version="1.0" id="Layer_1" xmlns="http://www.w3.org/2000/svg" xmlns:xlink="http://www.w3.org/1999/xlink" x="0px" y="0px"
	 width="30px" height="30px" viewBox="0 0 30 30" enable-background="new 0 0 30 30" xml:space="preserve">
<g>
	<path fill="#EF6070" d="M24.9,14.5V9.7c0-0.6,0.5-1.1,1.1-1.1h3.2c0-1.1-0.9-2-2-2H2.8c-1.1,0-2,0.9-2,2v10.5h1.5
		c0-0.1,0.1-0.2,0.1-0.3C3,17.7,4.2,17,5.5,17s2.5,0.7,3.1,1.8c0,0.1,0.1,0.2,0.1,0.3h11.1c0-0.1,0.1-0.2,0.1-0.3
		c0.6-1.1,1.8-1.8,3.1-1.8c1.3,0,2.5,0.7,3.1,1.8c0,0.1,0.1,0.2,0.1,0.3h3v-3.5H26C25.4,15.6,24.9,15.1,24.9,14.5z"/>
	<path fill="#F1F3F7" d="M29.2,8.6v7H26c-0.6,0-1.1-0.5-1.1-1.1V9.7c0-0.3,0.1-0.5,0.3-0.7c0.2-0.2,0.5-0.4,0.8-0.4L29.2,8.6
		L29.2,8.6z"/>
	<path fill="#F1F3F7" d="M9.3,8.6v7H4c-0.6,0-1.1-0.5-1.1-1.1V9.7c0-0.1,0-0.3,0.1-0.4c0.2-0.4,0.5-0.7,1-0.7H9.3z"/>
	<rect x="10.3" y="8.6" fill="#F1F3F7" width="5.9" height="7"/>
	<path fill="#F1F3F7" d="M23.3,9.7v4.8c0,0,0,0,0,0.1c0,0.6-0.5,1-1.1,1h-5v-7h5C22.8,8.6,23.3,9.1,23.3,9.7z"/>
	<path fill="#CCCCCC" d="M30,19.9L30,19.9c0,0.4-0.3,0.8-0.8,0.8h-2.7c0-0.1,0-0.1,0-0.2c0-0.5-0.1-0.9-0.3-1.4h3
		C29.7,19.1,30,19.4,30,19.9z"/>
	<path fill="#CCCCCC" d="M2,20.5c0,0.1,0,0.1,0,0.2H0.8c-0.4,0-0.8-0.3-0.8-0.8v0c0-0.4,0.3-0.8,0.8-0.8h1.5C2.1,19.5,2,20,2,20.5z"
		/>
	<path fill="#CCCCCC" d="M19.5,20.5c0,0.1,0,0.1,0,0.2H8.9c0-0.1,0-0.1,0-0.2c0-0.5-0.1-0.9-0.3-1.4h11.1
		C19.6,19.5,19.5,20,19.5,20.5z"/>
	<path fill="#E6E6E6" d="M23,19.3c0.7,0,1.2,0.5,1.2,1.2c0,0.7-0.5,1.2-1.2,1.2c-0.7,0-1.2-0.5-1.2-1.2C21.9,19.8,22.4,19.3,23,19.3
		z"/>
	<path fill="#E6E6E6" d="M5.5,19.3c0.7,0,1.2,0.5,1.2,1.2c0,0.7-0.5,1.2-1.2,1.2s-1.2-0.5-1.2-1.2C4.3,19.8,4.8,19.3,5.5,19.3z"/>
	<path fill="#565659" d="M25.9,20.5c0,0.1,0,0.1,0,0.2c-0.1,1.5-1.3,2.7-2.9,2.7c-1.5,0-2.8-1.2-2.9-2.7c0-0.1,0-0.1,0-0.2
		c0-0.5,0.1-1,0.3-1.4c0.5-0.9,1.4-1.5,2.5-1.5c1.1,0,2.1,0.6,2.6,1.5C25.8,19.5,25.9,20,25.9,20.5z M24.2,20.5
		c0-0.7-0.5-1.2-1.2-1.2c-0.7,0-1.2,0.5-1.2,1.2c0,0.7,0.5,1.2,1.2,1.2C23.7,21.6,24.2,21.1,24.2,20.5z"/>
	<path fill="#565659" d="M8,19.1c0.2,0.4,0.3,0.9,0.3,1.4c0,0.1,0,0.1,0,0.2c-0.1,1.5-1.3,2.7-2.9,2.7c-1.5,0-2.8-1.2-2.9-2.7
		c0-0.1,0-0.1,0-0.2c0-0.5,0.1-1,0.3-1.4c0.5-0.9,1.4-1.5,2.5-1.5C6.6,17.6,7.5,18.2,8,19.1z M6.6,20.5c0-0.7-0.5-1.2-1.2-1.2
		s-1.2,0.5-1.2,1.2c0,0.7,0.5,1.2,1.2,1.2S6.6,21.1,6.6,20.5z"/>
	<path fill="#F7CF52" d="M29.2,17.9L29.2,17.9c-0.8,0-1.3-0.6-1.3-1.3l0,0h1.3V17.9z"/>
</g>
</svg>
