<?xml version="1.0" encoding="utf-8"?>
<!-- Generator: Adobe Illustrator 18.0.0, SVG Export Plug-In . SVG Version: 6.00 Build 0)  -->
<!DOCTYPE svg PUBLIC "-//W3C//DTD SVG 1.0//EN" "http://www.w3.org/TR/2001/REC-SVG-20010904/DTD/svg10.dtd">
<svg version="1.0" id="Layer_1" xmlns="http://www.w3.org/2000/svg" xmlns:xlink="http://www.w3.org/1999/xlink" x="0px" y="0px"
	 width="30px" height="30px" viewBox="0 0 30 30" enable-background="new 0 0 30 30" xml:space="preserve">
<g>
	<polygon fill="#CCCCCC" points="21.9,19 17.7,11.4 22.4,6.7 30,10.9 	"/>
	<path fill="#BFBEBE" d="M26,15l-4,4l-4.2-7.6l0.6-0.6c0.2,0.2,0.4,0.3,0.6,0.5C21.3,13,23.8,14.3,26,15z"/>
	<polygon fill="#BFBEBE" points="30,10.9 21.9,19 21.5,18.1 29.1,10.5 	"/>
	<path fill="#565659" d="M0.4,26.2L0.4,26.2c-0.5-0.5-0.5-1.3,0-1.9L21,3.8c0.5-0.5,1.3-0.5,1.9,0l0,0c0.5,0.5,0.5,1.3,0,1.9
		L2.2,26.2C1.7,26.7,0.9,26.7,0.4,26.2z"/>
	<path fill="#565659" d="M22.8,5.6L2.2,26.2c-0.3,0.3-0.6,0.4-0.9,0.4c-0.3,0-0.7-0.1-0.9-0.4c-0.5-0.5-0.5-1.3,0-1.9l6.1-6.1
		c2.1-1.2,4.5-2.7,6.9-4.5c4.6-3.5,8-7.3,9.5-10c0,0,0,0,0,0C23.4,4.3,23.4,5.1,22.8,5.6z"/>
	<path fill="#CCCCCC" d="M20.2,4.5c-0.3-0.3-0.7-0.3-1,0l-3.7,3.7c-0.3,0.3-0.3,0.7,0,1l2.2,2.2l4.7-4.7L20.2,4.5z"/>
	<path fill="#BFBEBE" d="M19.3,9.8l-1.6,1.6l-2.2-2.2c-0.2-0.2-0.2-0.6,0-0.9l0.2-0.2C16.7,8.7,18,9.3,19.3,9.8z"/>
</g>
</svg>
