<?xml version="1.0" encoding="utf-8"?>
<!-- Generator: Adobe Illustrator 18.0.0, SVG Export Plug-In . SVG Version: 6.00 Build 0)  -->
<!DOCTYPE svg PUBLIC "-//W3C//DTD SVG 1.0//EN" "http://www.w3.org/TR/2001/REC-SVG-20010904/DTD/svg10.dtd">
<svg version="1.0" id="Layer_1" xmlns="http://www.w3.org/2000/svg" xmlns:xlink="http://www.w3.org/1999/xlink" x="0px" y="0px"
	 width="30px" height="30px" viewBox="0 0 30 30" enable-background="new 0 0 30 30" xml:space="preserve">
<g>
	<path fill="#D2D5D7" d="M14.9,16.8H1.1c-0.6,0-1.1-1.1-1.1-1.7v-1.1c0-0.6,0.5-0.6,1.1-0.6h27.6c0.6,0,1.1-0.1,1.1,0.6v1.1
		c0,0.6-0.5,1.7-1.1,1.7h-4H14.9z"/>
	<path fill="#D2D5D7" d="M30,16.2c0,6.9-6.7,13.2-14.9,13.2c-8.3,0-14.9-6.3-14.9-13.2H30z"/>
	<path fill="#A5A5A5" d="M14.5,27.8C14.5,27.8,14.5,27.8,14.5,27.8c-3.4-0.3-6.5-1.7-8.8-3.8c-0.2-0.2-0.2-0.6,0-0.8s0.6-0.2,0.8,0
		c2.1,1.9,4.9,3.2,8.1,3.5c0.3,0,0.5,0.3,0.5,0.6C15.1,27.6,14.8,27.8,14.5,27.8z"/>
	<path fill="#A5A5A5" d="M4.3,22.4c-0.1,0-0.3,0-0.4-0.1c-0.2-0.2-0.5-0.5-0.7-0.7c-0.2-0.3-0.1-0.6,0.1-0.8
		c0.3-0.2,0.6-0.1,0.8,0.1c0.2,0.2,0.3,0.4,0.5,0.6c0.2,0.2,0.3,0.6,0,0.8C4.6,22.3,4.4,22.4,4.3,22.4z"/>
	<path fill="#FFD45E" d="M15.5,13.4v5.1c0,0.8,0.6,1.4,1.4,1.4c0.8,0,1.4-0.6,1.4-1.4v-1v-0.4c0-0.8,0.6-1.4,1.4-1.4
		c0.8,0,1.4,0.6,1.4,1.4v3.8v1c0,0.8,0.6,1.4,1.4,1.4c0.8,0,1.4-0.6,1.4-1.4v-8.5v0.1H15.5z"/>
	<path fill="#565659" d="M14.8,13.4L2.7,0.9C2.3,0.5,1.6,0.4,1.2,0.8L1.1,0.9c-0.4,0.4-0.4,1.3,0,1.7l10.5,10.7L14.8,13.4L14.8,13.4
		z"/>
</g>
</svg>
