<?xml version="1.0" encoding="utf-8"?>
<!-- Generator: Adobe Illustrator 18.0.0, SVG Export Plug-In . SVG Version: 6.00 Build 0)  -->
<!DOCTYPE svg PUBLIC "-//W3C//DTD SVG 1.0//EN" "http://www.w3.org/TR/2001/REC-SVG-20010904/DTD/svg10.dtd">
<svg version="1.0" id="Layer_1" xmlns="http://www.w3.org/2000/svg" xmlns:xlink="http://www.w3.org/1999/xlink" x="0px" y="0px"
	 width="30px" height="30px" viewBox="0 0 30 30" enable-background="new 0 0 30 30" xml:space="preserve">
<g>
	<path fill="#FFD45E" d="M30,17V28c0,1.1-0.9,2-2,2H15H2c-1.1,0-2-0.9-2-2V15V9.8l2,0.1c1.4,0.1,2.6-1,2.6-2.4l0,0
		C4.6,6.1,3.4,5,2,5.1L0,5.2V2c0-1.1,0.9-2,2-2H13c1.1,0,2,0.9,2,2v13h5.2l-0.1-2c-0.1-1.4,1-2.6,2.4-2.6l0,0c1.4,0,2.5,1.2,2.4,2.6
		l-0.1,2H28C29.1,15,30,15.9,30,17z"/>
	<path fill="#61B16E" d="M30,17V28c0,1.1-0.9,2-2,2H15H2c-1.1,0-2-0.9-2-2V15h5.2l-0.1,2c-0.1,1.4,1,2.6,2.4,2.6l0,0
		c1.4,0,2.5-1.2,2.4-2.6l-0.1-2H15h5.2l-0.1-2c-0.1-1.4,1-2.6,2.4-2.6l0,0c1.4,0,2.5,1.2,2.4,2.6l-0.1,2H28C29.1,15,30,15.9,30,17z"
		/>
	<path fill="#EF6070" d="M15,24.8V30H2c-1.1,0-2-0.9-2-2V15h5.2l-0.1,2c-0.1,1.4,1,2.6,2.4,2.6S10,18.4,9.9,17l-0.1-2H15v5.2l2-0.1
		c1.4-0.1,2.6,1,2.6,2.4l0,0c0,1.4-1.2,2.5-2.6,2.4L15,24.8z"/>
</g>
</svg>
