<?xml version="1.0" encoding="utf-8"?>
<!-- Generator: Adobe Illustrator 18.0.0, SVG Export Plug-In . SVG Version: 6.00 Build 0)  -->
<!DOCTYPE svg PUBLIC "-//W3C//DTD SVG 1.0//EN" "http://www.w3.org/TR/2001/REC-SVG-20010904/DTD/svg10.dtd">
<svg version="1.0" id="Layer_1" xmlns="http://www.w3.org/2000/svg" xmlns:xlink="http://www.w3.org/1999/xlink" x="0px" y="0px"
	 width="30px" height="30px" viewBox="0 0 30 30" enable-background="new 0 0 30 30" xml:space="preserve">
<g>
	<path fill="#565659" d="M11.3,29.1c-0.6,0.6-0.8,1.3-1.4,0.7l-9.8-9.7c-0.6-0.6,0.1-0.8,0.7-1.4l2.9-0.9c0.6-0.6,1.5-0.6,2,0
		l6.3,6.3c0.6,0.6,0.6,1.5,0,2L11.3,29.1z"/>
	<path fill="#073135" d="M11.3,29.1c-0.6,0.6-0.8,1.3-1.4,0.7l-9.8-9.7c-0.6-0.6,0.1-0.8,0.7-1.4"/>
	<g>
		<path fill="#C19A6B" d="M11.3,20c-0.4,0.4-1,0.4-1.4,0l0,0c-0.4-0.4-0.4-1,0-1.4L28.4,0.3c0.4-0.4,1-0.4,1.4,0l0,0
			c0.4,0.4,0.4,1,0,1.4L11.3,20z"/>
		<path fill="#C19A6B" d="M12.8,24.2c-0.1,0.1-0.4,0.1-0.6,0l-6.5-6.5c-0.1-0.1-0.1-0.4,0-0.6l1-1c0.1-0.1,0.4-0.1,0.6,0l6.4,6.4
			c0.1,0.1,0.1,0.4,0,0.6L12.8,24.2z"/>
	</g>
	<path fill="#AF895F" d="M13.8,22.6c0.1,0.1,0.1,0.4,0,0.6l-1,1c-0.1,0.1-0.4,0.1-0.6,0l-6.4-6.5c-0.1-0.1-0.1-0.4,0-0.6"/>
</g>
</svg>
