<?xml version="1.0" encoding="utf-8"?>
<!-- Generator: Adobe Illustrator 18.0.0, SVG Export Plug-In . SVG Version: 6.00 Build 0)  -->
<!DOCTYPE svg PUBLIC "-//W3C//DTD SVG 1.0//EN" "http://www.w3.org/TR/2001/REC-SVG-20010904/DTD/svg10.dtd">
<svg version="1.0" id="Layer_1" xmlns="http://www.w3.org/2000/svg" xmlns:xlink="http://www.w3.org/1999/xlink" x="0px" y="0px"
	 width="30px" height="30px" viewBox="0 0 30 30" enable-background="new 0 0 30 30" xml:space="preserve">
<g>
	<rect x="16.1" y="3.2" fill="#DDDDDD" width="10.1" height="3.5"/>
	<path fill="#49616E" d="M28.7,22v2.4c0,0.9-0.8,1.7-1.7,1.7H9.9v-2.5h1.3h15.9C28,23.6,28.7,22.9,28.7,22z"/>
	<path fill="#49616E" d="M28.7,20.4V22c0,0.9-0.7,1.6-1.6,1.6H11.2c1.4,0,2.5-1.1,2.5-2.5v-2h0c0,0,0-0.1,0-0.1V2.3
		c0-1.3-1-2.3-2.3-2.3v0h15.8c0.9,0,1.6,0.7,1.6,1.6V20.4z M26.5,20.2v-2.3h-2.3v2.3H26.5z M26.5,15.9v-2.3h-2.3v2.3H26.5z
		 M26.5,11.7V9.4h-2.3v2.3H26.5z M26.2,6.7V3.2h-2.3h-2.4h-5.4v3.5h3.4h2.4H26.2z M22.3,20.2v-2.3H20v2.3H22.3z M22.3,15.9v-2.3H20
		v2.3H22.3z M22.3,11.7V9.4H20v2.3H22.3z M18.1,20.2v-2.3h-2.3v2.3H18.1z M18.1,15.9v-2.3h-2.3v2.3H18.1z M18.1,11.7V9.4h-2.3v2.3
		H18.1z"/>
	<path fill="#DDDDDD" d="M9.9,23.6H8.7c-1.4,0-2.5-1.1-2.5-2.5v-2h0c0.1,1.2,1.1,2.2,2.3,2.2h2.9c1.2,0,2.3-1,2.3-2.2h0v2
		c0,1.4-1.1,2.5-2.5,2.5H9.9z"/>
	<path fill="#FFFFFF" d="M13.7,2.3V19c0,0,0,0.1,0,0.1c-0.1,1.2-1.1,2.2-2.3,2.2H8.5c-1.2,0-2.3-1-2.3-2.2c0,0,0-0.1,0-0.1V2.3
		c0-1.3,1-2.3,2.3-2.3h2.9C12.6,0,13.7,1.1,13.7,2.3z"/>
	<path fill="#49616E" d="M11.3,0L11.3,0L8.5,0c-1.3,0-2.3,1-2.3,2.3V19c0,0,0,0.1,0,0.1h0v2c0,1.4,1.1,2.5,2.5,2.5H5.9
		c-0.9,0-1.6-0.7-1.6-1.6v-1.5V4V1.6C4.3,0.7,5,0,5.9,0H11.3z"/>
	<path fill="#49616E" d="M9.9,23.6v2.5H6c-0.9,0-1.7-0.8-1.7-1.7V22c0,0.9,0.7,1.6,1.6,1.6h2.8L9.9,23.6L9.9,23.6z"/>
	<path fill="#49616E" d="M7.5,30H4.3c-1.7,0-3-1.3-3-3V6.5c0-1.7,1.3-3,3-3v1.1c-1.1,0-1.9,0.9-1.9,1.9V27c0,1.1,0.9,1.9,1.9,1.9
		h3.1c1.1,0,1.9-0.9,1.9-1.9v-4c0-0.3,0.2-0.5,0.5-0.5l0,0c0.3,0,0.5,0.2,0.5,0.5v4C10.5,28.7,9.1,30,7.5,30z"/>
	<rect x="16.8" y="4" fill="#E2574C" width="8.7" height="2"/>
	<g>
		<rect x="24.2" y="18.4" fill="#DDDDDD" width="2.3" height="2.3"/>
		<rect x="24.2" y="14.2" fill="#DDDDDD" width="2.3" height="2.3"/>
		<rect x="24.2" y="10" fill="#DDDDDD" width="2.3" height="2.3"/>
		<rect x="20" y="18.4" fill="#DDDDDD" width="2.3" height="2.3"/>
		<rect x="20" y="14.2" fill="#DDDDDD" width="2.3" height="2.3"/>
		<rect x="20" y="10" fill="#DDDDDD" width="2.3" height="2.3"/>
		<rect x="15.8" y="18.4" fill="#DDDDDD" width="2.3" height="2.3"/>
		<rect x="15.8" y="14.2" fill="#DDDDDD" width="2.3" height="2.3"/>
		<rect x="15.8" y="10" fill="#DDDDDD" width="2.3" height="2.3"/>
	</g>
	<g>
		<rect x="24.2" y="17.9" fill="#FFFFFF" width="2.3" height="2.3"/>
		<rect x="24.2" y="13.6" fill="#FFFFFF" width="2.3" height="2.3"/>
		<rect x="24.2" y="9.4" fill="#FFFFFF" width="2.3" height="2.3"/>
		<rect x="20" y="17.9" fill="#FFFFFF" width="2.3" height="2.3"/>
		<rect x="20" y="13.6" fill="#FFFFFF" width="2.3" height="2.3"/>
		<rect x="20" y="9.4" fill="#FFFFFF" width="2.3" height="2.3"/>
		<rect x="15.8" y="17.9" fill="#FFFFFF" width="2.3" height="2.3"/>
		<rect x="15.8" y="13.6" fill="#FFFFFF" width="2.3" height="2.3"/>
		<rect x="15.8" y="9.4" fill="#FFFFFF" width="2.3" height="2.3"/>
	</g>
	<polygon fill="#DDDDDD" points="23.9,3.2 21.9,6.7 19.5,6.7 21.5,3.2 	"/>
</g>
</svg>
