<?xml version="1.0" encoding="utf-8"?>
<!-- Generator: Adobe Illustrator 18.0.0, SVG Export Plug-In . SVG Version: 6.00 Build 0)  -->
<!DOCTYPE svg PUBLIC "-//W3C//DTD SVG 1.0//EN" "http://www.w3.org/TR/2001/REC-SVG-20010904/DTD/svg10.dtd">
<svg version="1.0" id="Layer_1" xmlns="http://www.w3.org/2000/svg" xmlns:xlink="http://www.w3.org/1999/xlink" x="0px" y="0px"
	 width="30px" height="30px" viewBox="0 0 30 30" enable-background="new 0 0 30 30" xml:space="preserve">
<g>
	<path fill="#EF6070" d="M23.7,19.7c0.8,0,1.4,0.6,1.4,1.4c0,0.8-0.6,1.4-1.4,1.4H1.4C0.6,22.4,0,21.8,0,21c0-0.8,0.6-1.4,1.4-1.4
		L23.7,19.7L23.7,19.7z"/>
	<path fill="#EF6070" d="M16.6,19.5c-0.8,0-1.5,0.7-1.5,1.5c0,0.8,0.7,1.5,1.5,1.5h12c0.8,0,1.5-0.7,1.5-1.5c0-0.8-0.7-1.5-1.5-1.5
		H16.6L16.6,19.5z"/>
	<g>
		<path fill="#E4E4E4" d="M16.3,13.8l0.8-0.8c0.2-0.2,0.6-0.2,0.8,0l0.4,0.4c0.2,0.2,0.6,0.2,0.8,0l0.4-0.4c0.2-0.2,0.6-0.2,0.8,0
			l0.4,0.4c0.2,0.2,0.6,0.2,0.8,0L22,13c0.2-0.2,0.6-0.2,0.8,0l0.4,0.4c0.2,0.2,0.6,0.2,0.8,0l0.4-0.4c0.2-0.2,0.6-0.2,0.8,0
			l0.4,0.4c0.2,0.2,0.6,0.2,0.8,0l0.4-0.4c0.2-0.2,0.6-0.2,0.8,0l0.8,0.8v5.7h-12V13.8z"/>
		<path fill="#BFC2C5" d="M26.9,12.9v6.6h0.6v-6.5C27.3,12.8,27,12.8,26.9,12.9z M19.7,12.9v6.5h0.6v-6.5
			C20.1,12.8,19.8,12.8,19.7,12.9z M17.3,12.9v6.5h0.6v-6.5C17.7,12.8,17.4,12.8,17.3,12.9z M24.5,12.9v6.6H25v-6.5
			C24.9,12.8,24.6,12.8,24.5,12.9z M22.1,12.9v6.5h0.6v-6.5C22.5,12.8,22.2,12.8,22.1,12.9z"/>
	</g>
	<g>
		<path fill="#5494E0" d="M28.4,7.6L28.4,7.6L28.4,7.6L28.4,7.6z M28.4,7.6c-0.2,1.2-1.3,2.2-2.6,2.2c-2.2,0-5.8-1.4-7.8-1.4
			c-1.2,0-2.3,1-2.3,2.3c0,1,0.6,1.8,1.5,2.1c1.1,0.5,9.8,1.6,11.3-1l0,0c0.4-0.5,0.7-1.2,0.7-2C29.3,8.9,29,8.2,28.4,7.6z"/>
		<circle fill="#99DAEA" cx="17.9" cy="9.6" r="0.3"/>
		<circle fill="#99DAEA" cx="21" cy="9.6" r="0.3"/>
		<circle fill="#61B8CC" cx="22.9" cy="10.5" r="0.3"/>
		<circle fill="#61B8CC" cx="17.5" cy="11.2" r="0.3"/>
		<circle fill="#61B8CC" cx="19.6" cy="10.5" r="0.3"/>
		<circle fill="#61B8CC" cx="28" cy="11.2" r="0.3"/>
		<circle fill="#99DAEA" cx="26.9" cy="10.5" r="0.3"/>
		<circle fill="#99DAEA" cx="28.3" cy="9.3" r="0.3"/>
	</g>
</g>
</svg>
