<?xml version="1.0" encoding="utf-8"?>
<!-- Generator: Adobe Illustrator 18.0.0, SVG Export Plug-In . SVG Version: 6.00 Build 0)  -->
<!DOCTYPE svg PUBLIC "-//W3C//DTD SVG 1.0//EN" "http://www.w3.org/TR/2001/REC-SVG-20010904/DTD/svg10.dtd">
<svg version="1.0" id="Layer_1" xmlns="http://www.w3.org/2000/svg" xmlns:xlink="http://www.w3.org/1999/xlink" x="0px" y="0px"
	 width="30px" height="30px" viewBox="0 0 30 30" enable-background="new 0 0 30 30" xml:space="preserve">
<g>
	<g id="Layer_2_43_">
		<g>
			<path fill="#FFFFFF" d="M24.8,2.6c-3.3-3.9-9-0.9-9.8-0.4C12.5,0.4,8.9-1.1,6,1.1C3.9,2.7,2.7,4.7,2.4,7.2
				c-0.4,3.7,1.4,7.3,2.4,8.4c0.5,0.6,0.7,3.4,0.8,5.5c0.3,4.4,0.5,8.3,2.8,8.7c0.6,0.1,1.1,0,1.6-0.3c1.2-0.8,1.6-2.9,2.1-5.2
				c0.6-3,1.1-5.4,2.5-5.3c0.4,0,0.6,0.2,0.7,0.3c0.7,0.8,0.4,3.3,0.2,5.1c-0.3,2.6-0.6,4.9,1.1,5.4c0.2,0,0.3,0.1,0.6,0.1
				c0.3,0,0.8-0.1,1.2-0.4c2.7-1.6,4.7-8.5,5.6-12.2c2.1-1.6,3.5-4,3.8-6.6C27.8,8.8,27.5,5.7,24.8,2.6L24.8,2.6z"/>
		</g>
	</g>
</g>
</svg>
