<?xml version="1.0" encoding="utf-8"?>
<!-- Generator: Adobe Illustrator 18.0.0, SVG Export Plug-In . SVG Version: 6.00 Build 0)  -->
<!DOCTYPE svg PUBLIC "-//W3C//DTD SVG 1.0//EN" "http://www.w3.org/TR/2001/REC-SVG-20010904/DTD/svg10.dtd">
<svg version="1.0" id="Layer_1" xmlns="http://www.w3.org/2000/svg" xmlns:xlink="http://www.w3.org/1999/xlink" x="0px" y="0px"
	 width="30px" height="30px" viewBox="0 0 30 30" enable-background="new 0 0 30 30" xml:space="preserve">
<g id="XMLID_13_">
	<path id="XMLID_958_" fill="#FBFBFB" d="M28.9,1.1c-1.5-1.5-3.9-1.5-5.4,0l-0.7,0.7l5.4,5.4l0.7-0.7C30.4,5,30.4,2.6,28.9,1.1z"/>
	
		<rect id="XMLID_959_" x="13.9" y="4.1" transform="matrix(-0.7071 -0.7071 0.7071 -0.7071 15 40.0134)" fill="#00A85C" width="3.8" height="25.7"/>
	
		<rect id="XMLID_960_" x="11.2" y="1.4" transform="matrix(-0.7071 -0.7071 0.7071 -0.7071 12.3128 33.5261)" fill="#61B16E" width="3.8" height="25.7"/>
	<polygon id="XMLID_961_" fill="#565659" points="20.8,3.8 23.5,6.5 26.2,9.2 28.2,7.2 22.8,1.8 	"/>
	<polygon id="XMLID_962_" fill="#FFE98F" points="2.7,21.9 1.3,26 4,28.7 8.1,27.3 5.4,24.6 	"/>
	<polygon id="XMLID_963_" fill="#565659" points="0,30 4,28.7 1.3,26 	"/>
</g>
</svg>
