<?xml version="1.0" encoding="utf-8"?>
<!-- Generator: Adobe Illustrator 18.0.0, SVG Export Plug-In . SVG Version: 6.00 Build 0)  -->
<!DOCTYPE svg PUBLIC "-//W3C//DTD SVG 1.0//EN" "http://www.w3.org/TR/2001/REC-SVG-20010904/DTD/svg10.dtd">
<svg version="1.0" id="Layer_1" xmlns="http://www.w3.org/2000/svg" xmlns:xlink="http://www.w3.org/1999/xlink" x="0px" y="0px"
	 width="30px" height="30px" viewBox="0 0 30 30" enable-background="new 0 0 30 30" xml:space="preserve">
<g>
	<path fill="#93C7EF" d="M13,19.7l-2.6-2.6l9.9-9.6c0.5-0.6,0.8-1.3,0.8-2.1c0-0.6-0.2-1.1-0.5-1.6h-3.9V0h5.5l0.5,0.5
		c1.3,1.2,2.1,2.9,2.1,4.7C24.9,7,24.3,8.7,23,10L23,10L13,19.7z"/>
	<path fill="#C9E3F7" d="M13.1,19.7L3.1,10C0.6,7.3,0.7,3,3.4,0.5L3.9,0h5.5v3.7H5.5C4.7,4.8,4.8,6.4,5.8,7.4l9.9,9.6L13.1,19.7z"/>
	<path fill="#EF6070" d="M22.6,18.7v3.8c0,2.1-1.7,3.9-3.9,3.9s-3.9-1.7-3.9-3.9v-4.6l3.2-3.1l-2.6-2.6l-2.5,2.4l-2.5-2.4L8,14.7
		l3.2,3.1v4.6c0,4.2,3.4,7.5,7.5,7.5s7.5-3.4,7.5-7.5v-3.8L22.6,18.7L22.6,18.7z"/>
	<circle fill="#93C7EF" cx="24.6" cy="19.4" r="4.1"/>
	<circle fill="#5A8BB0" cx="24.6" cy="19.4" r="2.3"/>
</g>
</svg>
