<?xml version="1.0" encoding="utf-8"?>
<!-- Generator: Adobe Illustrator 18.0.0, SVG Export Plug-In . SVG Version: 6.00 Build 0)  -->
<!DOCTYPE svg PUBLIC "-//W3C//DTD SVG 1.0//EN" "http://www.w3.org/TR/2001/REC-SVG-20010904/DTD/svg10.dtd">
<svg version="1.0" id="Layer_1" xmlns="http://www.w3.org/2000/svg" xmlns:xlink="http://www.w3.org/1999/xlink" x="0px" y="0px"
	 width="30px" height="30px" viewBox="0 0 30 30" enable-background="new 0 0 30 30" xml:space="preserve">
<g>
	<g>
		<path fill="#868491" d="M16.4,27.2h-2.8c-0.3,0-0.5,0.2-0.5,0.5v0.5c0,1,0.8,1.9,1.9,1.9s1.9-0.8,1.9-1.9v-0.5
			C16.9,27.4,16.7,27.2,16.4,27.2z"/>
	</g>
	<g>
		<path fill="#4C545F" d="M15,27.2h-1.4c-0.3,0-0.5,0.2-0.5,0.5v0.5c0,1,0.8,1.9,1.9,1.9L15,27.2L15,27.2z"/>
	</g>
	<g>
		<path fill="#FFD45E" d="M22.4,2.9c-2.2-2.1-5.1-3.1-8.1-2.9C8.8,0.4,4.4,4.9,4.2,10.4c-0.1,4.1,2,7.8,5.6,9.8
			c0.9,0.5,1.4,1.4,1.4,2.5v3.6c0,1,0.8,1.9,1.9,1.9h3.7c1,0,1.9-0.8,1.9-1.9v-3.6c0-1,0.6-2,1.5-2.5c3.4-1.9,5.6-5.5,5.6-9.4
			C25.8,7.8,24.5,5,22.4,2.9z"/>
	</g>
	<g>
		<circle fill="#FFE671" cx="15" cy="10.8" r="7.5"/>
	</g>
	<g>
		<g>
			<path fill="#FFFFFF" d="M16.6,13.6c-0.6,0-0.9-0.4-1.2-0.6c-0.2-0.2-0.3-0.3-0.5-0.3c-0.2,0-0.3,0.1-0.5,0.3
				c-0.2,0.3-0.5,0.6-1.2,0.6c-0.6,0-1-0.4-1.2-0.6c-0.2-0.2-0.3-0.3-0.5-0.3c-0.3,0-0.5-0.2-0.5-0.5s0.2-0.5,0.5-0.5
				c0.6,0,1,0.4,1.2,0.6c0.2,0.2,0.3,0.3,0.5,0.3s0.3-0.1,0.5-0.3c0.2-0.3,0.5-0.6,1.2-0.6c0.6,0,0.9,0.4,1.2,0.6
				c0.2,0.2,0.3,0.3,0.5,0.3c0.2,0,0.3-0.1,0.5-0.3c0.2-0.3,0.6-0.6,1.2-0.6c0.3,0,0.5,0.2,0.5,0.5s-0.2,0.5-0.5,0.5
				c-0.2,0-0.3,0.1-0.5,0.3C17.6,13.2,17.3,13.6,16.6,13.6z"/>
		</g>
	</g>
	<g>
		<g>
			<path fill="#4C545F" d="M13.6,22.5c-0.2,0-0.4-0.1-0.5-0.4l-2.3-10.8c-0.1-0.3,0.1-0.5,0.4-0.6c0.3-0.1,0.5,0.1,0.6,0.4l2.3,10.8
				c0.1,0.3-0.1,0.5-0.4,0.6C13.7,22.5,13.6,22.5,13.6,22.5z"/>
		</g>
	</g>
	<g>
		<g>
			<path fill="#4C545F" d="M16.4,22.5c0,0-0.1,0-0.1,0c-0.3-0.1-0.4-0.3-0.4-0.6l2.3-10.8c0.1-0.3,0.3-0.4,0.6-0.4
				c0.3,0.1,0.4,0.3,0.4,0.6l-2.3,10.8C16.8,22.4,16.6,22.5,16.4,22.5z"/>
		</g>
	</g>
	<g>
		<path fill="#ACABB1" d="M11.2,22c0,0.2,0.1,0.4,0.1,0.6v3.6c0,1,0.8,1.9,1.9,1.9h3.7c1,0,1.9-0.8,1.9-1.9v-3.6
			c0-0.2,0-0.4,0.1-0.6H11.2z"/>
	</g>
	<g>
		<path fill="#ACABB1" d="M15,22h-3.8c0,0.2,0.1,0.4,0.1,0.6v3.6c0,1,0.8,1.9,1.9,1.9H15V22z"/>
	</g>
	<g>
		<g>
			<rect x="15" y="23.4" fill="#4C545F" width="3.7" height="0.9"/>
		</g>
	</g>
	<g>
		<g>
			<rect x="15" y="25.3" fill="#4C545F" width="3.7" height="0.9"/>
		</g>
	</g>
	<g>
		<g>
			<rect x="11.2" y="23.4" fill="#4C545F" width="3.7" height="0.9"/>
		</g>
	</g>
	<g>
		<g>
			<rect x="11.2" y="25.3" fill="#4C545F" width="3.7" height="0.9"/>
		</g>
	</g>
</g>
</svg>
