<?xml version="1.0" encoding="utf-8"?>
<!-- Generator: Adobe Illustrator 18.0.0, SVG Export Plug-In . SVG Version: 6.00 Build 0)  -->
<!DOCTYPE svg PUBLIC "-//W3C//DTD SVG 1.0//EN" "http://www.w3.org/TR/2001/REC-SVG-20010904/DTD/svg10.dtd">
<svg version="1.0" id="Layer_1" xmlns="http://www.w3.org/2000/svg" xmlns:xlink="http://www.w3.org/1999/xlink" x="0px" y="0px"
	 width="30px" height="30px" viewBox="0 0 30 30" enable-background="new 0 0 30 30" xml:space="preserve">
<g>
	<g>
		<g>
			<g>
				<path fill="#4C545F" d="M17.4,16.2l3.3,0.2c0.2-0.4,0.4-0.7,0.6-1.1c0.2-0.4,0.3-0.8,0.4-1.2l-2.4-2.2c0.1-0.6,0.1-1.3,0-1.9
					l2.4-2.1c-0.2-0.8-0.5-1.6-0.9-2.3l-3.3,0.1c-0.4-0.5-0.8-1-1.3-1.4l0.2-3.3c-0.4-0.2-0.7-0.4-1.1-0.6c-0.4-0.2-0.8-0.3-1.2-0.4
					l-2.2,2.4c-0.6-0.1-1.3-0.1-1.9,0L7.9,0C7.1,0.2,6.3,0.5,5.6,0.9l0.1,3.3C5.2,4.6,4.7,5,4.3,5.5L1.1,5.3C0.9,5.6,0.7,6,0.5,6.4
					C0.3,6.8,0.2,7.2,0.1,7.6l2.4,2.2c-0.1,0.6-0.1,1.3,0,1.9L0,13.8c0.2,0.8,0.5,1.6,0.9,2.3L4.2,16c0.4,0.5,0.8,1,1.3,1.4
					l-0.2,3.3C5.6,20.8,6,21,6.4,21.2c0.4,0.2,0.8,0.3,1.2,0.4l2.2-2.4c0.6,0.1,1.3,0.1,1.9,0l2.1,2.5c0.8-0.2,1.6-0.5,2.3-0.9
					L16,17.5C16.5,17.1,17,16.7,17.4,16.2z M8.6,16c-2.9-1.2-4.2-4.5-2.9-7.4c1.2-2.9,4.5-4.2,7.4-2.9c2.9,1.2,4.2,4.5,2.9,7.4
					C14.8,15.9,11.5,17.2,8.6,16z"/>
				<circle fill="#4C545F" cx="10.8" cy="10.8" r="2.8"/>
				<path fill="#4C545F" d="M30,24.2l0-0.7l0-0.7l-1.8-0.6l-0.8-0.3l0.4-0.7l0.8-1.7c-0.3-0.4-0.6-0.7-1-1l-1.7,0.8l-0.7,0.4
					l-0.3-0.8l-0.6-1.8l-0.7,0l-0.7,0l-0.6,1.8l-0.3,0.8l-0.7-0.4l-1.7-0.8c-0.4,0.3-0.7,0.6-1,1l0.8,1.7l0.4,0.7l-0.8,0.3l-1.8,0.6
					l0,0.7l0,0.7l1.8,0.6l0.8,0.3l-0.4,0.7l-0.8,1.7c0.3,0.4,0.6,0.7,1,1l1.7-0.8l0.7-0.4l0.3,0.8l0.6,1.8l0.7,0l0.7,0l0.6-1.8
					l0.3-0.8l0.7,0.4l1.7,0.8c0.4-0.3,0.7-0.6,1-1l-0.8-1.7l-0.4-0.7l0.8-0.3L30,24.2z M23.4,24.8c-0.8,0-1.4-0.6-1.4-1.4
					s0.6-1.4,1.4-1.4s1.4,0.6,1.4,1.4S24.2,24.8,23.4,24.8z"/>
			</g>
		</g>
	</g>
</g>
</svg>
