<?xml version="1.0" encoding="utf-8"?>
<!-- Generator: Adobe Illustrator 18.0.0, SVG Export Plug-In . SVG Version: 6.00 Build 0)  -->
<!DOCTYPE svg PUBLIC "-//W3C//DTD SVG 1.0//EN" "http://www.w3.org/TR/2001/REC-SVG-20010904/DTD/svg10.dtd">
<svg version="1.0" id="Layer_1" xmlns="http://www.w3.org/2000/svg" xmlns:xlink="http://www.w3.org/1999/xlink" x="0px" y="0px"
	 width="30px" height="30px" viewBox="0 0 30 30" enable-background="new 0 0 30 30" xml:space="preserve">
<g>
	<path fill="#FFD45E" d="M23.8,10l-2.9-3.3c-0.4,3.7-1.5,6.5-1.5,6.5c0-4.9-1.8-9.2-4-12.8L15,0l-2.9,3.3c-3.7,4.2-5.3,9.9-4,15.4
		c0,0,0,0.1,0,0.1c0,0-2.2-3.1-3.2-7c-2.8,4.4-2.4,10.2,1.1,14.2c4.7,5.4,13.1,5.4,17.8,0.1C28,21.5,27.8,14.6,23.8,10z"/>
	<path fill="#FC7A5B" d="M21.8,15.7l-2.1-2.4c-0.3,2.6-1,4.6-1,4.6c0-3.5-1.2-6.5-2.8-9l-0.3-0.3l-2,2.3c-2.6,3-3.7,7-2.9,10.9
		c0,0,0,0.1,0,0.1c0,0-1.6-2.2-2.3-5c-2,3.1-1.7,7.2,0.8,10.1c3.3,3.8,9.3,3.8,12.6,0.1C24.8,23.9,24.6,19,21.8,15.7z"/>
</g>
</svg>
