<?xml version="1.0" encoding="utf-8"?>
<!-- Generator: Adobe Illustrator 18.0.0, SVG Export Plug-In . SVG Version: 6.00 Build 0)  -->
<!DOCTYPE svg PUBLIC "-//W3C//DTD SVG 1.0//EN" "http://www.w3.org/TR/2001/REC-SVG-20010904/DTD/svg10.dtd">
<svg version="1.0" id="Layer_1" xmlns="http://www.w3.org/2000/svg" xmlns:xlink="http://www.w3.org/1999/xlink" x="0px" y="0px"
	 width="30px" height="30px" viewBox="0 0 30 30" enable-background="new 0 0 30 30" xml:space="preserve">
<g>
	<path fill="#FFD45E" d="M10.5,15.5C4.7,15.5,0,13.6,0,11.3v7.4c0,2.3,4.7,4.2,10.5,4.2s10.5-1.9,10.5-4.2v-7.4
		C21.1,13.6,16.3,15.5,10.5,15.5"/>
	<g>
		<path fill="#CDA44B" d="M29.8,15h-3.4c-2.9,0-5.3-1.4-5.3-3.2v6.8c0,1.7,2.4,3.2,5.3,3.2h3.4c0.1,0,0.2-0.1,0.2-0.2v-6.3
			C30,15.1,29.9,15,29.8,15"/>
		<path fill="#CDA44B" d="M2.6,17.1c-0.3,0-0.5-0.2-0.5-0.5v-2.6c0-0.3,0.2-0.5,0.5-0.5s0.5,0.2,0.5,0.5v2.6
			C3.2,16.9,2.9,17.1,2.6,17.1"/>
		<path fill="#CDA44B" d="M5.3,17.1c-0.3,0-0.5-0.2-0.5-0.5V15c0-0.3,0.2-0.5,0.5-0.5c0.3,0,0.5,0.2,0.5,0.5v1.6
			C5.8,16.9,5.6,17.1,5.3,17.1"/>
		<path fill="#CDA44B" d="M7.9,18.2c-0.3,0-0.5-0.2-0.5-0.5v-2.1c0-0.3,0.2-0.5,0.5-0.5c0.3,0,0.5,0.2,0.5,0.5v2.1
			C8.4,17.9,8.2,18.2,7.9,18.2"/>
		<path fill="#CDA44B" d="M10.5,17.6c-0.3,0-0.5-0.2-0.5-0.5v-1.6c0-0.3,0.2-0.5,0.5-0.5s0.5,0.2,0.5,0.5v1.6
			C11.1,17.4,10.8,17.6,10.5,17.6"/>
		<path fill="#CDA44B" d="M13.2,18.2c-0.3,0-0.5-0.2-0.5-0.5v-2.1c0-0.3,0.2-0.5,0.5-0.5s0.5,0.2,0.5,0.5v2.1
			C13.7,17.9,13.4,18.2,13.2,18.2"/>
		<path fill="#CDA44B" d="M15.8,17.1c-0.3,0-0.5-0.2-0.5-0.5V15c0-0.3,0.2-0.5,0.5-0.5s0.5,0.2,0.5,0.5v1.6
			C16.3,16.9,16.1,17.1,15.8,17.1"/>
		<path fill="#CDA44B" d="M18.4,17.1c-0.3,0-0.5-0.2-0.5-0.5v-2.6c0-0.3,0.2-0.5,0.5-0.5c0.3,0,0.5,0.2,0.5,0.5v2.6
			C18.9,16.9,18.7,17.1,18.4,17.1"/>
	</g>
	<path fill="#FFD45E" d="M29.6,21.8h-2.3V15h2.3c0.2,0,0.4,0.2,0.4,0.4v6.1C30,21.7,29.8,21.8,29.6,21.8"/>
	<path fill="#CDA44B" d="M21.1,11.3c0,2.3-4.7,4.2-10.5,4.2S0,13.6,0,11.3s4.7-4.2,10.5-4.2S21.1,9,21.1,11.3"/>
	<g>
		<path fill="#FFD45E" d="M14.2,11.3c0,0.9-1.6,1.6-3.7,1.6s-3.7-0.7-3.7-1.6s1.6-1.6,3.7-1.6S14.2,10.4,14.2,11.3"/>
		<path fill="#FFD45E" d="M22.6,14.1v2.5c0,0.3,0.2,0.5,0.5,0.5c0.3,0,0.5-0.2,0.5-0.5v-2C23.3,14.4,22.9,14.3,22.6,14.1"/>
		<path fill="#FFD45E" d="M24.7,14.9v1.7c0,0.3,0.2,0.5,0.5,0.5c0.3,0,0.5-0.2,0.5-0.5V15C25.4,15,25.1,14.9,24.7,14.9"/>
		<path fill="#FFD45E" d="M24.2,18.7c-0.3,0-0.5,0.2-0.5,0.5v2.2c0.3,0.1,0.7,0.2,1.1,0.3v-2.5C24.7,18.9,24.5,18.7,24.2,18.7"/>
	</g>
	<g>
		<path fill="#CDA44B" d="M18.4,19.2c-0.3,0-0.5,0.2-0.5,0.5v2c0.4-0.2,0.7-0.3,1.1-0.5v-1.5C18.9,19.4,18.7,19.2,18.4,19.2"/>
		<path fill="#CDA44B" d="M15.8,19.7c-0.3,0-0.5,0.2-0.5,0.5v2.2c0.4-0.1,0.7-0.2,1.1-0.2v-1.9C16.3,20,16.1,19.7,15.8,19.7"/>
		<path fill="#CDA44B" d="M13.2,20.3c-0.3,0-0.5,0.2-0.5,0.5v2c0.4,0,0.7-0.1,1.1-0.1v-1.9C13.7,20.5,13.4,20.3,13.2,20.3"/>
		<path fill="#CDA44B" d="M10.5,20.8c-0.3,0-0.5,0.2-0.5,0.5v1.6c0.2,0,0.3,0,0.5,0s0.4,0,0.5,0v-1.6C11.1,21,10.8,20.8,10.5,20.8"
			/>
		<path fill="#CDA44B" d="M7.9,20.3c-0.3,0-0.5,0.2-0.5,0.5v1.9c0.3,0,0.7,0.1,1.1,0.1v-2C8.4,20.5,8.2,20.3,7.9,20.3"/>
		<path fill="#CDA44B" d="M5.3,19.7c-0.3,0-0.5,0.2-0.5,0.5v1.9c0.3,0.1,0.7,0.2,1.1,0.2v-2.2C5.8,20,5.6,19.7,5.3,19.7"/>
		<path fill="#CDA44B" d="M2.6,19.2c-0.3,0-0.5,0.2-0.5,0.5v1.5c0.3,0.2,0.7,0.3,1.1,0.5v-2C3.2,19.4,2.9,19.2,2.6,19.2"/>
	</g>
</g>
</svg>
