<?xml version="1.0" encoding="utf-8"?>
<!-- Generator: Adobe Illustrator 18.0.0, SVG Export Plug-In . SVG Version: 6.00 Build 0)  -->
<!DOCTYPE svg PUBLIC "-//W3C//DTD SVG 1.0//EN" "http://www.w3.org/TR/2001/REC-SVG-20010904/DTD/svg10.dtd">
<svg version="1.0" id="Layer_1" xmlns="http://www.w3.org/2000/svg" xmlns:xlink="http://www.w3.org/1999/xlink" x="0px" y="0px"
	 width="29px" height="30px" viewBox="0 0 29 30" enable-background="new 0 0 29 30" xml:space="preserve">
<g>
	<g>
		<g>
			<path fill="#FFB980" d="M7.2,17.8c-1,0-2-0.4-2.7-1.2c0,0.4,0,1.1-0.1,1.5c0.1,0,0.1,0.1,0.1,0.2c0.1,1.2,1.3,2.1,2.7,2.1
				c1.4,0,2.5-0.9,2.7-2.1c0-0.1,0.1-0.2,0.1-0.2c-0.1-0.5-0.1-1.1-0.1-1.5C9.2,17.4,8.2,17.8,7.2,17.8z"/>
		</g>
		<g>
			<path fill="#F8AB6B" d="M9.8,16.7c-0.7,0.7-1.6,1.1-2.6,1.1c-1,0-2-0.4-2.7-1.2c0,0.4,0,1.1-0.1,1.5c0.1,0,0.1,0.1,0.1,0.2
				c0.1,0.5,0.3,1,0.7,1.4C7,19.5,9.1,17.8,9.8,16.7z"/>
		</g>
		<g>
			<path fill="#61B16E" d="M12.6,18.5C12.6,18.5,12.6,18.5,12.6,18.5l-2.4-0.4c0,0,0,0-0.1,0c-0.2,0-0.3,0.1-0.3,0.3
				c-0.1,1.2-1.3,2.1-2.7,2.1c-1.4,0-2.5-0.9-2.7-2.1c0-0.2-0.2-0.3-0.3-0.3c0,0,0,0-0.1,0l-2.4,0.4c0,0,0,0,0,0
				C0.6,18.8,0,19.9,0,20.9V22c0,0.5,0.4,0.9,1,0.9h12.4c0.5,0,1-0.4,1-0.9v-1.2C14.4,19.9,13.8,18.8,12.6,18.5z"/>
		</g>
		<g>
			<path fill="#FDC88E" d="M9.9,10.4H4.8c-0.8,0-1.5,0.7-1.5,1.5v1.8c0,2.3,1.7,4.2,3.9,4.2s3.9-1.9,3.9-4.2v-2.1
				C11.1,10.9,10.5,10.4,9.9,10.4z"/>
		</g>
		<g>
			<path fill="#4C545F" d="M9.3,7.1H5.4c-0.6,0-1,0.4-1.2,0.9c-1,0.1-1.8,1-1.8,2.1v1.5c0,0.8,0.3,1.5,0.9,2v-1.7
				c0-0.8,0.7-1.5,1.5-1.5h5.1c0.7,0,1.2,0.5,1.2,1.2v2c0.6-0.5,0.9-1.2,0.9-2V9.8C12,8.3,10.8,7.1,9.3,7.1z"/>
		</g>
	</g>
	<g>
		<g>
			<path fill="#FFB980" d="M21.8,17.8c-1,0-2-0.4-2.7-1.2c0,0.4,0,1.1-0.1,1.5c0.1,0,0.1,0.1,0.1,0.2c0.1,1.2,1.3,2.1,2.7,2.1
				c1.4,0,2.5-0.9,2.7-2.1c0-0.1,0.1-0.2,0.1-0.2c-0.1-0.5-0.1-1.1-0.1-1.5C23.8,17.4,22.9,17.8,21.8,17.8z"/>
		</g>
		<g>
			<path fill="#F8AB6B" d="M24.5,16.7c-0.7,0.7-1.6,1.1-2.6,1.1c-1,0-2-0.4-2.7-1.2c0,0.4,0,1.1-0.1,1.5c0.1,0,0.1,0.1,0.1,0.2
				c0.1,0.5,0.3,1,0.7,1.4C21.7,19.5,23.7,17.8,24.5,16.7z"/>
		</g>
		<g>
			<path fill="#5162B2" d="M27.3,18.5C27.3,18.5,27.3,18.5,27.3,18.5l-2.4-0.4c0,0,0,0-0.1,0c-0.2,0-0.3,0.1-0.3,0.3
				c-0.1,1.2-1.3,2.1-2.7,2.1c-1.4,0-2.5-0.9-2.7-2.1c0-0.2-0.2-0.3-0.3-0.3c0,0,0,0-0.1,0l-2.4,0.4c0,0,0,0,0,0
				c-1.1,0.3-1.7,1.4-1.7,2.4V22c0,0.5,0.4,0.9,1,0.9H28c0.5,0,1-0.4,1-0.9v-1.2C29,19.9,28.4,18.8,27.3,18.5z"/>
		</g>
		<g>
			<path fill="#FDC88E" d="M24.5,10.4h-5.1c-0.8,0-1.5,0.7-1.5,1.5v1.8c0,2.3,1.7,4.2,3.9,4.2s3.9-1.9,3.9-4.2v-2.1
				C25.7,10.9,25.2,10.4,24.5,10.4z"/>
		</g>
		<g>
			<path fill="#4C545F" d="M23.9,7.1H20c-0.6,0-1,0.4-1.2,0.9c-1,0.1-1.8,1-1.8,2.1v1.5c0,0.8,0.3,1.5,0.9,2v-1.7
				c0-0.8,0.7-1.5,1.5-1.5h5.1c0.7,0,1.2,0.5,1.2,1.2v2c0.6-0.5,0.9-1.2,0.9-2V9.8C26.6,8.3,25.4,7.1,23.9,7.1z"/>
		</g>
	</g>
	<g>
		<g>
			<path fill="#FDC88E" d="M14.5,19.3c-1.6,0-3-0.7-4.1-1.8c0,0.7,0,1.6-0.2,2.3c0.1,0.1,0.2,0.2,0.2,0.3c0.2,1.8,2,3.2,4.1,3.2
				c2.1,0,3.8-1.4,4.1-3.2c0-0.1,0.1-0.3,0.2-0.3c-0.2-0.7-0.2-1.6-0.2-2.3C17.5,18.6,16.1,19.3,14.5,19.3z"/>
		</g>
		<g>
			<path fill="#FFB980" d="M18.5,17.6c-1.1,1-2.4,1.7-4,1.7c-1.6,0-3-0.7-4.1-1.8c0,0.7,0,1.6-0.2,2.3c0.1,0.1,0.2,0.2,0.2,0.3
				c0.1,0.8,0.5,1.5,1.1,2.1C14.3,21.9,17.4,19.2,18.5,17.6z"/>
		</g>
		<g>
			<path fill="#EF6070" d="M22.8,20.3C22.8,20.3,22.7,20.3,22.8,20.3l-3.7-0.6c0,0-0.1,0-0.1,0c-0.2,0-0.4,0.2-0.4,0.4
				c-0.2,1.8-2,3.2-4.1,3.2c-2.1,0-3.8-1.4-4.1-3.2c0-0.2-0.2-0.4-0.5-0.4c0,0-0.1,0-0.1,0l-3.6,0.5c0,0,0,0-0.1,0
				c-1.7,0.5-2.6,2.2-2.6,3.6v1.8c0,0.7,0.7,1.4,1.5,1.4h18.8c0.8,0,1.5-0.6,1.5-1.4v-1.8C25.4,22.5,24.5,20.8,22.8,20.3z"/>
		</g>
		<g>
			<path fill="#FFE1B2" d="M18.6,8h-7.7c-1.2,0-2.3,1-2.3,2.3V13c0,3.5,2.6,6.3,5.9,6.3s5.9-2.8,5.9-6.3V9.8C20.4,8.8,19.6,8,18.6,8
				z"/>
		</g>
		<g>
			<path fill="#4C545F" d="M17.7,3h-5.9c-0.9,0-1.6,0.6-1.8,1.4C8.5,4.6,7.2,5.9,7.2,7.5v2.3c0,1.2,0.5,2.3,1.4,3v-2.6
				C8.6,9,9.6,8,10.9,8h7.7c1,0,1.8,0.8,1.8,1.8v3c0.9-0.8,1.4-1.9,1.4-3V7.1C21.7,4.8,19.9,3,17.7,3z"/>
		</g>
	</g>
</g>
</svg>
