<?xml version="1.0" encoding="utf-8"?>
<!-- Generator: Adobe Illustrator 18.0.0, SVG Export Plug-In . SVG Version: 6.00 Build 0)  -->
<!DOCTYPE svg PUBLIC "-//W3C//DTD SVG 1.0//EN" "http://www.w3.org/TR/2001/REC-SVG-20010904/DTD/svg10.dtd">
<svg version="1.0" id="Layer_1" xmlns="http://www.w3.org/2000/svg" xmlns:xlink="http://www.w3.org/1999/xlink" x="0px" y="0px"
	 width="30px" height="30px" viewBox="0 0 30 30" enable-background="new 0 0 30 30" xml:space="preserve">
<g id="XMLID_242_">
	<rect id="XMLID_243_" x="8.7" y="22.9" fill="#818085" width="12.6" height="3.2"/>
	<polygon id="XMLID_244_" fill="#4C545F" points="8.7,26.1 6.3,26.1 6.3,28.4 23.7,28.4 23.7,26.1 21.3,26.1 	"/>
	<polygon id="XMLID_245_" fill="#4C545F" points="2.4,20.5 2.4,18.2 2.4,6.3 2.4,3.9 15,3.9 15,1.6 0,1.6 0,22.9 15,22.9 15,20.5 	
		"/>
	<polygon id="XMLID_307_" fill="#4C545F" points="15,1.6 15,3.9 27.6,3.9 27.6,6.3 27.6,18.2 27.6,20.5 15,20.5 15,22.9 30,22.9 
		30,1.6 	"/>
	<polygon id="XMLID_308_" fill="#FFFFFF" points="2.4,6.3 27.6,6.3 27.6,3.9 15,3.9 2.4,3.9 	"/>
	<polygon id="XMLID_309_" fill="#FFFFFF" points="20.9,18.2 18.6,18.2 16.2,18.2 13.8,18.2 11.4,18.2 9.1,18.2 6.7,18.2 2.4,18.2 
		2.4,20.5 15,20.5 27.6,20.5 27.6,18.2 23.3,18.2 	"/>
	<polygon id="XMLID_311_" fill="#61B16E" points="2.4,6.3 2.4,18.2 6.7,18.2 6.7,15.8 6.7,13.4 9.1,13.4 9.1,15.8 9.1,18.2 
		11.4,18.2 11.4,15.8 11.4,11.8 13.8,11.8 13.8,15.8 13.8,18.2 16.2,18.2 16.2,15.8 16.2,10.3 18.6,10.3 18.6,15.8 18.6,18.2 
		20.9,18.2 20.9,15.8 20.9,8.7 23.3,8.7 23.3,15.8 23.3,18.2 27.6,18.2 27.6,6.3 	"/>
	<rect id="XMLID_312_" x="6.7" y="15.8" fill="#5494E0" width="2.4" height="2.4"/>
	<rect id="XMLID_333_" x="6.7" y="13.4" fill="#FFFFFF" width="2.4" height="2.4"/>
	<rect id="XMLID_334_" x="11.4" y="15.8" fill="#5494E0" width="2.4" height="2.4"/>
	<rect id="XMLID_337_" x="11.4" y="11.8" fill="#FFFFFF" width="2.4" height="3.9"/>
	<rect id="XMLID_338_" x="16.2" y="15.8" fill="#5494E0" width="2.4" height="2.4"/>
	<rect id="XMLID_340_" x="16.2" y="10.3" fill="#FFFFFF" width="2.4" height="5.5"/>
	<rect id="XMLID_341_" x="20.9" y="15.8" fill="#5494E0" width="2.4" height="2.4"/>
	<rect id="XMLID_348_" x="20.9" y="8.7" fill="#FFFFFF" width="2.4" height="7.1"/>
</g>
</svg>
