<?xml version="1.0" encoding="utf-8"?>
<!-- Generator: Adobe Illustrator 18.0.0, SVG Export Plug-In . SVG Version: 6.00 Build 0)  -->
<!DOCTYPE svg PUBLIC "-//W3C//DTD SVG 1.0//EN" "http://www.w3.org/TR/2001/REC-SVG-20010904/DTD/svg10.dtd">
<svg version="1.0" id="Layer_1" xmlns="http://www.w3.org/2000/svg" xmlns:xlink="http://www.w3.org/1999/xlink" x="0px" y="0px"
	 width="27.9px" height="23.7px" viewBox="0 0 27.9 23.7" enable-background="new 0 0 27.9 23.7" xml:space="preserve">
<g>
	<path fill="#30434B" d="M12.7,12.6h2.5v2.8h12.7c0,0-0.2-6.2-0.3-8.2c-0.1-1.9-0.7-3-2.8-3h-4.5c-0.7-1.3-1.4-2.7-1.7-3.1
		c-0.5-0.9-0.6-1-1.6-1h-6.2c-1,0-1.2,0.2-1.6,1C9,1.5,8.2,2.9,7.6,4.2H3.1c-2.1,0-2.7,1.1-2.8,3S0,15.4,0,15.4h12.7V12.6z
		 M10.7,2.7C11,2.1,11.1,2,11.8,2h4.3c0.7,0,0.8,0.1,1.1,0.7c0.1,0.2,0.4,0.8,0.8,1.5H9.9C10.2,3.5,10.6,2.9,10.7,2.7z M15.2,19.5
		h-2.5v-2.8h-12c0,0,0.2,2.5,0.3,4.6c0,0.9,0.3,2.3,2.5,2.3h20.9c2.2,0,2.5-1.5,2.5-2.3c0.1-2.2,0.3-4.6,0.3-4.6h-12L15.2,19.5z"/>
</g>
</svg>
