<?xml version="1.0" encoding="utf-8"?>
<!-- Generator: Adobe Illustrator 18.0.0, SVG Export Plug-In . SVG Version: 6.00 Build 0)  -->
<!DOCTYPE svg PUBLIC "-//W3C//DTD SVG 1.0//EN" "http://www.w3.org/TR/2001/REC-SVG-20010904/DTD/svg10.dtd">
<svg version="1.0" id="Layer_1" xmlns="http://www.w3.org/2000/svg" xmlns:xlink="http://www.w3.org/1999/xlink" x="0px" y="0px"
	 width="30px" height="30px" viewBox="0 0 30 30" enable-background="new 0 0 30 30" xml:space="preserve">
<g>
	<path fill="#D3D6D8" d="M3.1,30L3.1,30c-1.4,0-2.6-1.2-2.6-2.6V15.5h5.2v11.9C5.7,28.8,4.5,30,3.1,30z"/>
	<rect x="5.7" y="0" fill="#D3D6D8" width="23.8" height="5.7"/>
	<path fill="#F6F8FB" d="M5.7,18.1v3.6v5.7c0,1.4-1.2,2.6-2.6,2.6h2.6h3.1h18.1c1.4,0,2.6-1.2,2.6-2.6V6.7H5.7L5.7,18.1L5.7,18.1z"
		/>
	<rect x="5.7" y="5.7" fill="#F4F3ED" width="23.8" height="1"/>
	<rect x="8.8" y="8.3" fill="#61B872" width="6.2" height="6.2"/>
	<path fill="#CEC9AE" d="M26.4,8.8h-8.3c-0.3,0-0.5-0.2-0.5-0.5c0-0.3,0.2-0.5,0.5-0.5h8.3c0.3,0,0.5,0.2,0.5,0.5
		C26.9,8.6,26.7,8.8,26.4,8.8z"/>
	<path fill="#CEC9AE" d="M26.4,11.9h-8.3c-0.3,0-0.5-0.2-0.5-0.5s0.2-0.5,0.5-0.5h8.3c0.3,0,0.5,0.2,0.5,0.5S26.7,11.9,26.4,11.9z"
		/>
	<path fill="#CEC9AE" d="M26.4,15h-8.3c-0.3,0-0.5-0.2-0.5-0.5c0-0.3,0.2-0.5,0.5-0.5h8.3c0.3,0,0.5,0.2,0.5,0.5
		C26.9,14.8,26.7,15,26.4,15z"/>
	<path fill="#CEC9AE" d="M26.4,18.1H9.3c-0.3,0-0.5-0.2-0.5-0.5s0.2-0.5,0.5-0.5h17.1c0.3,0,0.5,0.2,0.5,0.5S26.7,18.1,26.4,18.1z"
		/>
	<path fill="#CEC9AE" d="M17.1,21.2H9.3c-0.3,0-0.5-0.2-0.5-0.5c0-0.3,0.2-0.5,0.5-0.5h7.8c0.3,0,0.5,0.2,0.5,0.5
		C17.6,21,17.4,21.2,17.1,21.2z"/>
	<path fill="#CEC9AE" d="M17.1,24.3H9.3c-0.3,0-0.5-0.2-0.5-0.5s0.2-0.5,0.5-0.5h7.8c0.3,0,0.5,0.2,0.5,0.5S17.4,24.3,17.1,24.3z"/>
	<path fill="#CEC9AE" d="M17.1,27.4H9.3c-0.3,0-0.5-0.2-0.5-0.5s0.2-0.5,0.5-0.5h7.8c0.3,0,0.5,0.2,0.5,0.5S17.4,27.4,17.1,27.4z"/>
	<rect x="20.2" y="20.7" fill="#F7B563" width="6.2" height="6.2"/>
	<rect x="11.9" y="2.1" fill="#8E8872" width="11.4" height="2.1"/>
</g>
</svg>
