<?xml version="1.0" encoding="utf-8"?>
<!-- Generator: Adobe Illustrator 18.0.0, SVG Export Plug-In . SVG Version: 6.00 Build 0)  -->
<!DOCTYPE svg PUBLIC "-//W3C//DTD SVG 1.0//EN" "http://www.w3.org/TR/2001/REC-SVG-20010904/DTD/svg10.dtd">
<svg version="1.0" id="Layer_1" xmlns="http://www.w3.org/2000/svg" xmlns:xlink="http://www.w3.org/1999/xlink" x="0px" y="0px"
	 width="30px" height="30px" viewBox="0 0 30 30" enable-background="new 0 0 30 30" xml:space="preserve">
<g>
	<path fill="#4C545F" d="M5.9,26c-0.7,0.7-1.7,0.7-2.4,0l0,0c-0.7-0.7-0.7-1.7,0-2.4l12-12c0.7-0.7,1.7-0.7,2.4,0l0,0
		c0.7,0.7,0.7,1.7,0,2.4L5.9,26z"/>
	<path fill="#4C545F" d="M18,11.6L18,11.6c0.7,0.7,0.7,1.7,0,2.4l-12,12c-0.7,0.7-1.7,0.7-2.4,0l0,0"/>
	<path fill="#FFD45E" d="M5.6,29c-0.8,0.8-2,0.8-2.7,0l-2.3-2.3c-0.8-0.8-0.8-2,0-2.7l0,0c0.8-0.8,2-0.8,2.7,0l2.3,2.3
		C6.4,27,6.4,28.2,5.6,29L5.6,29z"/>
	<path fill="#FFD45E" d="M3.3,24l2.3,2.3c0.8,0.8,0.8,2,0,2.7l0,0c-0.8,0.8-2,0.8-2.7,0"/>
	<path fill="#FFD45E" d="M25.7,16.1c-2,2-4.2,0.9-6.2-1.1l-5-5c-2-2-3.1-4.2-1.1-6.2l0.9-0.9c2-2,4.2-0.9,6.2,1.1l5,5
		c2,2,3.1,4.2,1.1,6.2L25.7,16.1z"/>
	<g>
		<path fill="#FFD45E" d="M20.5,4.1l5,5c2,2,3.1,4.2,1.1,6.2l-0.9,0.9c-2,2-4.2,0.9-6.2-1.1"/>
	</g>
	<path fill="#FFD45E" d="M12.4,7.3c-0.4,0.4-1,0.4-1.4,0l0,0c-0.4-0.4-0.4-1,0-1.4l5.4-5.4c0.4-0.4,1-0.4,1.4,0l0,0
		c0.4,0.4,0.4,1,0,1.4L12.4,7.3z"/>
	<g>
		<path fill="#FFD45E" d="M29.1,11.8L29.1,11.8c0.4,0.4,0.4,1,0,1.4l-5.4,5.4c-0.4,0.4-1,0.4-1.4,0l0,0"/>
		<path fill="#4C545F" d="M18.6,15.3c-0.3,0.3-0.9,0.3-1.3,0l-3-3c-0.3-0.3-0.3-0.9,0-1.3l0,0c0.3-0.3,0.9-0.3,1.3,0l3,3
			C19,14.3,19,14.9,18.6,15.3L18.6,15.3z"/>
	</g>
	<rect x="19.4" y="24.5" fill="#4C545F" width="10.1" height="4.3"/>
	<g>
		<path fill="#FFD45E" d="M30,29.4c0,0.2-0.1,0.4-0.4,0.4H19.3c-0.2,0-0.4-0.1-0.4-0.4v-0.2c0-0.2,0.1-0.4,0.4-0.4h10.4
			c0.2,0,0.4,0.1,0.4,0.4L30,29.4L30,29.4z"/>
		<path fill="#FFD45E" d="M30,24.1c0,0.2-0.1,0.4-0.4,0.4H19.3c-0.2,0-0.4-0.1-0.4-0.4v-0.2c0-0.2,0.1-0.4,0.4-0.4h10.4
			c0.2,0,0.4,0.1,0.4,0.4L30,24.1L30,24.1z"/>
	</g>
</g>
</svg>
