<?xml version="1.0" encoding="utf-8"?>
<!-- Generator: Adobe Illustrator 18.0.0, SVG Export Plug-In . SVG Version: 6.00 Build 0)  -->
<!DOCTYPE svg PUBLIC "-//W3C//DTD SVG 1.0//EN" "http://www.w3.org/TR/2001/REC-SVG-20010904/DTD/svg10.dtd">
<svg version="1.0" id="Layer_1" xmlns="http://www.w3.org/2000/svg" xmlns:xlink="http://www.w3.org/1999/xlink" x="0px" y="0px"
	 width="345.4px" height="164.4px" viewBox="0 0 345.4 164.4" enable-background="new 0 0 345.4 164.4" xml:space="preserve">
<g>
	<g>
		<g>
			<g>
				<path fill="#FFFFFF" d="M228.5,23.5l-1.1,0.1C217.3,23.5,211.1,17,210.5,8h-0.2l0.1-0.8c0-0.1,0.1-0.2,0.1-0.3
					c0-0.1,0.1-0.4,0.1-0.6V5h18V23.5z M213.2,8c0.5,7,5.3,12.1,13.3,12.8V8H213.2z"/>
			</g>
			<g>
				<path fill="#FFFFFF" d="M113.8,24h-1h0h-1.2V5h20.4l0,1.7C131.7,17,124.6,24,113.8,24z M114.5,8v12.7c7-0.1,13.9-3.7,14.7-12.7
					H114.5z"/>
			</g>
			<g>
				<path fill="#FFFFFF" d="M127.5,68.3V68h-16V50.1l1.4,0C123,50.2,129.4,56,130.1,65h0.2l0,0.7c0,0.1,0.1,0.2,0.2,0.3
					c0,0.1,0.1,0.3,0.1,0.5V68h-0.4l0,0.2l-1.2,0.1L127.5,68.3z M114.5,65h12.9c-0.7-7-5.9-11.6-12.9-12.2V65z"/>
			</g>
			<g>
				<path fill="#FFFFFF" d="M228.5,68h-19.8l0-1.5C208.9,55.8,218,50,226.8,50h0.7h0.6h0.4V68z M211.5,65h15.1V53.3
					c0-0.1-0.5-0.3-0.6-0.5C219.1,53.1,212.3,57,211.5,65z"/>
			</g>
			<path fill="#FFFFFF" d="M228.8,68.6H111.8V5.1h116.9V68.6z M114.5,66h111.6V7.8H114.5V66z"/>
			<g>
				<circle fill="none" cx="170" cy="37.1" r="20.2"/>
				<path fill="#FFFFFF" d="M167.4,57.3c0-1.5,1.2-2.7,2.7-2.7l0,0c1.5,0,2.7,1.2,2.7,2.7l0,0c0,1.5-1.2,2.7-2.7,2.7l0,0
					C168.6,60,167.4,58.8,167.4,57.3z M161.3,58.2c-1.4-0.6-2-2.1-1.4-3.5l0,0c0.6-1.4,2.1-2,3.5-1.5l0,0c1.4,0.6,2,2.1,1.5,3.5l0,0
					c-0.4,1-1.4,1.6-2.5,1.6l0,0C161.9,58.4,161.6,58.4,161.3,58.2z M175.3,56.8c-0.6-1.4,0.1-2.9,1.4-3.5l0,0
					c1.4-0.6,2.9,0.1,3.5,1.4l0,0c0.6,1.4-0.1,2.9-1.4,3.5l0,0c-0.3,0.1-0.7,0.2-1,0.2l0,0C176.7,58.4,175.7,57.8,175.3,56.8z
					 M153.8,53.3c-1-1-1-2.7,0-3.8l0,0c1-1,2.7-1,3.8,0l0,0c1.1,1,1.1,2.7,0,3.8l0,0c-0.5,0.5-1.2,0.8-1.9,0.8l0,0
					C155,54.1,154.4,53.8,153.8,53.3z M182.4,53.3c-1-1-1-2.7,0-3.8l0,0c1-1,2.7-1,3.8,0l0,0c1,1,1,2.7,0,3.8l0,0
					c-0.5,0.5-1.2,0.8-1.9,0.8l0,0C183.6,54,183,53.8,182.4,53.3z M148.9,45.9c-0.6-1.4,0.1-2.9,1.4-3.5l0,0
					c1.4-0.6,2.9,0.1,3.5,1.4l0,0c0.6,1.4-0.1,2.9-1.4,3.5l0,0c-0.3,0.1-0.7,0.2-1,0.2l0,0C150.3,47.5,149.3,46.9,148.9,45.9z
					 M187.7,47.3c-1.4-0.6-2-2.1-1.4-3.5l0,0c0.6-1.4,2.1-2,3.5-1.4l0,0c1.4,0.6,2,2.1,1.5,3.5l0,0c-0.4,1-1.4,1.6-2.5,1.6l0,0
					C188.4,47.5,188,47.4,187.7,47.3z M147.1,37.1c0-1.5,1.2-2.7,2.7-2.7l0,0c1.5,0,2.7,1.2,2.7,2.7l0,0c0,1.5-1.2,2.7-2.7,2.7l0,0
					C148.3,39.8,147.1,38.6,147.1,37.1z M187.5,37.1c0,0,0-0.1,0-0.1l0,0c0-1.5,1-2.7,2.5-2.7l0,0c1.5,0,2.5,1.2,2.5,2.7l0,0
					c0,0,0,0,0,0.1l0,0c0,0,0,0,0,0l0,0l0,0l0,0c0,1.5-1,2.7-2.5,2.7l0,0C188.5,39.7,187.5,38.6,187.5,37.1z M150.3,31.8
					c-1.4-0.6-2-2.1-1.4-3.5l0,0c0.5-1.4,2.1-2,3.5-1.5l0,0c1.4,0.6,2,2.1,1.4,3.5l0,0c-0.4,1-1.4,1.7-2.5,1.7l0,0
					C151,32,150.6,32,150.3,31.8z M186.2,30.3c-0.6-1.4,0.1-2.9,1.4-3.5l0,0c1.4-0.6,2.9,0.1,3.5,1.4l0,0c0.6,1.4-0.1,2.9-1.4,3.5
					l0,0c-0.3,0.1-0.7,0.2-1,0.2l0,0C187.6,31.9,186.6,31.3,186.2,30.3z M153.8,24.7c-1.1-1-1.1-2.7,0-3.8l0,0c1-1,2.7-1.1,3.8,0
					l0,0c1,1,1.1,2.7,0,3.8l0,0c-0.5,0.5-1.2,0.8-1.9,0.8l0,0C155,25.5,154.3,25.2,153.8,24.7z M182.4,24.6c-1-1-1-2.7,0-3.8l0,0
					c1-1,2.7-1,3.8,0l0,0c1,1,1.1,2.7,0,3.8l0,0c-0.5,0.5-1.2,0.8-1.9,0.8l0,0C183.6,25.4,182.9,25.1,182.4,24.6z M159.7,19.4
					c-0.6-1.4,0.1-2.9,1.4-3.5l0,0l0,0l0,0c1.4-0.6,2.9,0.1,3.5,1.4l0,0c0.6,1.4-0.1,2.9-1.4,3.5l0,0c-0.3,0.1-0.7,0.2-1,0.2l0,0
					C161.2,21.1,160.2,20.5,159.7,19.4z M176.7,20.8c-1.4-0.5-2-2.1-1.5-3.5l0,0c0.6-1.4,2.1-2,3.5-1.4l0,0c1.4,0.5,2,2.1,1.5,3.5
					l0,0c-0.4,1-1.4,1.7-2.5,1.7l0,0C177.4,21,177,21,176.7,20.8z M167.3,17.1c0-1.5,1.2-2.8,2.7-2.8l0,0c1.5,0,2.7,1.4,2.7,2.8l0,0
					c0,1.5-1.2,2.9-2.7,2.9l0,0c0,0,0,0,0,0l0,0C168.5,20,167.3,18.6,167.3,17.1z"/>
			</g>
		</g>
	</g>
	<g>
		<g>
			<path fill="#FFFFFF" d="M20.9,120.6V92.5H15v-2.1h14.5v2.1h-5.9v28.1H20.9z"/>
			<path fill="#FFFFFF" d="M31,120.6V90.4h2.6v11.2c0.5-0.8,1.2-1.4,2-1.8s1.6-0.6,2.4-0.6c1.1,0,2,0.4,2.8,1.3s1.2,2.1,1.2,3.7
				v16.6h-2.7v-16.4c0-2.1-0.7-3.2-2.2-3.2c-0.6,0-1.2,0.2-1.8,0.6s-1.2,0.9-1.7,1.5v17.4H31z"/>
			<path fill="#FFFFFF" d="M45.9,110.9V108c0-1.5,0.1-2.7,0.3-3.8s0.5-1.9,0.8-2.6s0.7-1.2,1.2-1.5s1-0.6,1.6-0.8s1.2-0.2,1.9-0.2
				c1.9,0,3.2,0.7,4.1,2s1.2,3.4,1.2,6.3c0,0.9,0,1.6,0,2.2h-8.4v3.2c0,1.4,0.1,2.5,0.2,3.4s0.3,1.5,0.6,2s0.6,0.7,1,0.9
				s0.8,0.2,1.3,0.2c0.8,0,1.4-0.4,2-1.2s0.8-2.1,0.8-4H57c-0.1,0.8-0.2,1.5-0.3,2.1s-0.3,1.2-0.6,1.9s-0.6,1.1-0.9,1.5
				s-0.8,0.7-1.4,1s-1.3,0.4-2,0.4c-1.5,0-2.6-0.3-3.5-0.9s-1.4-1.6-1.8-3.1S45.9,113.6,45.9,110.9z M48.6,108.3h5.8
				c0-0.5,0-0.9,0-1.4s0-1,0-1.5s-0.1-1-0.1-1.4s-0.1-0.9-0.2-1.2s-0.3-0.7-0.4-1s-0.4-0.5-0.7-0.7s-0.7-0.2-1.1-0.2
				c-0.6,0-1.2,0.1-1.6,0.4s-0.7,0.5-1,0.8s-0.4,0.8-0.5,1.6s-0.2,1.4-0.2,2S48.6,107.1,48.6,108.3z"/>
			<path fill="#FFFFFF" d="M67.8,120.6V90.4h2.6v11.2c0.6-0.8,1.2-1.4,1.9-1.8s1.4-0.6,2.2-0.6c0.5,0,0.9,0,1.3,0.1s0.8,0.4,1.2,0.8
				s0.8,1,1.1,1.7s0.5,1.7,0.7,3s0.3,2.9,0.3,4.7v1.7c0,1.3,0,2.4-0.1,3.4s-0.2,1.9-0.4,2.6s-0.4,1.3-0.6,1.8s-0.5,0.9-0.7,1.2
				s-0.5,0.5-0.8,0.7s-0.6,0.3-0.9,0.3s-0.5,0.1-0.9,0.1c-1.8,0-3.2-0.8-4.3-2.5v2H67.8z M76.5,111.1v-1.7c0-1.3,0-2.4-0.1-3.4
				s-0.2-1.7-0.3-2.3s-0.3-1.1-0.4-1.4s-0.3-0.6-0.5-0.8s-0.4-0.3-0.6-0.3s-0.4-0.1-0.6-0.1c-1.1,0-2.3,0.7-3.5,2.1V117
				c0.5,0.6,1.1,1.1,1.7,1.5s1.2,0.6,1.7,0.6c0.2,0,0.4,0,0.6,0s0.3-0.1,0.5-0.2s0.4-0.3,0.5-0.5s0.3-0.5,0.4-0.9s0.3-0.9,0.3-1.4
				s0.1-1.3,0.2-2.1S76.5,112.2,76.5,111.1z"/>
			<path fill="#FFFFFF" d="M82.9,110.9V108c0-1.5,0.1-2.7,0.3-3.8s0.5-1.9,0.8-2.6s0.7-1.2,1.2-1.5s1-0.6,1.6-0.8s1.2-0.2,1.9-0.2
				c1.9,0,3.2,0.7,4.1,2s1.2,3.4,1.2,6.3c0,0.9,0,1.6,0,2.2h-8.4v3.2c0,1.4,0.1,2.5,0.2,3.4s0.3,1.5,0.6,2s0.6,0.7,1,0.9
				s0.8,0.2,1.3,0.2c0.8,0,1.4-0.4,2-1.2s0.8-2.1,0.8-4H94c-0.1,0.8-0.2,1.5-0.3,2.1s-0.3,1.2-0.6,1.9s-0.6,1.1-0.9,1.5
				s-0.8,0.7-1.4,1s-1.3,0.4-2,0.4c-1.5,0-2.6-0.3-3.5-0.9s-1.4-1.6-1.8-3.1S82.9,113.6,82.9,110.9z M85.6,108.3h5.8
				c0-0.5,0-0.9,0-1.4s0-1,0-1.5s-0.1-1-0.1-1.4s-0.1-0.9-0.2-1.2s-0.3-0.7-0.4-1s-0.4-0.5-0.7-0.7s-0.7-0.2-1.1-0.2
				c-0.6,0-1.2,0.1-1.6,0.4s-0.7,0.5-1,0.8s-0.4,0.8-0.5,1.6s-0.2,1.4-0.2,2S85.6,107.1,85.6,108.3z"/>
			<path fill="#FFFFFF" d="M96.6,115.4l2-0.7c0.2,0.5,0.4,1,0.6,1.5s0.5,1,0.9,1.4s0.7,0.9,1.2,1.2s0.9,0.4,1.5,0.4
				c0.9,0,1.6-0.3,2.1-0.8s0.7-1.3,0.7-2.3c0-1.3-1.2-3.1-3.6-5.2l-1.5-1.3c-1.2-1-2-1.9-2.6-2.7s-0.9-1.7-0.9-2.7
				c0-1.6,0.5-2.8,1.4-3.7s2.2-1.3,3.8-1.3c0.8,0,1.5,0.1,2.1,0.4s1.1,0.7,1.6,1.2s0.8,1.1,1.1,1.7s0.5,1.3,0.7,2l-2.3,0.7
				c-0.1-0.7-0.3-1.3-0.5-1.9s-0.6-1.1-1.1-1.6s-1-0.7-1.6-0.7c-0.8,0-1.4,0.3-1.9,0.8s-0.7,1.2-0.7,2.1c0,0.7,0.2,1.4,0.7,2
				s1.1,1.3,2,2l1.7,1.4c0.5,0.5,1,0.8,1.2,1.1s0.7,0.6,1.1,1.1s0.8,0.9,1,1.3s0.4,0.9,0.6,1.4s0.3,1.1,0.3,1.7
				c0,1.6-0.5,2.8-1.5,3.7s-2.3,1.4-3.9,1.4c-1.5,0-2.8-0.5-3.9-1.6S97,117,96.6,115.4z"/>
			<path fill="#FFFFFF" d="M111.7,115.7v-14.6h-2.9v-1.5h2.9v-7.5h2.6v7.5h3.4v1.5h-3.4v14.5c0,0.5,0,0.9,0,1.2s0,0.6,0.1,0.9
				s0.2,0.6,0.3,0.7s0.3,0.3,0.5,0.4s0.5,0.2,0.9,0.2c0.6,0,1.1,0,1.5-0.1v1.8c-0.8,0.2-1.5,0.3-2.3,0.3c-0.7,0-1.2-0.1-1.7-0.3
				s-0.8-0.5-1.1-0.8s-0.5-0.7-0.6-1.2s-0.2-1-0.3-1.4S111.7,116.3,111.7,115.7z"/>
			<path fill="#FFFFFF" d="M127.7,127.4V99.6h2.6v2c1.1-1.6,2.5-2.5,4.3-2.5c0.3,0,0.6,0,0.9,0.1s0.5,0.2,0.9,0.3s0.6,0.4,0.8,0.7
				s0.5,0.7,0.7,1.2s0.4,1.1,0.6,1.8s0.3,1.5,0.4,2.6s0.1,2.2,0.1,3.4v1.7c0,1.8-0.1,3.4-0.3,4.7s-0.4,2.3-0.7,3s-0.6,1.3-1.1,1.7
				s-0.9,0.7-1.2,0.8s-0.8,0.1-1.3,0.1c-0.7,0-1.5-0.2-2.2-0.6s-1.3-1-1.9-1.8v8.8H127.7z M136.4,110.8v-1.7c0-1.1,0-2.1-0.1-2.9
				s-0.1-1.6-0.2-2.1s-0.2-1-0.3-1.4s-0.3-0.7-0.4-0.9s-0.3-0.4-0.5-0.5s-0.4-0.2-0.5-0.2s-0.3,0-0.6,0c-0.5,0-1.1,0.2-1.7,0.6
				s-1.2,0.9-1.7,1.5v13.9c1.3,1.4,2.4,2.1,3.5,2.1c0.3,0,0.5,0,0.6-0.1s0.4-0.2,0.6-0.3s0.4-0.4,0.5-0.8s0.3-0.8,0.4-1.4
				s0.2-1.4,0.3-2.3S136.4,112.1,136.4,110.8z"/>
			<path fill="#FFFFFF" d="M143.5,120.6V90.4h2.6v30.3H143.5z"/>
			<path fill="#FFFFFF" d="M158.9,120.6l-0.3-2.5c-0.6,1-1.3,1.7-2.1,2.2s-1.6,0.8-2.4,0.8c-1.1,0-2.1-0.4-2.9-1.3s-1.3-2-1.3-3.4
				c0-0.4,0-0.7,0-0.9s0-0.5,0.1-0.9s0.1-0.7,0.2-0.9s0.2-0.5,0.4-0.9s0.4-0.7,0.7-0.9s0.6-0.6,1.1-0.9s0.9-0.7,1.5-1s1.2-0.7,1.9-1
				s1.6-0.7,2.5-1.1v-0.2c0-1.2-0.1-2.2-0.2-3.1s-0.2-1.5-0.4-2s-0.3-0.8-0.6-1.1s-0.5-0.4-0.7-0.5s-0.5-0.1-0.8-0.1
				c-0.3,0-0.6,0-0.8,0.1s-0.5,0.3-0.8,0.5s-0.5,0.7-0.7,1.2s-0.3,1.3-0.4,2.1v0.1h-2.7c0.1-1.8,0.7-3.3,1.6-4.3s2.2-1.6,3.7-1.6
				c0.9,0,1.6,0.1,2.3,0.4s1.2,0.6,1.6,1.1s0.7,0.9,0.9,1.5s0.4,1.2,0.5,1.7s0.1,1.2,0.1,1.8v10.1c0,0.7,0,1.5,0.1,2.3
				s0.1,1.4,0.2,1.9l0.1,0.7H158.9z M158.4,116.4v-7.4c-0.9,0.6-1.5,1.1-2,1.4s-1,0.8-1.6,1.3s-1,0.9-1.2,1.3s-0.5,0.9-0.7,1.4
				s-0.3,1-0.3,1.6c0,1,0.2,1.8,0.6,2.2s0.9,0.7,1.5,0.7c0.7,0,1.3-0.2,2-0.7S158,117.1,158.4,116.4z"/>
			<path fill="#FFFFFF" d="M164.7,110.7v-1.1c0-0.9,0-1.7,0-2.2s0.1-1.2,0.1-2s0.2-1.5,0.3-2s0.3-1,0.6-1.7s0.6-1.1,1-1.4
				s0.9-0.6,1.5-0.8s1.3-0.4,2.1-0.4c0.8,0,1.5,0.1,2.1,0.4s1.1,0.6,1.5,1s0.7,1,0.9,1.6s0.4,1.3,0.5,1.9s0.2,1.4,0.2,2.2
				c0,0,0,0.1,0,0.1s0,0.1,0,0.1h-2.6v-0.2c-0.1-2-0.3-3.4-0.7-4.2s-1.1-1.2-2-1.2c-0.5,0-0.9,0.1-1.2,0.2s-0.6,0.4-0.8,0.7
				s-0.4,0.7-0.6,1.1s-0.3,1-0.3,1.7s-0.1,1.4-0.2,2.2s0,1.7,0,2.8v1.1c0,3.3,0.2,5.6,0.6,6.8s1.2,1.9,2.5,1.9c0.9,0,1.6-0.4,2-1.3
				s0.6-2.3,0.7-4.3v-0.2h2.7v0.1c0,0.9-0.1,1.7-0.2,2.3s-0.3,1.3-0.5,2s-0.6,1.2-0.9,1.6s-0.9,0.8-1.5,1s-1.4,0.4-2.2,0.4
				c-0.7,0-1.3-0.1-1.9-0.2s-1-0.4-1.4-0.7s-0.7-0.7-1-1s-0.5-0.8-0.7-1.4s-0.3-1.1-0.4-1.5s-0.2-1-0.2-1.8s-0.1-1.4-0.1-1.9
				S164.7,111.5,164.7,110.7z"/>
			<path fill="#FFFFFF" d="M179.1,110.9V108c0-1.5,0.1-2.7,0.3-3.8s0.5-1.9,0.8-2.6s0.7-1.2,1.2-1.5s1-0.6,1.6-0.8s1.2-0.2,1.9-0.2
				c1.9,0,3.2,0.7,4.1,2s1.2,3.4,1.2,6.3c0,0.9,0,1.6,0,2.2h-8.4v3.2c0,1.4,0.1,2.5,0.2,3.4s0.3,1.5,0.6,2s0.6,0.7,1,0.9
				s0.8,0.2,1.3,0.2c0.8,0,1.4-0.4,2-1.2s0.8-2.1,0.8-4h2.5c-0.1,0.8-0.2,1.5-0.3,2.1s-0.3,1.2-0.6,1.9s-0.6,1.1-0.9,1.5
				s-0.8,0.7-1.4,1s-1.3,0.4-2,0.4c-1.5,0-2.6-0.3-3.5-0.9s-1.4-1.6-1.8-3.1S179.1,113.6,179.1,110.9z M181.8,108.3h5.8
				c0-0.5,0-0.9,0-1.4s0-1,0-1.5s-0.1-1-0.1-1.4s-0.1-0.9-0.2-1.2s-0.3-0.7-0.4-1s-0.4-0.5-0.7-0.7s-0.7-0.2-1.1-0.2
				c-0.6,0-1.2,0.1-1.6,0.4s-0.7,0.5-1,0.8s-0.4,0.8-0.5,1.6s-0.2,1.4-0.2,2S181.8,107.1,181.8,108.3z"/>
			<path fill="#FFFFFF" d="M192.8,115.4l2-0.7c0.2,0.5,0.4,1,0.6,1.5s0.5,1,0.9,1.4s0.7,0.9,1.2,1.2s0.9,0.4,1.5,0.4
				c0.9,0,1.6-0.3,2.1-0.8s0.7-1.3,0.7-2.3c0-1.3-1.2-3.1-3.6-5.2l-1.5-1.3c-1.2-1-2-1.9-2.6-2.7s-0.9-1.7-0.9-2.7
				c0-1.6,0.5-2.8,1.4-3.7s2.2-1.3,3.8-1.3c0.8,0,1.5,0.1,2.1,0.4s1.1,0.7,1.6,1.2s0.8,1.1,1.1,1.7s0.5,1.3,0.7,2l-2.3,0.7
				c-0.1-0.7-0.3-1.3-0.5-1.9s-0.6-1.1-1.1-1.6s-1-0.7-1.6-0.7c-0.8,0-1.4,0.3-1.9,0.8s-0.7,1.2-0.7,2.1c0,0.7,0.2,1.4,0.7,2
				s1.1,1.3,2,2l1.7,1.4c0.5,0.5,1,0.8,1.2,1.1s0.7,0.6,1.1,1.1s0.8,0.9,1,1.3s0.4,0.9,0.6,1.4s0.3,1.1,0.3,1.7
				c0,1.6-0.5,2.8-1.5,3.7s-2.3,1.4-3.9,1.4c-1.5,0-2.8-0.5-3.9-1.6S193.2,117,192.8,115.4z"/>
			<path fill="#FFFFFF" d="M214.4,94.8v-3.1h2.6v3.1H214.4z M214.4,120.6V99.6h2.6v21.1H214.4z"/>
			<path fill="#FFFFFF" d="M221.3,120.6V99.6h2.6v2c0.6-0.8,1.2-1.4,2-1.8s1.6-0.6,2.4-0.6c1,0,2,0.4,2.8,1.3s1.2,2.1,1.2,3.7v16.5
				h-2.7V104c0-1-0.2-1.8-0.6-2.3s-0.9-0.7-1.6-0.7c-0.6,0-1.1,0.2-1.8,0.6s-1.2,0.9-1.7,1.6v17.5H221.3z"/>
			<path fill="#FFFFFF" d="M244,120.6V90.4h10.5v2.1h-7.9V104h5.6v2h-5.6v12.5h7.9v2.1H244z"/>
			<path fill="#FFFFFF" d="M257.4,116.1V99.6h2.7v16.6c0,1,0.2,1.8,0.6,2.3s0.9,0.7,1.6,0.7c0.6,0,1.1-0.2,1.8-0.6s1.2-0.9,1.7-1.6
				V99.6h2.6v21.1h-2.6v-2c-0.6,0.8-1.2,1.4-2,1.8s-1.6,0.6-2.4,0.6c-1,0-2-0.4-2.8-1.3S257.4,117.7,257.4,116.1z"/>
			<path fill="#FFFFFF" d="M273.2,120.6V99.6h2.6v3c0.3-1.1,0.9-1.9,1.8-2.5s1.7-0.8,2.7-0.9v2.7c-0.1,0-0.3-0.1-0.4-0.1
				c-2.7,0-4,1-4,3.1v15.7H273.2z"/>
			<path fill="#FFFFFF" d="M281.9,110.7v-1.1c0-0.9,0-1.7,0-2.2s0-1.2,0.1-2s0.2-1.5,0.3-2s0.3-1,0.6-1.7s0.6-1.1,1-1.4
				s0.9-0.6,1.5-0.8s1.3-0.4,2.1-0.4s1.5,0.1,2.1,0.4s1.1,0.5,1.5,0.8s0.7,0.8,1,1.4s0.5,1.2,0.6,1.7s0.2,1.2,0.3,2s0.1,1.5,0.1,2
				s0,1.2,0,2.2v1.1c0,0.8,0,1.4,0,1.8s0,1-0.1,1.7s-0.1,1.3-0.1,1.6s-0.2,0.9-0.3,1.4s-0.3,1-0.5,1.3s-0.4,0.7-0.7,1
				s-0.6,0.7-1,0.9s-0.8,0.4-1.3,0.5s-1.1,0.2-1.7,0.2s-1.2-0.1-1.7-0.2s-0.9-0.3-1.3-0.5s-0.7-0.5-1-0.9s-0.5-0.7-0.7-1
				s-0.3-0.8-0.5-1.3s-0.2-1.1-0.3-1.4s-0.1-0.9-0.1-1.6s0-1.3-0.1-1.7S281.9,111.4,281.9,110.7z M284.6,109.6v1.1
				c0,3.3,0.2,5.6,0.6,6.8s1.2,1.9,2.4,1.9s2-0.6,2.4-1.9s0.6-3.5,0.6-6.8v-1.1c0-1.1,0-2.1,0-2.8s-0.1-1.5-0.1-2.2
				s-0.2-1.3-0.3-1.7s-0.3-0.8-0.5-1.1s-0.5-0.6-0.8-0.7s-0.7-0.2-1.1-0.2s-0.8,0.1-1.1,0.2s-0.6,0.4-0.8,0.7s-0.4,0.7-0.5,1.1
				s-0.2,1-0.3,1.7s-0.1,1.4-0.1,2.2S284.6,108.4,284.6,109.6z"/>
			<path fill="#FFFFFF" d="M297.1,127.4V99.6h2.6v2c1.1-1.6,2.5-2.5,4.3-2.5c0.3,0,0.6,0,0.9,0.1s0.5,0.2,0.9,0.3s0.6,0.4,0.8,0.7
				s0.5,0.7,0.7,1.2s0.4,1.1,0.6,1.8s0.3,1.5,0.4,2.6s0.1,2.2,0.1,3.4v1.7c0,1.8-0.1,3.4-0.3,4.7s-0.4,2.3-0.7,3s-0.6,1.3-1.1,1.7
				s-0.9,0.7-1.2,0.8s-0.8,0.1-1.3,0.1c-0.7,0-1.5-0.2-2.2-0.6s-1.3-1-1.9-1.8v8.8H297.1z M305.8,110.8v-1.7c0-1.1,0-2.1-0.1-2.9
				s-0.1-1.6-0.2-2.1s-0.2-1-0.3-1.4s-0.3-0.7-0.4-0.9s-0.3-0.4-0.5-0.5s-0.4-0.2-0.5-0.2s-0.3,0-0.6,0c-0.5,0-1.1,0.2-1.7,0.6
				s-1.2,0.9-1.7,1.5v13.9c1.3,1.4,2.4,2.1,3.5,2.1c0.3,0,0.5,0,0.6-0.1s0.4-0.2,0.6-0.3s0.4-0.4,0.5-0.8s0.3-0.8,0.4-1.4
				s0.2-1.4,0.3-2.3S305.8,112.1,305.8,110.8z"/>
			<path fill="#FFFFFF" d="M312.1,110.9V108c0-1.5,0.1-2.7,0.3-3.8s0.5-1.9,0.8-2.6s0.7-1.2,1.2-1.5s1-0.6,1.6-0.8s1.2-0.2,1.9-0.2
				c1.9,0,3.2,0.7,4.1,2s1.2,3.4,1.2,6.3c0,0.9,0,1.6,0,2.2h-8.4v3.2c0,1.4,0.1,2.5,0.2,3.4s0.3,1.5,0.6,2s0.6,0.7,1,0.9
				s0.8,0.2,1.3,0.2c0.8,0,1.4-0.4,2-1.2s0.8-2.1,0.8-4h2.5c-0.1,0.8-0.2,1.5-0.3,2.1s-0.3,1.2-0.6,1.9s-0.6,1.1-0.9,1.5
				s-0.8,0.7-1.4,1s-1.3,0.4-2,0.4c-1.5,0-2.6-0.3-3.5-0.9s-1.4-1.6-1.8-3.1S312.1,113.6,312.1,110.9z M314.8,108.3h5.8
				c0-0.5,0-0.9,0-1.4s0-1,0-1.5s-0.1-1-0.1-1.4s-0.1-0.9-0.2-1.2s-0.3-0.7-0.4-1s-0.4-0.5-0.7-0.7s-0.7-0.2-1.1-0.2
				c-0.6,0-1.2,0.1-1.6,0.4s-0.7,0.5-1,0.8s-0.4,0.8-0.5,1.6s-0.2,1.4-0.2,2S314.8,107.1,314.8,108.3z"/>
			<path fill="#FFFFFF" d="M62.7,152.7v-14.3h-3.2V137h3.2v-1.6c0-3.1,1.2-5.4,4.7-5.4c1.2,0,2.2,0.4,3.1,1.1l-0.8,1.2
				c-0.9-0.5-1.5-0.8-2.4-0.8c-2,0-3.1,1.2-3.1,4v1.6h5.2v1.4h-5.2v14.3H62.7z"/>
			<path fill="#FFFFFF" d="M70.8,144.8c0-5,3.6-8.2,8-8.2s8,3.2,8,8.2c0,5-3.6,8.1-8,8.1S70.8,149.9,70.8,144.8z M85.4,144.8
				c0-4.1-2.9-6.8-6.5-6.8s-6.5,2.7-6.5,6.8s2.9,6.6,6.5,6.6S85.4,148.9,85.4,144.8z"/>
			<path fill="#FFFFFF" d="M92.5,136.9l0.1,2.8c1-2.1,3.2-3,5.3-3c1.2,0,2.3,0.3,3.4,0.9l-0.7,1.3c-0.8-0.5-1.8-0.7-2.7-0.7
				c-2.9,0-5.2,2.4-5.2,5.3v9.2H91v-15.8H92.5z"/>
			<path fill="#FFFFFF" d="M124.2,136.9l-10.1,23.5h-1.7l3.3-7.9l-6.3-15.6h1.7l3.7,9.4l1.9,4.6l1.8-4.6l4-9.3H124.2z"/>
			<path fill="#FFFFFF" d="M126.1,144.8c0-5,3.6-8.2,8-8.2s8,3.2,8,8.2c0,5-3.6,8.1-8,8.1S126.1,149.9,126.1,144.8z M140.6,144.8
				c0-4.1-2.9-6.8-6.5-6.8s-6.5,2.7-6.5,6.8s2.9,6.6,6.5,6.6S140.6,148.9,140.6,144.8z"/>
			<path fill="#FFFFFF" d="M158.9,152.7v-2.9c-1.2,2.2-3.4,3.1-5.6,3.1c-4.2,0-7.1-2.6-7.1-7v-9.1h1.6v9.1c0,3.6,2.2,5.5,5.6,5.5
				c3.3,0,5.5-2.5,5.5-5.8v-8.8h1.6v15.9H158.9z"/>
			<path fill="#FFFFFF" d="M167.1,136.9l0.1,2.8c1-2.1,3.2-3,5.3-3c1.2,0,2.3,0.3,3.4,0.9l-0.7,1.3c-0.8-0.5-1.8-0.7-2.7-0.7
				c-2.9,0-5.2,2.4-5.2,5.3v9.2h-1.6v-15.8H167.1z"/>
			<path fill="#FFFFFF" d="M199.1,150.6c-1.6,1.6-3.7,2.4-5.8,2.4c-4.5,0-8.1-3.2-8.1-8.2c0-5,3.6-8.2,8.1-8.2
				c2.1,0,4.2,0.8,5.8,2.4l-1,1c-1.3-1.3-3.1-1.9-4.8-1.9c-3.6,0-6.6,2.4-6.6,6.7s3,6.7,6.6,6.7c1.7,0,3.4-0.7,4.7-2L199.1,150.6z"
				/>
			<path fill="#FFFFFF" d="M217.6,136.9c0,5.3,0,10.5,0,15.8H216v-3.4c-1.5,2.5-3.9,3.6-6.5,3.6c-4.4,0-8-3.3-8-8.2
				c0-4.8,3.6-8.1,8-8.1c2.6,0,5.2,1.2,6.5,3.7v-3.5H217.6z M203,144.8c0,4,2.9,6.6,6.5,6.6c8.8,0,8.8-13.2,0-13.2
				C205.9,138.2,203,140.8,203,144.8z"/>
			<path fill="#FFFFFF" d="M224.2,136.9l0.1,2.8c1-2.1,3.2-3,5.3-3c1.2,0,2.3,0.3,3.4,0.9l-0.7,1.3c-0.8-0.5-1.8-0.7-2.7-0.7
				c-2.9,0-5.2,2.4-5.2,5.3v9.2h-1.6v-15.8H224.2z"/>
			<path fill="#FFFFFF" d="M233.9,144.8c0-4.7,3.6-8.2,8-8.2s8.4,2.7,7.8,8.9h-14.3c0.3,3.7,3.2,5.9,6.4,5.9c2.1,0,4.5-0.8,5.7-2.4
				l1.1,0.9c-1.5,2-4.3,3-6.8,3C237.5,152.9,233.9,149.8,233.9,144.8z M248.3,144.1c0-3.9-2.6-6.1-6.4-6.1c-3.3,0-6.1,2.2-6.4,6.1
				H248.3z"/>
			<path fill="#FFFFFF" d="M252.7,144.8c0-4.7,3.6-8.2,8-8.2s8.4,2.7,7.8,8.9h-14.3c0.3,3.7,3.2,5.9,6.4,5.9c2.1,0,4.5-0.8,5.7-2.4
				l1.1,0.9c-1.5,2-4.3,3-6.8,3C256.3,152.9,252.7,149.8,252.7,144.8z M267.1,144.1c0-3.9-2.6-6.1-6.4-6.1c-3.3,0-6.1,2.2-6.4,6.1
				H267.1z"/>
			<path fill="#FFFFFF" d="M274,136.9l0.1,2.8c1-2.1,3.2-3,5.3-3c1.2,0,2.3,0.3,3.4,0.9l-0.7,1.3c-0.8-0.5-1.8-0.7-2.7-0.7
				c-2.9,0-5.2,2.4-5.2,5.3v9.2h-1.6v-15.8H274z"/>
		</g>
	</g>
</g>
</svg>
