<?xml version="1.0" encoding="utf-8"?>
<!-- Generator: Adobe Illustrator 18.0.0, SVG Export Plug-In . SVG Version: 6.00 Build 0)  -->
<!DOCTYPE svg PUBLIC "-//W3C//DTD SVG 1.0//EN" "http://www.w3.org/TR/2001/REC-SVG-20010904/DTD/svg10.dtd">
<svg version="1.0" id="Layer_1" xmlns="http://www.w3.org/2000/svg" xmlns:xlink="http://www.w3.org/1999/xlink" x="0px" y="0px"
	 width="321px" height="55.6px" viewBox="0 0 321 55.6" enable-background="new 0 0 321 55.6" xml:space="preserve">
<g>
	<g>
		<path fill="#FFFFFF" d="M112.7,24.6h-2.8V12.1H107V9.6h8.5v2.5h-2.9V24.6z"/>
		<path fill="#FFFFFF" d="M122.7,24.6v-6.8c0-1.7-0.4-2.5-1.3-2.5c-0.6,0-1.1,0.3-1.3,1s-0.4,1.6-0.4,2.8v5.5H117v-16h2.7v3.5
			c0,0.5,0,1.3-0.1,2.5h0.1c0.5-1.1,1.4-1.7,2.5-1.7c1,0,1.8,0.4,2.4,1.1c0.5,0.7,0.8,1.7,0.8,3.1v7.5H122.7z"/>
		<path fill="#FFFFFF" d="M131.8,24.8c-1.4,0-2.6-0.5-3.4-1.5c-0.8-1-1.2-2.5-1.2-4.3c0-1.9,0.4-3.4,1.1-4.4s1.8-1.6,3.1-1.6
			c1.2,0,2.2,0.5,2.9,1.4s1.1,2.2,1.1,3.8v1.5H130c0,1,0.2,1.8,0.6,2.3c0.4,0.5,0.9,0.7,1.6,0.7c0.9,0,1.8-0.3,2.7-0.8V24
			C134.1,24.6,133.1,24.8,131.8,24.8z M131.4,15.1c-0.4,0-0.7,0.2-1,0.6c-0.3,0.4-0.4,1.1-0.4,1.9h2.8c0-0.8-0.1-1.5-0.4-1.9
			S131.9,15.1,131.4,15.1z"/>
		<path fill="#FFFFFF" d="M147.6,13c1,0,1.9,0.5,2.5,1.5s0.9,2.5,0.9,4.4c0,1.9-0.3,3.4-0.9,4.4c-0.6,1-1.4,1.5-2.5,1.5
			c-0.5,0-1-0.1-1.4-0.3c-0.4-0.2-0.8-0.6-1.1-1.2h-0.2l-0.5,1.3h-2v-16h2.7v3.7c0,0.2,0,0.3,0,0.5s-0.1,0.8-0.1,1.8h0.1
			c0.3-0.6,0.7-1.1,1.1-1.3S147.1,13,147.6,13z M146.7,15.3c-0.5,0-0.9,0.2-1.1,0.7c-0.2,0.5-0.4,1.3-0.4,2.6v0.3
			c0,1.3,0.1,2.3,0.4,2.8c0.2,0.5,0.6,0.8,1.2,0.8c1,0,1.5-1.2,1.5-3.6C148.2,16.5,147.7,15.3,146.7,15.3z"/>
		<path fill="#FFFFFF" d="M157.1,24.8c-1.4,0-2.6-0.5-3.4-1.5c-0.8-1-1.2-2.5-1.2-4.3c0-1.9,0.4-3.4,1.1-4.4s1.8-1.6,3.1-1.6
			c1.2,0,2.2,0.5,2.9,1.4s1.1,2.2,1.1,3.8v1.5h-5.5c0,1,0.2,1.8,0.6,2.3c0.4,0.5,0.9,0.7,1.6,0.7c0.9,0,1.8-0.3,2.7-0.8V24
			C159.4,24.6,158.3,24.8,157.1,24.8z M156.7,15.1c-0.4,0-0.7,0.2-1,0.6c-0.3,0.4-0.4,1.1-0.4,1.9h2.8c0-0.8-0.1-1.5-0.4-1.9
			S157.1,15.1,156.7,15.1z"/>
		<path fill="#FFFFFF" d="M168.7,21.3c0,1.1-0.3,2-1,2.6c-0.7,0.6-1.6,0.9-2.9,0.9c-1.1,0-2.1-0.2-2.8-0.7v-2.4
			c0.4,0.3,0.8,0.5,1.3,0.6c0.5,0.2,0.9,0.3,1.3,0.3c0.4,0,0.7-0.1,1-0.3c0.2-0.2,0.3-0.5,0.3-0.8c0-0.3-0.1-0.7-0.3-0.9
			s-0.7-0.6-1.3-1c-0.8-0.5-1.4-1-1.8-1.6c-0.4-0.6-0.5-1.2-0.5-2c0-1,0.3-1.7,1-2.3c0.7-0.6,1.6-0.9,2.7-0.9c1,0,2,0.3,2.9,0.8
			l-0.9,2c-0.7-0.4-1.4-0.6-1.9-0.6c-0.3,0-0.6,0.1-0.8,0.3c-0.2,0.2-0.3,0.4-0.3,0.7c0,0.3,0.1,0.6,0.3,0.8
			c0.2,0.2,0.6,0.5,1.2,0.9c0.7,0.4,1.2,0.8,1.5,1.1s0.5,0.6,0.7,1S168.7,20.8,168.7,21.3z"/>
		<path fill="#FFFFFF" d="M174.4,22.5c0.4,0,0.8-0.1,1.2-0.3v2.1c-0.4,0.3-1.1,0.5-2,0.5c-1,0-1.7-0.3-2.2-0.9s-0.7-1.5-0.7-2.7
			v-5.9h-1.1v-1.2l1.4-1l0.7-2.4h1.7v2.5h2.1v2.2h-2.1v6C173.4,22.1,173.8,22.5,174.4,22.5z"/>
		<path fill="#FFFFFF" d="M187.5,24.8c-0.5,0-0.9-0.1-1.3-0.3c-0.4-0.2-0.7-0.6-1.1-1.2H185c0.1,0.9,0.2,1.5,0.2,1.7v4.7h-2.7V13.2
			h2.1l0.5,1.5h0.1c0.6-1.1,1.4-1.7,2.5-1.7c1,0,1.9,0.5,2.4,1.5s0.9,2.5,0.9,4.4c0,1.9-0.3,3.3-0.9,4.4S188.5,24.8,187.5,24.8z
			 M186.7,15.3c-0.5,0-0.9,0.2-1.2,0.7c-0.2,0.5-0.4,1.3-0.4,2.5v0.4c0,1.3,0.1,2.2,0.4,2.7s0.6,0.9,1.2,0.9c1,0,1.4-1.2,1.4-3.6
			c0-1.2-0.1-2.1-0.4-2.7C187.5,15.6,187.2,15.3,186.7,15.3z"/>
		<path fill="#FFFFFF" d="M195.5,24.6h-2.7v-16h2.7V24.6z"/>
		<path fill="#FFFFFF" d="M203.4,24.6l-0.5-1.6h-0.1c-0.4,0.7-0.8,1.1-1.3,1.4s-1,0.4-1.6,0.4c-0.8,0-1.5-0.3-2-0.9
			c-0.5-0.6-0.7-1.5-0.7-2.6c0-1.2,0.3-2.1,1-2.7c0.7-0.6,1.6-0.9,3-1l1.5-0.1v-0.8c0-1.1-0.5-1.6-1.4-1.6c-0.7,0-1.5,0.3-2.4,0.8
			L198,14c1.1-0.7,2.4-1.1,3.7-1.1c1.2,0,2.1,0.3,2.8,1c0.6,0.7,0.9,1.7,0.9,2.9v7.7H203.4z M201.1,22.7c0.5,0,0.9-0.2,1.2-0.7
			c0.3-0.4,0.4-1,0.4-1.8v-1l-0.8,0c-0.6,0-1.1,0.2-1.4,0.5c-0.3,0.3-0.4,0.8-0.4,1.4C200.1,22.2,200.4,22.7,201.1,22.7z"/>
		<path fill="#FFFFFF" d="M211.4,24.8c-1.4,0-2.4-0.5-3.1-1.5s-1.1-2.4-1.1-4.4c0-2,0.3-3.5,1-4.5c0.7-1,1.7-1.5,3.1-1.5
			c0.4,0,0.9,0.1,1.3,0.2s0.9,0.3,1.3,0.5l-0.8,2.1c-0.6-0.3-1.1-0.5-1.5-0.5c-0.6,0-1,0.3-1.3,0.9c-0.3,0.6-0.4,1.5-0.4,2.7
			c0,1.2,0.1,2.1,0.4,2.7c0.3,0.6,0.7,0.9,1.2,0.9c0.7,0,1.4-0.2,2.1-0.7v2.4C213.1,24.6,212.3,24.8,211.4,24.8z"/>
		<path fill="#FFFFFF" d="M219.6,24.8c-1.4,0-2.6-0.5-3.4-1.5c-0.8-1-1.2-2.5-1.2-4.3c0-1.9,0.4-3.4,1.1-4.4s1.8-1.6,3.1-1.6
			c1.2,0,2.2,0.5,2.9,1.4s1.1,2.2,1.1,3.8v1.5h-5.5c0,1,0.2,1.8,0.6,2.3c0.4,0.5,0.9,0.7,1.6,0.7c0.9,0,1.8-0.3,2.7-0.8V24
			C221.9,24.6,220.9,24.8,219.6,24.8z M219.2,15.1c-0.4,0-0.7,0.2-1,0.6c-0.3,0.4-0.4,1.1-0.4,1.9h2.8c0-0.8-0.1-1.5-0.4-1.9
			S219.7,15.1,219.2,15.1z"/>
		<path fill="#FFFFFF" d="M231.2,21.3c0,1.1-0.3,2-1,2.6c-0.7,0.6-1.6,0.9-2.9,0.9c-1.1,0-2.1-0.2-2.8-0.7v-2.4
			c0.4,0.3,0.8,0.5,1.3,0.6c0.5,0.2,0.9,0.3,1.3,0.3c0.4,0,0.7-0.1,1-0.3c0.2-0.2,0.3-0.5,0.3-0.8c0-0.3-0.1-0.7-0.3-0.9
			s-0.7-0.6-1.3-1c-0.8-0.5-1.4-1-1.8-1.6c-0.4-0.6-0.5-1.2-0.5-2c0-1,0.3-1.7,1-2.3c0.7-0.6,1.6-0.9,2.7-0.9c1,0,2,0.3,2.9,0.8
			l-0.9,2c-0.7-0.4-1.4-0.6-1.9-0.6c-0.3,0-0.6,0.1-0.8,0.3c-0.2,0.2-0.3,0.4-0.3,0.7c0,0.3,0.1,0.6,0.3,0.8
			c0.2,0.2,0.6,0.5,1.2,0.9c0.7,0.4,1.2,0.8,1.5,1.1s0.5,0.6,0.7,1S231.2,20.8,231.2,21.3z"/>
		<path fill="#FFFFFF" d="M238,10.2c0-0.5,0.1-0.8,0.4-1.1c0.3-0.3,0.6-0.4,1.1-0.4c0.4,0,0.8,0.1,1.1,0.4c0.3,0.3,0.4,0.6,0.4,1.1
			c0,0.5-0.1,0.8-0.4,1.1c-0.3,0.3-0.6,0.4-1.1,0.4c-0.5,0-0.8-0.1-1.1-0.4C238.2,11,238,10.7,238,10.2z M240.9,24.6h-2.7V13.2h2.7
			V24.6z"/>
		<path fill="#FFFFFF" d="M248.9,24.6v-6.8c0-0.8-0.1-1.5-0.3-1.9s-0.5-0.6-1-0.6c-0.6,0-1,0.3-1.3,0.9c-0.3,0.6-0.4,1.6-0.4,3v5.5
			h-2.7V13.2h2.2l0.3,1.5h0.2c0.2-0.5,0.6-0.9,1.1-1.2c0.5-0.3,1-0.4,1.6-0.4c1,0,1.8,0.4,2.3,1.1c0.5,0.7,0.8,1.8,0.8,3.1v7.5
			H248.9z"/>
		<path fill="#FFFFFF" d="M266,24.6h-6.8v-15h6.8V12h-4v3.6h3.7V18H262v4.2h4V24.6z"/>
		<path fill="#FFFFFF" d="M274.2,24.6l-0.3-1.5h-0.1c-0.3,0.5-0.6,0.9-1.1,1.2c-0.5,0.3-1,0.4-1.6,0.4c-1,0-1.8-0.3-2.3-1
			s-0.8-1.7-0.8-3.1v-7.5h2.8V20c0,0.8,0.1,1.5,0.3,1.9s0.5,0.6,1,0.6c0.6,0,1-0.3,1.3-0.9c0.3-0.6,0.4-1.6,0.4-3v-5.5h2.8v11.4
			H274.2z"/>
		<path fill="#FFFFFF" d="M283.5,13c0.3,0,0.7,0.1,1,0.2l-0.3,2.6c-0.2-0.1-0.4-0.1-0.7-0.1c-0.7,0-1.2,0.3-1.5,0.8
			c-0.4,0.5-0.5,1.3-0.5,2.3v5.9h-2.7V13.2h2.2l0.3,1.8h0.1c0.3-0.7,0.6-1.2,1-1.5S283,13,283.5,13z"/>
		<path fill="#FFFFFF" d="M294.2,18.9c0,1.9-0.4,3.3-1.2,4.4s-1.9,1.6-3.3,1.6c-0.9,0-1.6-0.2-2.3-0.7s-1.2-1.2-1.5-2.1
			c-0.4-0.9-0.5-1.9-0.5-3.2c0-1.9,0.4-3.3,1.2-4.3s1.9-1.6,3.3-1.6c1.3,0,2.4,0.5,3.2,1.6C293.8,15.6,294.2,17.1,294.2,18.9z
			 M288.1,18.9c0,1.2,0.1,2.1,0.4,2.7s0.7,0.9,1.3,0.9c1.1,0,1.6-1.2,1.6-3.6c0-1.2-0.1-2.1-0.4-2.7c-0.3-0.6-0.7-0.9-1.2-0.9
			c-0.6,0-1,0.3-1.3,0.9S288.1,17.7,288.1,18.9z"/>
		<path fill="#FFFFFF" d="M301.2,24.8c-0.5,0-0.9-0.1-1.3-0.3c-0.4-0.2-0.7-0.6-1.1-1.2h-0.1c0.1,0.9,0.2,1.5,0.2,1.7v4.7h-2.7V13.2
			h2.1l0.5,1.5h0.1c0.6-1.1,1.4-1.7,2.5-1.7c1,0,1.9,0.5,2.4,1.5s0.9,2.5,0.9,4.4c0,1.9-0.3,3.3-0.9,4.4S302.2,24.8,301.2,24.8z
			 M300.3,15.3c-0.5,0-0.9,0.2-1.2,0.7c-0.2,0.5-0.4,1.3-0.4,2.5v0.4c0,1.3,0.1,2.2,0.4,2.7s0.6,0.9,1.2,0.9c1,0,1.4-1.2,1.4-3.6
			c0-1.2-0.1-2.1-0.4-2.7C301.2,15.6,300.8,15.3,300.3,15.3z"/>
		<path fill="#FFFFFF" d="M310.7,24.8c-1.4,0-2.6-0.5-3.4-1.5c-0.8-1-1.2-2.5-1.2-4.3c0-1.9,0.4-3.4,1.1-4.4
			c0.7-1.1,1.8-1.6,3.1-1.6c1.2,0,2.2,0.5,2.9,1.4s1.1,2.2,1.1,3.8v1.5h-5.5c0,1,0.2,1.8,0.6,2.3c0.4,0.5,0.9,0.7,1.6,0.7
			c0.9,0,1.8-0.3,2.7-0.8V24C313,24.6,311.9,24.8,310.7,24.8z M310.3,15.1c-0.4,0-0.7,0.2-1,0.6c-0.3,0.4-0.4,1.1-0.4,1.9h2.8
			c0-0.8-0.1-1.5-0.4-1.9S310.7,15.1,310.3,15.1z"/>
		<path fill="#FFFFFF" d="M109.6,48.6v-9.4h-2.1v-0.9h2.1v-1.1c0-2.1,0.8-3.5,3.1-3.5c0.8,0,1.5,0.3,2.1,0.7l-0.5,0.8
			c-0.6-0.3-1-0.5-1.6-0.5c-1.3,0-2.1,0.8-2.1,2.6v1.1h3.4v0.9h-3.4v9.4H109.6z"/>
		<path fill="#FFFFFF" d="M114.9,43.5c0-3.3,2.4-5.4,5.3-5.4c2.9,0,5.3,2.1,5.3,5.4s-2.4,5.3-5.3,5.3
			C117.2,48.8,114.9,46.8,114.9,43.5z M124.4,43.5c0-2.7-1.9-4.4-4.3-4.4s-4.3,1.7-4.3,4.4s1.9,4.3,4.3,4.3S124.4,46.2,124.4,43.5z"
			/>
		<path fill="#FFFFFF" d="M129.1,38.3l0,1.8c0.7-1.4,2.1-2,3.4-2c0.8,0,1.5,0.2,2.2,0.6l-0.5,0.8c-0.5-0.3-1.2-0.5-1.8-0.5
			c-1.9,0-3.4,1.6-3.4,3.5v6h-1V38.3H129.1z"/>
		<path fill="#FFFFFF" d="M149.9,38.3l-6.6,15.4h-1.1l2.2-5.1l-4.2-10.2h1.1l2.4,6.1l1.2,3l1.2-3l2.6-6.1H149.9z"/>
		<path fill="#FFFFFF" d="M151.1,43.5c0-3.3,2.4-5.4,5.3-5.4c2.9,0,5.3,2.1,5.3,5.4s-2.4,5.3-5.3,5.3
			C153.4,48.8,151.1,46.8,151.1,43.5z M160.6,43.5c0-2.7-1.9-4.4-4.3-4.4s-4.3,1.7-4.3,4.4s1.9,4.3,4.3,4.3S160.6,46.2,160.6,43.5z"
			/>
		<path fill="#FFFFFF" d="M172.6,48.6v-1.9c-0.8,1.4-2.2,2-3.7,2c-2.8,0-4.7-1.7-4.7-4.6v-6h1v6c0,2.4,1.4,3.6,3.7,3.6
			c2.1,0,3.6-1.6,3.6-3.8v-5.8h1v10.4H172.6z"/>
		<path fill="#FFFFFF" d="M178,38.3l0,1.8c0.7-1.4,2.1-2,3.4-2c0.8,0,1.5,0.2,2.2,0.6l-0.5,0.8c-0.5-0.3-1.2-0.5-1.8-0.5
			c-1.9,0-3.4,1.6-3.4,3.5v6h-1V38.3H178z"/>
		<path fill="#FFFFFF" d="M198.9,47.2c-1,1-2.4,1.6-3.8,1.6c-2.9,0-5.3-2.1-5.3-5.4s2.3-5.4,5.3-5.4c1.4,0,2.7,0.5,3.8,1.6l-0.7,0.7
			c-0.8-0.8-2-1.2-3.1-1.2c-2.4,0-4.3,1.6-4.3,4.4s2,4.4,4.3,4.4c1.1,0,2.2-0.4,3.1-1.3L198.9,47.2z"/>
		<path fill="#FFFFFF" d="M211,38.3c0,3.5,0,6.9,0,10.4h-1v-2.2c-1,1.6-2.6,2.4-4.2,2.4c-2.9,0-5.3-2.2-5.3-5.4s2.4-5.3,5.3-5.3
			c1.7,0,3.4,0.8,4.2,2.4v-2.3H211z M201.5,43.4c0,2.6,1.9,4.3,4.2,4.3c5.8,0,5.8-8.7,0-8.7C203.4,39.1,201.5,40.8,201.5,43.4z"/>
		<path fill="#FFFFFF" d="M215.4,38.3l0,1.8c0.7-1.4,2.1-2,3.4-2c0.8,0,1.5,0.2,2.2,0.6l-0.5,0.8c-0.5-0.3-1.2-0.5-1.8-0.5
			c-1.9,0-3.4,1.6-3.4,3.5v6h-1V38.3H215.4z"/>
		<path fill="#FFFFFF" d="M221.7,43.4c0-3.1,2.4-5.4,5.3-5.4c2.9,0,5.5,1.8,5.1,5.8h-9.3c0.2,2.4,2.1,3.9,4.2,3.9
			c1.4,0,3-0.5,3.7-1.6l0.7,0.6c-1,1.3-2.8,2-4.5,2C224.1,48.8,221.7,46.7,221.7,43.4z M231.2,43c0-2.6-1.7-4-4.2-4
			c-2.1,0-4,1.4-4.2,4H231.2z"/>
		<path fill="#FFFFFF" d="M234,43.4c0-3.1,2.4-5.4,5.3-5.4c2.9,0,5.5,1.8,5.1,5.8h-9.3c0.2,2.4,2.1,3.9,4.2,3.9c1.4,0,3-0.5,3.7-1.6
			l0.7,0.6c-1,1.3-2.8,2-4.5,2C236.4,48.8,234,46.7,234,43.4z M243.5,43c0-2.6-1.7-4-4.2-4c-2.1,0-4,1.4-4.2,4H243.5z"/>
		<path fill="#FFFFFF" d="M248,38.3l0,1.8c0.7-1.4,2.1-2,3.4-2c0.8,0,1.5,0.2,2.2,0.6l-0.5,0.8c-0.5-0.3-1.2-0.5-1.8-0.5
			c-1.9,0-3.4,1.6-3.4,3.5v6h-1V38.3H248z"/>
	</g>
	<g>
		<g>
			<path fill="none" stroke="#FFFFFF" stroke-width="2" stroke-miterlimit="10" d="M78,4.6c0,1,0.1-0.1,0.1-0.1
				C78.1,11,82,16.1,90,16.3V4.6H78z"/>
		</g>
		<g>
			<path fill="none" stroke="#FFFFFF" stroke-width="2" stroke-miterlimit="10" d="M4,16.1c1,0,0.6,0.1,0.7,0.1
				c6.6,0,12.4-3.7,12.6-11.7H4V16.1z"/>
		</g>
		<g>
			<path fill="none" stroke="#FFFFFF" stroke-width="2" stroke-miterlimit="10" d="M16,49.6c0-1-0.1,0.3-0.1,0.3
				c0-6.6-3.9-11.5-11.9-11.6v11.4H16z"/>
		</g>
		<g>
			<path fill="none" stroke="#FFFFFF" stroke-width="2" stroke-miterlimit="10" d="M90,38.8c-1,0-0.6-0.5-0.7-0.5
				c-6.6,0-12.4,4.3-12.6,11.3H90V38.8z"/>
		</g>
		<rect x="4.2" y="4.5" fill="none" stroke="#FFFFFF" stroke-width="2" stroke-miterlimit="10" width="85.6" height="45.6"/>
		<g>
			
				<circle fill="none" stroke="#FFFFFF" stroke-width="4" stroke-linecap="round" stroke-linejoin="round" stroke-dasharray="0,5.9476" cx="46.8" cy="27.4" r="15.1"/>
		</g>
	</g>
</g>
</svg>
