<?xml version="1.0" encoding="utf-8"?>
<!-- Generator: Adobe Illustrator 18.0.0, SVG Export Plug-In . SVG Version: 6.00 Build 0)  -->
<!DOCTYPE svg PUBLIC "-//W3C//DTD SVG 1.0//EN" "http://www.w3.org/TR/2001/REC-SVG-20010904/DTD/svg10.dtd">
<svg version="1.0" id="Layer_1" xmlns="http://www.w3.org/2000/svg" xmlns:xlink="http://www.w3.org/1999/xlink" x="0px" y="0px"
	 width="30px" height="30px" viewBox="0 0 30 30" enable-background="new 0 0 30 30" xml:space="preserve">
<g>
	<polygon fill="#FBD303" points="12.3,19.8 14.9,23.9 13.3,25.7 	"/>
	<path fill="#FBD303" d="M13.5,5.6H3.6C3.1,5.6,2.8,6,2.8,6.5v10.9c0,0.5,0.4,0.8,0.8,0.8h9.9c0.5,0,0.8-0.4,0.8-0.8V6.5
		C14.3,6,13.9,5.6,13.5,5.6z"/>
	<path fill="#49616E" d="M1.2,8.3c-0.6,0-1.1,0.5-1.1,1.1v5c0,0.6,0.5,1.1,1.1,1.1h1.6V8.3H1.2z"/>
	<polygon fill="#F1F3F7" points="27.7,22.6 14.3,17.2 14.3,6.7 27.7,1.3 	"/>
	<path fill="#49616E" d="M28.8,0c-0.6,0-1.1,0.5-1.1,1.1v21.7c0,0.6,0.5,1.1,1.1,1.1c0.6,0,1.1-0.5,1.1-1.1V1.1
		C29.9,0.5,29.4,0,28.8,0z"/>
	<polygon fill="#49616E" points="14.6,30 9.7,30 4.6,18.2 12.1,18.2 	"/>
	<g>
		<path fill="#5162B2" d="M11.4,7.9H5.7c-0.3,0-0.6,0.3-0.6,0.7c0,0.4,0.3,0.7,0.6,0.7h5.6c0.3,0,0.6-0.3,0.6-0.7
			C11.9,8.2,11.7,7.9,11.4,7.9z"/>
		<path fill="#5162B2" d="M11.4,11.3H5.7c-0.3,0-0.6,0.3-0.6,0.7c0,0.4,0.3,0.7,0.6,0.7h5.6c0.3,0,0.6-0.3,0.6-0.7
			C11.9,11.6,11.7,11.3,11.4,11.3z"/>
		<path fill="#5162B2" d="M11.4,14.7H5.7c-0.3,0-0.6,0.3-0.6,0.7c0,0.4,0.3,0.7,0.6,0.7h5.6c0.3,0,0.6-0.3,0.6-0.7
			C11.9,15,11.7,14.7,11.4,14.7z"/>
	</g>
</g>
</svg>
