<?xml version="1.0" encoding="utf-8"?>
<!-- Generator: Adobe Illustrator 18.0.0, SVG Export Plug-In . SVG Version: 6.00 Build 0)  -->
<!DOCTYPE svg PUBLIC "-//W3C//DTD SVG 1.0//EN" "http://www.w3.org/TR/2001/REC-SVG-20010904/DTD/svg10.dtd">
<svg version="1.0" id="Layer_1" xmlns="http://www.w3.org/2000/svg" xmlns:xlink="http://www.w3.org/1999/xlink" x="0px" y="0px"
	 width="30px" height="30px" viewBox="0 0 30 30" enable-background="new 0 0 30 30" xml:space="preserve">
<g>
	<path fill="#FFFFFF" d="M24.6,23.2c-6.3-1.7-12.9-1.7-19.2,0c-0.7,0.2-1.4-0.2-1.7-0.9c-1.2-4-2.4-8-3.7-11.9
		C-0.2,9.6,0.3,8.8,1,8.6c9.2-2.5,18.8-2.5,28,0c0.7,0.2,1.2,1,0.9,1.7c-1.2,4-2.4,8-3.7,11.9C26.1,23,25.3,23.4,24.6,23.2z"/>
	<path fill="#E6E6E6" d="M3,19.8c0.3,0.8,0.5,1.7,0.8,2.5c0.2,0.7,0.9,1.1,1.7,0.9c6.3-1.7,12.9-1.7,19.2,0c0.7,0.2,1.4-0.2,1.7-0.9
		c0.3-0.8,0.5-1.7,0.8-2.5C19.1,17.8,10.9,17.8,3,19.8z"/>
	<polygon fill="#EF6070" points="18.7,11.5 16.1,11.5 16.1,9 13.5,9 13.5,11.5 10.9,11.5 10.9,14.1 13.5,14.1 13.5,16.7 16.1,16.7 
		16.1,14.1 18.7,14.1 	"/>
</g>
</svg>
