<?xml version="1.0" encoding="utf-8"?>
<!-- Generator: Adobe Illustrator 18.0.0, SVG Export Plug-In . SVG Version: 6.00 Build 0)  -->
<!DOCTYPE svg PUBLIC "-//W3C//DTD SVG 1.0//EN" "http://www.w3.org/TR/2001/REC-SVG-20010904/DTD/svg10.dtd">
<svg version="1.0" id="Layer_1" xmlns="http://www.w3.org/2000/svg" xmlns:xlink="http://www.w3.org/1999/xlink" x="0px" y="0px"
	 width="30px" height="30px" viewBox="0 0 30 30" enable-background="new 0 0 30 30" xml:space="preserve">
<g>
	<path fill="#324D5B" d="M18.7,1.4h-7.5c-1,0-1.9,0.8-1.9,1.9v2.8h1.9V4.2c0-0.5,0.4-0.9,0.9-0.9h5.6c0.5,0,0.9,0.4,0.9,0.9v1.9h1.9
		V3.3C20.6,2.2,19.8,1.4,18.7,1.4z"/>
	<path fill="#EF6070" d="M1.9,6.1h26.2c1,0,1.9,0.8,1.9,1.9v18.7c0,1-0.8,1.9-1.9,1.9H1.9c-1,0-1.9-0.8-1.9-1.9V8
		C0,6.9,0.8,6.1,1.9,6.1z"/>
	<path fill="#FFFFFF" d="M19.7,15.5h-2.8v-2.8c0-0.5-0.4-0.9-0.9-0.9h-1.9c-0.5,0-0.9,0.4-0.9,0.9v2.8h-2.8c-0.5,0-0.9,0.4-0.9,0.9
		v1.9c0,0.5,0.4,0.9,0.9,0.9h2.8V22c0,0.5,0.4,0.9,0.9,0.9h1.9c0.5,0,0.9-0.4,0.9-0.9v-2.8h2.8c0.5,0,0.9-0.4,0.9-0.9v-1.9
		C20.6,15.9,20.2,15.5,19.7,15.5z"/>
	<g>
		<path fill="#D24146" d="M1.9,6.1C0.8,6.1,0,6.9,0,8v4.7l6.6-6.6L1.9,6.1z M1.9,28.6h4.7L0,22v4.7C0,27.8,0.8,28.6,1.9,28.6z
			 M28.1,6.1h-4.7l6.6,6.6V8C30,6.9,29.2,6.1,28.1,6.1z M28.1,28.6c1,0,1.9-0.8,1.9-1.9V22l-6.6,6.6H28.1z"/>
	</g>
</g>
</svg>
