<?xml version="1.0" encoding="utf-8"?>
<!-- Generator: Adobe Illustrator 18.0.0, SVG Export Plug-In . SVG Version: 6.00 Build 0)  -->
<!DOCTYPE svg PUBLIC "-//W3C//DTD SVG 1.0//EN" "http://www.w3.org/TR/2001/REC-SVG-20010904/DTD/svg10.dtd">
<svg version="1.0" id="Layer_1" xmlns="http://www.w3.org/2000/svg" xmlns:xlink="http://www.w3.org/1999/xlink" x="0px" y="0px"
	 width="30px" height="30px" viewBox="0 0 30 30" enable-background="new 0 0 30 30" xml:space="preserve">
<g id="XMLID_1_">
	<polygon id="XMLID_11_" fill="#61B16E" points="9.7,18.4 9.7,16.1 15.7,16.1 15.7,13.9 10.9,13.9 10.9,11.6 15.7,11.6 15.7,0 
		7.5,0 7.5,30 15.7,30 15.7,18.4 	"/>
	<polygon id="XMLID_10_" fill="#61B16E" points="24,15 24,7.5 24,0 15.7,0 15.7,11.6 20.6,11.6 20.6,13.9 15.7,13.9 15.7,16.1 
		21.7,16.1 21.7,18.4 15.7,18.4 15.7,30 24,30 24,22.5 	"/>
	<polygon id="XMLID_9_" fill="#61B16E" points="4.5,0 4.5,2.6 6,2.6 6,4.9 4.5,4.9 4.5,10.1 6,10.1 6,12.4 4.5,12.4 4.5,17.6 
		6,17.6 6,19.9 4.5,19.9 4.5,25.1 6,25.1 6,27.4 4.5,27.4 4.5,30 7.5,30 7.5,0 	"/>
	<rect id="XMLID_8_" x="24" y="0" fill="#FFD45E" width="3" height="7.5"/>
	<rect id="XMLID_7_" x="24" y="7.5" fill="#5494E0" width="3" height="7.5"/>
	<rect id="XMLID_6_" x="24" y="15" fill="#EF6070" width="3" height="7.5"/>
	<rect id="XMLID_5_" x="24" y="22.5" fill="#5162B2" width="3" height="7.5"/>
	<polygon id="XMLID_4_" fill="#565659" points="6,2.6 4.5,2.6 3,2.6 3,4.9 4.5,4.9 6,4.9 	"/>
	<polygon id="XMLID_3_" fill="#565659" points="6,25.1 4.5,25.1 3,25.1 3,27.4 4.5,27.4 6,27.4 	"/>
	<polygon id="XMLID_2_" fill="#565659" points="6,17.6 4.5,17.6 3,17.6 3,19.9 4.5,19.9 6,19.9 	"/>
	<polygon id="XMLID_527_" fill="#565659" points="6,10.1 4.5,10.1 3,10.1 3,12.4 4.5,12.4 6,12.4 	"/>
	<polygon id="XMLID_530_" fill="#FFFFFF" points="10.9,13.9 15.7,13.9 20.6,13.9 20.6,11.6 15.7,11.6 10.9,11.6 	"/>
	<polygon id="XMLID_531_" fill="#FFFFFF" points="9.7,18.4 15.7,18.4 21.7,18.4 21.7,16.1 15.7,16.1 9.7,16.1 	"/>
</g>
</svg>
