<?xml version="1.0" encoding="utf-8"?>
<!-- Generator: Adobe Illustrator 18.0.0, SVG Export Plug-In . SVG Version: 6.00 Build 0)  -->
<!DOCTYPE svg PUBLIC "-//W3C//DTD SVG 1.0//EN" "http://www.w3.org/TR/2001/REC-SVG-20010904/DTD/svg10.dtd">
<svg version="1.0" id="Layer_1" xmlns="http://www.w3.org/2000/svg" xmlns:xlink="http://www.w3.org/1999/xlink" x="0px" y="0px"
	 width="30px" height="30px" viewBox="0 0 30 30" enable-background="new 0 0 30 30" xml:space="preserve">
<g>
	<g id="Layer_2_31_">
		<g>
			<path fill="#F6F8FB" d="M20.2,22.3l-4.7-4.7L9,24.1l4.7,4.7l0,0c1.8,1.7,4.6,1.6,6.4-0.1S21.9,24.1,20.2,22.3L20.2,22.3z"/>
			<path fill="#EF6070" d="M10.8,12.8L10.8,12.8C9,11.2,6.2,11.2,4.4,13c-1.8,1.8-1.8,4.6-0.1,6.4l0,0L9,24.1l6.5-6.5L10.8,12.8z"/>
			<path fill="#F6F8FB" d="M16.3,1.2L16.3,1.2c-1.8-1.7-4.6-1.6-6.4,0.1S8.1,5.9,9.8,7.7l0,0l4.7,4.7L21,5.9L16.3,1.2z"/>
			<path fill="#EF6070" d="M25.7,10.6L25.7,10.6L21,5.9l-6.5,6.5l4.7,4.7l0,0c1.8,1.7,4.6,1.6,6.4-0.1S27.4,12.5,25.7,10.6z"/>
		</g>
	</g>
</g>
</svg>
