<?xml version="1.0" encoding="utf-8"?>
<!-- Generator: Adobe Illustrator 18.0.0, SVG Export Plug-In . SVG Version: 6.00 Build 0)  -->
<!DOCTYPE svg PUBLIC "-//W3C//DTD SVG 1.0//EN" "http://www.w3.org/TR/2001/REC-SVG-20010904/DTD/svg10.dtd">
<svg version="1.0" id="Layer_1" xmlns="http://www.w3.org/2000/svg" xmlns:xlink="http://www.w3.org/1999/xlink" x="0px" y="0px"
	 width="30px" height="30px" viewBox="0 0 30 30" enable-background="new 0 0 30 30" xml:space="preserve">
<g id="XMLID_1642_">
	<polygon id="XMLID_1643_" fill="#5A8BB0" points="23.9,27.2 24.8,25.8 23.9,24.4 21.1,24.4 21.1,27.2 	"/>
	<path id="XMLID_1644_" fill="#FFD6A0" d="M13.6,21.6V2.3c0-1.3-1-2.3-2.3-2.3S8.9,1,8.9,2.3C8.9,1,7.9,0,6.6,0S4.2,1,4.2,2.3v11.7
		l1.9,4.7v2.8h3.8H13.6z"/>
	<polygon id="XMLID_1645_" fill="#FFD6A0" points="9.8,24.4 6.1,24.4 6.1,30 13.6,30 13.6,24.4 	"/>
	<path id="XMLID_1646_" fill="#FFC170" d="M17.3,21.6h3.8v-2.8l4.7-3.8V7c0-1.3-1-2.3-2.3-2.3c-0.2,0-0.3,0-0.5,0V2.3
		C23,1,21.9,0,20.6,0s-2.3,1-2.3,2.3c0-1.3-1-2.3-2.3-2.3s-2.3,1-2.3,2.3v19.2H17.3z"/>
	<polygon id="XMLID_1647_" fill="#FFC170" points="13.6,24.4 13.6,30 21.1,30 21.1,27.2 21.1,24.4 17.3,24.4 	"/>
	<rect id="XMLID_1648_" x="6.1" y="21.6" fill="#78B9EB" width="3.8" height="2.8"/>
	<rect id="XMLID_1649_" x="17.3" y="21.6" fill="#5A8BB0" width="3.8" height="2.8"/>
	<polygon id="XMLID_1650_" fill="#FFFFFF" points="9.8,21.6 9.8,24.4 13.6,24.4 17.3,24.4 17.3,21.6 13.6,21.6 	"/>
</g>
</svg>
