<?xml version="1.0" encoding="utf-8"?>
<!-- Generator: Adobe Illustrator 18.0.0, SVG Export Plug-In . SVG Version: 6.00 Build 0)  -->
<!DOCTYPE svg PUBLIC "-//W3C//DTD SVG 1.0//EN" "http://www.w3.org/TR/2001/REC-SVG-20010904/DTD/svg10.dtd">
<svg version="1.0" id="Layer_1" xmlns="http://www.w3.org/2000/svg" xmlns:xlink="http://www.w3.org/1999/xlink" x="0px" y="0px"
	 width="30px" height="30px" viewBox="0 0 30 30" enable-background="new 0 0 30 30" xml:space="preserve">
<g>
	<path fill="#5162B2" d="M11.2,9.4v3.3h0l-2.6,2V9.4c0-0.4,0.3-0.7,0.7-0.7h1.3C10.9,8.8,11.2,9.1,11.2,9.4z"/>
	<path fill="#5162B2" d="M21.5,9.4v4.9l-2.6-2v-1.3V9.4c0-0.4,0.3-0.7,0.7-0.7h1.3C21.2,8.8,21.5,9.1,21.5,9.4z"/>
	<path fill="#5494E0" d="M29.5,19.2l-8.1-6.1l-2.6-2l-1.3-1v-6c0-0.7-0.2-1.4-0.6-2c-0.3-0.5-0.7-0.8-1.2-1.1c0,0,0,0,0,0
		c-0.1,0-0.1-0.1-0.2-0.1c0,0,0,0,0,0c-0.1,0-0.1-0.1-0.2-0.1c-0.1,0-0.2-0.1-0.3-0.1s-0.2,0-0.3,0.1c-1.4,0.5-2.2,1.8-2.2,3.3v6h0
		l-1.3,1l0,0l-0.5,0.4l-2.2,1.6l-8.1,6.1c-0.1,0.1-0.3,0.3-0.3,0.4C0,19.8,0,19.9,0,20.1c0,0.7,0.6,1.3,1.4,1.2l9.6-1.3l1.8-0.2h0
		c0.1,1.2,0.3,2.4,0.6,3.6l-4,3.1c-0.3,0.2-0.5,0.6-0.5,1c0,0.7,0.6,1.2,1.2,1.2c0.1,0,0.3,0,0.4-0.1l3.9-1.3c0,0,0,0,0,0
		c0,0,0,0,0,0c0.2,0.7,0.5,1.3,0.7,2c0.3-0.6,0.5-1.3,0.7-2c0,0,0,0,0,0c0,0,0,0,0,0l3.9,1.3c0.1,0,0.3,0.1,0.4,0.1
		c0.6,0,1.2-0.5,1.2-1.2c0-0.4-0.2-0.7-0.5-1l-4-3.1c0.3-1.2,0.4-2.4,0.6-3.6l11.3,1.6c0.1,0,0.1,0,0.2,0c0.6,0,1.2-0.5,1.2-1.2
		C30,19.8,29.8,19.4,29.5,19.2z"/>
	<path fill="#5162B2" d="M20.7,26.5l-4-3.1c-0.2,0.9-0.4,1.9-0.7,2.8c-0.3-0.9-0.5-1.9-0.7-2.8c-0.3-1.2-0.4-2.4-0.6-3.6
		c-0.1-1.2-0.2-2.4-0.2-3.6v-6v-6c0-1.2,0.6-2.2,1.5-2.9c-0.2-0.2-0.5-0.3-0.8-0.4c-0.1,0-0.2-0.1-0.3-0.1s-0.2,0-0.3,0.1
		c-1.4,0.5-2.2,1.8-2.2,3.3v6h0l-1.3,1l0,0l-0.5,0.4v4.7c0,1.2,0.1,2.4,0.2,3.6c0,0.1,0,0.2,0,0.2l1.8-0.2h0
		c0.1,1.2,0.3,2.4,0.6,3.6l-4,3.1c-0.3,0.2-0.5,0.6-0.5,1c0,0.7,0.6,1.2,1.2,1.2c0.1,0,0.3,0,0.4-0.1l3.9-1.3v0v0
		c0.2,0.7,0.5,1.3,0.7,2c0.3-0.7,0.5-1.3,0.7-2l3.9,1.3c0.1,0,0.3,0.1,0.4,0.1c0.6,0,1.2-0.5,1.2-1.2C21.2,27.1,21,26.7,20.7,26.5z"
		/>
	<path fill="#4D4D4D" d="M16.1,4.2c-0.1,0-0.2,0-0.2-0.1c-0.5-0.5-1.3-0.5-1.8,0c-0.1,0.1-0.4,0.1-0.5,0c-0.1-0.1-0.1-0.4,0-0.5
		c0.8-0.8,2-0.8,2.8,0c0.1,0.1,0.1,0.4,0,0.5C16.3,4.2,16.2,4.2,16.1,4.2z"/>
</g>
</svg>
