<?xml version="1.0" encoding="utf-8"?>
<!-- Generator: Adobe Illustrator 18.0.0, SVG Export Plug-In . SVG Version: 6.00 Build 0)  -->
<!DOCTYPE svg PUBLIC "-//W3C//DTD SVG 1.0//EN" "http://www.w3.org/TR/2001/REC-SVG-20010904/DTD/svg10.dtd">
<svg version="1.0" id="Layer_1" xmlns="http://www.w3.org/2000/svg" xmlns:xlink="http://www.w3.org/1999/xlink" x="0px" y="0px"
	 width="30px" height="30px" viewBox="0 0 30 30" enable-background="new 0 0 30 30" xml:space="preserve">
<g>
	<path fill="#464655" d="M2.6,18.6v0.5c0,2,7.6,4.7,12.4,4.7s12.4-2.7,12.4-4.7v-0.5H2.6z"/>
	<polygon fill="#5162B2" points="26.9,8.8 15,6.2 3.1,8.8 0,12.4 2.6,17.1 15,17.1 27.4,17.1 30,12.4 	"/>
	<polygon fill="#4B5F91" points="3.1,8.8 0,12.4 2.6,17.1 15,17.1 15,6.2 	"/>
	<rect x="2.6" y="17.1" fill="#707487" width="24.8" height="2.1"/>
	<path fill="#5B5D6E" d="M27.4,17.6H2.6c-0.3,0-0.5-0.2-0.5-0.5l0,0c0-0.3,0.2-0.5,0.5-0.5h24.8c0.3,0,0.5,0.2,0.5,0.5l0,0
		C27.9,17.4,27.7,17.6,27.4,17.6z"/>
	<path fill="#FFD45E" d="M15,15L15,15c-1.4,0-2.6-1.2-2.6-2.6v-2.1c0-0.3,0.2-0.5,0.5-0.5h4.1c0.3,0,0.5,0.2,0.5,0.5v2.1
		C17.6,13.8,16.4,15,15,15z"/>
	<path fill="#FFC36E" d="M12.9,9.8c-0.3,0-0.5,0.2-0.5,0.5v2.1c0,1.4,1.2,2.6,2.6,2.6V9.8H12.9z"/>
</g>
</svg>
