<?xml version="1.0" encoding="utf-8"?>
<!-- Generator: Adobe Illustrator 18.0.0, SVG Export Plug-In . SVG Version: 6.00 Build 0)  -->
<!DOCTYPE svg PUBLIC "-//W3C//DTD SVG 1.0//EN" "http://www.w3.org/TR/2001/REC-SVG-20010904/DTD/svg10.dtd">
<svg version="1.0" id="Layer_1" xmlns="http://www.w3.org/2000/svg" xmlns:xlink="http://www.w3.org/1999/xlink" x="0px" y="0px"
	 width="30px" height="30px" viewBox="0 0 30 30" enable-background="new 0 0 30 30" xml:space="preserve">
<g>
	<g>
		<path fill="#F9BDB3" d="M2.4,12.9c0,0-0.6-0.1-0.5-0.8c0.1-0.7,0.5-0.6,0.7-0.9c0.2-0.3,0.4-0.8,1.2-0.8c0,0-0.1-0.8,0.3-1.2
			C4.4,9,4.7,9,5,8.7c0.3-0.3,0.4-0.6,0.8-0.7C6.2,7.8,6.8,8,6.8,8s0.1-0.4,0.5-0.7C7.7,7.1,8,7.4,8.4,7c0.4-0.4,1.1-1,1.8-1.1
			C10.9,5.9,11,6.2,11,6.2s0.3-0.4,1.2-0.6C13,5.4,13.7,5.2,14,5.5c0,0,0.4-0.4,0.9-0.5c0.4-0.1,0.7,0.2,1.1,0.1
			c0.4-0.1,0.8-0.4,1.6,0c0,0,0.6-0.3,1.5-0.1c1,0.2,0.9,0.9,0.9,0.9s1.1-0.4,2.1,0.3c1,0.7,0.8,1.3,0.8,1.3s1.3,0,2.1,0.7
			c0.8,0.7,0.8,1.2,0.8,1.2s0.7-0.2,1.2,0.3c0.5,0.5,1,2,1,2.5c0,0,0.5-0.2,0.8,0.3c0.2,0.5,0.5,1.7,0.3,2.5
			c-0.2,0.8-0.4,0.7-0.4,0.7s0.3,1-0.3,1.5s-1,0.6-1,0.6s0.6,0.7,0.4,1.8c-0.2,1.2-0.9,1.5-1.7,1.9c-0.8,0.4-1.9,1-3.1,1
			c-1.2,0.1-3.7-0.7-3.7-0.7s1.1,2.3,1.3,2.8c0,0-0.7,0.7-1.4,0.6c-0.7-0.1-1.8-1.6-2.1-1.9c-0.3-0.3-0.5-0.4-0.8-0.8
			c-0.2-0.4-0.7-0.5-0.8-0.8c-0.1-0.2-0.1-0.4-0.3-0.4s-0.8-0.1-0.9-0.2c0,0-0.2,0.5-0.5,0.4c-0.3,0-0.5-0.4-1-0.3
			c-0.5,0.1-0.8,0.6-1.6,0.4c-0.8-0.2-2.4-0.8-2.6-2.6c0,0-0.7,0-0.9-0.1c-0.2-0.1-0.4-0.3-0.8-0.2c-0.4,0.1-1.6,0.8-2.4-0.1
			c0,0-0.5,0.5-1,0.3c-0.6-0.1-0.6-0.6-1-0.7c-0.4-0.1-1.8-1.1-1.2-2.5c0,0-0.4,0-0.2-0.9C1.2,13.9,1.5,13.5,2.4,12.9z"/>
		<path fill="#F99CA7" d="M19.2,25.4c-0.1,0-0.2,0-0.2,0c-0.6-0.1-1.2-0.8-1.8-1.6c-0.1-0.2-0.3-0.3-0.3-0.4
			c-0.1-0.1-0.2-0.1-0.2-0.2c-0.2-0.2-0.4-0.3-0.6-0.6c-0.1-0.2-0.3-0.3-0.4-0.4c-0.2-0.1-0.4-0.3-0.4-0.4c0-0.1-0.1-0.2-0.1-0.2
			l-0.1,0c-0.3,0-0.5-0.1-0.6-0.1c-0.1,0.2-0.3,0.3-0.5,0.3c0,0-0.1,0-0.1,0c-0.1,0-0.2-0.1-0.3-0.1c-0.2-0.1-0.4-0.2-0.6-0.1
			c-0.1,0-0.3,0.1-0.4,0.2c-0.3,0.2-0.8,0.4-1.4,0.2c-0.6-0.1-2.4-0.7-2.7-2.6c-0.3,0-0.7-0.1-0.8-0.2C7.3,18.9,7.2,18.9,7,19
			c0,0-0.1,0-0.2,0.1c-0.3,0.1-0.7,0.3-1.2,0.3c-0.4,0-0.8-0.1-1.1-0.4c-0.2,0.2-0.7,0.4-1.1,0.3c-0.4-0.1-0.6-0.3-0.8-0.5
			c-0.1-0.1-0.2-0.2-0.3-0.2c-0.3-0.1-1-0.6-1.3-1.3c-0.2-0.4-0.2-0.9-0.1-1.3c0,0,0,0-0.1-0.1c-0.2-0.2-0.2-0.6-0.1-1
			c0.2-0.9,0.4-1.3,1.1-1.8c-0.2-0.2-0.3-0.5-0.2-0.9c0.1-0.6,0.4-0.7,0.6-0.8c0.1,0,0.1-0.1,0.2-0.1l0-0.1c0.2-0.3,0.5-0.7,1.1-0.8
			c0-0.3,0-0.8,0.4-1.1C4.1,9,4.3,8.9,4.4,8.8s0.3-0.1,0.4-0.3C4.9,8.5,4.9,8.4,5,8.3c0.2-0.2,0.4-0.5,0.8-0.6
			c0.3-0.1,0.6-0.1,0.9,0c0.1-0.2,0.3-0.4,0.6-0.6C7.4,7,7.5,7,7.7,7l0.2,0c0.1,0,0.2,0,0.4-0.1l0.1-0.1c0.5-0.4,1.1-1,1.8-1.1
			c0.4,0,0.7,0.1,0.9,0.2c0.2-0.1,0.5-0.4,1.1-0.5C13,5.2,13.6,5,14,5.2c0.2-0.2,0.5-0.4,0.9-0.4c0.3,0,0.5,0,0.7,0.1
			c0.1,0,0.3,0.1,0.4,0.1c0.1,0,0.2,0,0.3-0.1c0.4-0.1,0.8-0.2,1.4,0c0.2-0.1,0.5-0.2,0.9-0.2c0.2,0,0.4,0,0.7,0.1
			c0.7,0.1,0.9,0.5,1,0.8c0.1,0,0.3,0,0.5,0c0.6,0,1.1,0.2,1.5,0.5c0.7,0.5,0.9,0.9,0.9,1.2c0.5,0,1.4,0.2,2,0.7
			c0.5,0.5,0.7,0.9,0.8,1.2c0.3,0,0.8,0.1,1.1,0.5c0.4,0.5,0.9,1.7,1,2.3c0.3,0,0.6,0.1,0.8,0.4c0.2,0.5,0.6,1.8,0.3,2.7
			c-0.1,0.3-0.2,0.6-0.4,0.8c0.1,0.4,0.1,1.1-0.4,1.6c-0.3,0.3-0.5,0.4-0.8,0.5c0.2,0.3,0.4,0.9,0.3,1.7c-0.2,1.2-0.9,1.6-1.7,2
			l-0.1,0.1c-1,0.5-2,1-3.2,1c-0.9,0-2.5-0.4-3.3-0.6c0.3,0.7,0.9,1.9,1,2.3c0,0.1,0,0.2-0.1,0.3C20.7,24.7,20,25.4,19.2,25.4z
			 M14.3,20.8c0.1,0,0.1,0,0.2,0.1c0.1,0,0.5,0.1,0.6,0.1l0.1,0c0.3,0.1,0.4,0.3,0.5,0.6c0,0,0.1,0.1,0.2,0.2
			c0.2,0.1,0.4,0.3,0.6,0.5c0.2,0.2,0.3,0.4,0.5,0.5c0.1,0.1,0.2,0.1,0.2,0.2c0.1,0.1,0.2,0.2,0.4,0.4c0.4,0.5,1.1,1.3,1.6,1.4
			c0.4,0.1,0.9-0.2,1.1-0.4c-0.3-0.7-1.2-2.6-1.2-2.6c0-0.1,0-0.2,0-0.3c0.1-0.1,0.2-0.1,0.3-0.1c0,0,2.4,0.7,3.5,0.7l0.1,0
			c1.1-0.1,2.1-0.5,3-1l0.1-0.1c0.8-0.4,1.3-0.7,1.5-1.7c0.2-1-0.4-1.6-0.4-1.6c-0.1-0.1-0.1-0.2-0.1-0.2c0-0.1,0.1-0.2,0.2-0.2
			c0,0,0.4-0.1,0.8-0.5c0.3-0.3,0.2-1,0.2-1.3c0-0.1,0-0.2,0.1-0.3c0,0,0.1,0,0.1-0.1c0,0,0.1-0.2,0.2-0.5c0.2-0.7-0.1-1.9-0.3-2.3
			c-0.1-0.1-0.1-0.2-0.3-0.2c-0.1,0-0.2,0-0.2,0c-0.1,0-0.2,0-0.2,0s-0.1-0.1-0.1-0.2c0-0.4-0.5-1.8-0.9-2.3
			c-0.4-0.4-0.9-0.3-0.9-0.3c-0.1,0-0.2,0-0.2-0.1c-0.1-0.1-0.1-0.1-0.1-0.2l0,0c0,0,0-0.4-0.7-1c-0.7-0.6-1.8-0.6-1.9-0.6
			c-0.1,0-0.2,0-0.2-0.1c0-0.1-0.1-0.1,0-0.2l0,0c0,0,0.1-0.4-0.7-1C21.6,6.1,21.2,6,20.7,6c-0.4,0-0.6,0.1-0.6,0.1
			c-0.1,0-0.2,0-0.2,0c-0.1-0.1-0.1-0.1-0.1-0.2c0,0,0-0.4-0.7-0.6c-0.2,0-0.4-0.1-0.6-0.1c-0.5,0-0.8,0.2-0.8,0.2
			c-0.1,0-0.2,0-0.2,0c-0.4-0.2-0.8-0.1-1.1,0c-0.1,0-0.2,0.1-0.4,0.1c-0.3,0-0.5,0-0.6-0.1c-0.1,0-0.3-0.1-0.4-0.1
			c-0.3,0-0.6,0.3-0.7,0.4c-0.1,0.1-0.2,0.1-0.3,0c-0.3-0.2-0.9,0-1.6,0.2c-0.7,0.2-1,0.5-1,0.5c-0.1,0.1-0.1,0.1-0.2,0.1
			c-0.1,0-0.1-0.1-0.2-0.1l0,0c0,0-0.1-0.2-0.6-0.2c-0.5,0-1.2,0.6-1.5,1L8.6,7.2C8.4,7.5,8.1,7.5,7.9,7.5l-0.2,0
			c-0.1,0-0.2,0-0.3,0.1C7.1,7.7,7,8.1,7,8.1c0,0.1-0.1,0.1-0.1,0.2s-0.1,0-0.2,0c0,0-0.5-0.1-0.8-0.1C5.7,8.3,5.5,8.4,5.4,8.6
			C5.3,8.7,5.2,8.8,5.2,8.8C5,9,4.8,9.1,4.7,9.2C4.5,9.3,4.4,9.4,4.2,9.5C4,9.7,4,10.2,4.1,10.4c0,0.1,0,0.1-0.1,0.2
			c0,0.1-0.1,0.1-0.2,0.1c-0.6,0-0.8,0.3-0.9,0.6l0,0.1c-0.1,0.2-0.2,0.2-0.3,0.3c-0.2,0.1-0.3,0.2-0.3,0.5
			c-0.1,0.4,0.2,0.5,0.3,0.5c0.1,0,0.2,0.1,0.2,0.2c0,0.1,0,0.2-0.1,0.3c-0.8,0.5-1.1,0.9-1.2,1.7c-0.1,0.5,0,0.6,0,0.7
			c0.1,0,0.1,0.1,0.2,0.1c0,0.1,0,0.2,0,0.2c-0.2,0.4-0.2,0.7,0,1.1c0.2,0.6,0.8,1,1,1c0.2,0.1,0.4,0.2,0.5,0.3
			c0.1,0.2,0.3,0.3,0.5,0.3c0.4,0.1,0.8-0.3,0.8-0.3c0,0,0.1-0.1,0.2-0.1c0.1,0,0.1,0,0.2,0.1c0.2,0.3,0.5,0.4,0.9,0.4
			c0.4,0,0.8-0.2,1.1-0.3c0.1,0,0.1-0.1,0.2-0.1c0.4-0.1,0.7,0,0.9,0.2c0.1,0.1,0.5,0.1,0.8,0.1c0.1,0,0.2,0.1,0.2,0.2
			c0.1,1.6,1.7,2.2,2.4,2.3c0.4,0.1,0.7,0,1-0.2c0.2-0.1,0.3-0.2,0.5-0.2c0.4-0.1,0.8,0.1,1,0.2c0.1,0,0.1,0.1,0.2,0.1
			c0,0,0.1-0.2,0.2-0.3C14.1,20.9,14.1,20.8,14.3,20.8C14.2,20.8,14.3,20.8,14.3,20.8z"/>
	</g>
	<path fill="#F99CA7" d="M2.4,13.2c-0.1,0-0.2-0.1-0.2-0.2c0-0.1,0.1-0.3,0.2-0.3c0.5,0,1-0.2,1-0.3c0-0.1,0.2-0.2,0.3-0.2
		c0.1,0,0.2,0.2,0.2,0.3C3.8,13.1,2.6,13.2,2.4,13.2C2.4,13.2,2.4,13.2,2.4,13.2z"/>
	<path fill="#F99CA7" d="M3.2,14C3.1,14,3,13.9,3,13.8c0-0.1,0.1-0.3,0.2-0.3c1.9-0.3,1.8-1.7,1.8-1.9c-0.1-0.5-0.9-0.8-1.2-0.9
		c-0.1,0-0.2-0.2-0.2-0.3s0.2-0.2,0.3-0.2c0.1,0,1.4,0.4,1.6,1.3C5.5,12.3,5.2,13.7,3.2,14C3.2,14,3.2,14,3.2,14z"/>
	<path fill="#F99CA7" d="M5.2,11.8C5.2,11.8,5.2,11.8,5.2,11.8c-0.2,0-0.3-0.1-0.2-0.3c0-0.2,0.3-0.7,0.9-0.7c0.2,0,0.3,0.1,0.3,0.2
		c0,0.1-0.1,0.3-0.2,0.3c-0.4,0-0.4,0.3-0.5,0.3C5.4,11.7,5.3,11.8,5.2,11.8z"/>
	<path fill="#F99CA7" d="M1.6,16c-0.2,0-0.3,0-0.4,0C1.1,16,1,15.9,1,15.7c0-0.1,0.2-0.2,0.3-0.2c0.2,0,0.6,0.1,0.9-0.1
		c0.8-0.6,1.3-0.4,1.6-0.1c0.1,0.1,0.1,0.3,0,0.4c-0.1,0.1-0.3,0.1-0.4,0c-0.2-0.2-0.5-0.1-0.9,0.2C2.2,16,1.9,16,1.6,16z"/>
	<path fill="#F99CA7" d="M4.5,18.8C4.5,18.8,4.4,18.8,4.5,18.8c-0.2-0.1-0.3-0.2-0.2-0.3c0.1-0.3,0-0.3-0.2-0.5
		C4,18,3.9,18,3.8,17.9c-0.3-0.1-0.7-0.3-0.6-0.8c0-0.1,0.2-0.2,0.3-0.2c0.1,0,0.2,0.2,0.2,0.3c0,0.1,0.3,0.2,0.4,0.2
		c0.1,0,0.1,0.1,0.2,0.1c0.3,0.2,0.7,0.4,0.5,1.1C4.7,18.8,4.6,18.8,4.5,18.8z"/>
	<path fill="#F99CA7" d="M8.6,19.3c-0.1,0-0.2-0.1-0.2-0.2c-0.1-0.7,0.4-1.4,1.5-1.9c0.7-0.3,1.7-0.4,2.5-0.5c0.5,0,0.9-0.1,1.1-0.2
		c0.2-0.1,0.4-0.2,0.7-0.2c0.4-0.2,0.9-0.3,1.4-0.5c0.3-0.1,0.5-0.1,0.8-0.1c0.4-0.1,0.9-0.1,1.4-0.3c0.9-0.4,1.7-1,1.8-1.2
		c0.2-0.4,0.4-0.7,1.1-0.7c0.1,0,0.2,0.1,0.2,0.3s-0.1,0.2-0.3,0.2c-0.4,0-0.5,0.1-0.7,0.4c-0.2,0.4-1.2,1.1-2.1,1.5
		c-0.6,0.2-1.1,0.3-1.6,0.3c-0.2,0-0.5,0.1-0.7,0.1c-0.4,0.1-0.9,0.3-1.3,0.4c-0.2,0.1-0.5,0.2-0.7,0.3c-0.3,0.1-0.7,0.1-1.2,0.2
		c-0.8,0.1-1.7,0.2-2.4,0.5c-1,0.5-1.3,1-1.2,1.4C8.8,19.1,8.8,19.2,8.6,19.3C8.6,19.3,8.6,19.3,8.6,19.3z"/>
	<path fill="#F99CA7" d="M12.2,20.3c-0.1,0-0.1,0-0.1,0c-0.2-0.1-0.5-0.3-0.4-0.7c0.2-0.9,1.7-1.2,1.9-1.2c0.5-0.1,1.2-0.2,1.8-0.5
		c0.4-0.2,0.7-0.2,1.3-0.2c0.5,0,1.1-0.1,2-0.2c1.7-0.3,2.9-0.9,3.6-1.7c0.5-0.6-0.2-1.3-0.2-1.3c-0.1-0.1-0.1-0.3,0-0.4
		c0.1-0.1,0.3-0.1,0.4,0c0.4,0.3,0.9,1.2,0.3,2c-0.8,1-2,1.6-3.9,1.9c-0.9,0.2-1.6,0.2-2,0.2c-0.5,0-0.8,0.1-1.1,0.2
		c-0.6,0.3-1.4,0.5-1.9,0.6c-0.6,0.1-1.4,0.4-1.5,0.8c0,0.1,0,0.1,0,0.1c0.1,0,0.2,0,0.2-0.1c0-0.1,0.2-0.2,0.3-0.2
		c0.1,0,0.2,0.2,0.2,0.3C12.8,20.1,12.4,20.3,12.2,20.3z"/>
	<path fill="#F99CA7" d="M10.6,17.4c-0.1,0-0.2-0.1-0.2-0.2c0-0.1,0.1-0.3,0.2-0.3c1.1-0.1,2.3-0.5,2.5-0.8c0.3-0.5,0.2-0.9,0.2-1.5
		l0-0.1c0-0.2-0.1-0.4-0.2-0.6c-0.1-0.4-0.3-0.8-0.2-1.4c0.1-0.7,0.6-0.9,0.9-1.1c0.1-0.1,0.3-0.2,0.3-0.2c0-0.1,0.1-0.2,0.1-0.3
		c0.1-0.3,0.2-0.7,0.9-1.1c0.1-0.1,0.3,0,0.3,0.1c0.1,0.1,0,0.3-0.1,0.3c-0.5,0.3-0.5,0.5-0.6,0.8c0,0.1-0.1,0.2-0.1,0.3
		c-0.1,0.2-0.3,0.3-0.5,0.4c-0.3,0.2-0.6,0.3-0.7,0.8c-0.1,0.5,0,0.8,0.2,1.1c0.1,0.2,0.2,0.4,0.2,0.7l0,0.1
		c0.1,0.6,0.1,1.1-0.2,1.8C13.2,17,11.2,17.3,10.6,17.4C10.6,17.4,10.6,17.4,10.6,17.4z"/>
	<path fill="#F99CA7" d="M14.5,16.4c-0.1,0-0.2,0-0.3,0c-0.4-0.1-0.6-0.2-0.8-0.4c-0.2-0.3-0.2-0.6-0.1-0.6c0-0.1,0.1-0.2,0.3-0.2
		c0.1,0,0.2,0.2,0.2,0.3c0,0.1,0,0.4,0.5,0.4c0.4,0.1,1-0.1,1.3-0.4c0.1-0.1,0.3-0.3,0.3-0.6c0-0.2,0-0.5-0.1-0.7
		c-0.1-0.4-0.2-0.7-0.1-1.1c0.2-0.5,0.4-1.1,1-1.6c0.1-0.1,0.1-0.3,0.1-0.5c0-0.4,0-1.1,0.8-1.5c0.1-0.1,0.3,0,0.3,0.1
		c0.1,0.1,0,0.3-0.1,0.3c-0.6,0.3-0.6,0.6-0.6,1c0,0.3,0,0.7-0.3,0.9c-0.5,0.5-0.7,1-0.8,1.4c-0.1,0.2,0,0.5,0.1,0.8
		c0.1,0.3,0.1,0.5,0.1,0.8c0,0.4-0.2,0.7-0.5,1C15.5,16.2,15,16.4,14.5,16.4z"/>
	<path fill="#F99CA7" d="M9.2,10.1c-0.2,0-0.4,0-0.7-0.1C8.3,9.9,8,9.7,7.7,9.4c0,0.1-0.1,0.2-0.2,0.3c-0.1,0.1-0.3,0.1-0.4,0
		C7,9.6,7.1,9.5,7.2,9.4c0.1-0.1-0.1-0.5-0.3-0.9C6.7,8.3,6.6,8.2,6.6,8.1C6.5,8,6.5,7.9,6.6,7.8c0.1-0.1,0.3-0.1,0.3,0
		C7,7.9,7.1,8,7.2,8.2c0.4,0.5,1.1,1.2,1.5,1.4c0.3,0.1,0.6,0.1,0.8,0c0.1-0.1,0.2-0.1,0.2-0.2l0-0.2c0.1-0.4,0.1-1.1,0.6-1.5
		c0.4-0.3,0.4-0.9,0.4-0.9c0-0.1,0.1-0.3,0.2-0.3c0,0,0,0,0,0c0.1,0,0.2,0.1,0.2,0.2c0,0,0,0.8-0.5,1.3c-0.3,0.3-0.4,0.8-0.5,1.2
		l0,0.2c0,0.3-0.2,0.5-0.4,0.6C9.6,10.1,9.4,10.1,9.2,10.1z"/>
	<path fill="#F99CA7" d="M12.3,11.5c-0.1,0-0.1,0-0.2-0.1c0,0-0.8-1-0.6-1.9C11.7,9,12.4,8.4,13,7.9c0.4-0.3,0.7-0.6,0.9-0.8
		c0.4-0.5,0-1.5,0-1.5c-0.1-0.1,0-0.3,0.1-0.3c0.1-0.1,0.3,0,0.3,0.1c0,0,0.6,1.2,0,2c-0.2,0.3-0.6,0.6-0.9,0.9
		c-0.5,0.5-1.2,1-1.3,1.4c-0.2,0.7,0.5,1.4,0.5,1.4c0.1,0.1,0.1,0.3,0,0.4C12.5,11.5,12.4,11.5,12.3,11.5z"/>
	<path fill="#F99CA7" d="M10.2,15.5c-0.2,0-0.4,0-0.6-0.1c-0.1,0-0.2-0.2-0.2-0.3c0-0.1,0.2-0.2,0.3-0.2c0.4,0.1,0.8,0.1,1-0.2
		c0.2-0.2,0.2-0.6,0.1-0.9c-0.4-0.7-0.3-1.5,0.1-2.4c0.5-0.9,0.5-1.9,0.5-1.9c0-0.1,0.1-0.2,0.2-0.2c0,0,0,0,0,0
		c0.1,0,0.2,0.1,0.2,0.3c0,0,0,1.2-0.6,2.2c-0.4,0.7-0.4,1.3-0.1,1.9c0.2,0.4,0.2,1-0.2,1.4C11,15.4,10.6,15.5,10.2,15.5z"/>
	<path fill="#F99CA7" d="M7.8,14.5c-0.1,0-0.2,0-0.3,0c-0.8-0.2-1.3-0.8-1.3-0.8c-0.1-0.1-0.1-0.3,0.1-0.3c0.1-0.1,0.3-0.1,0.3,0.1
		c0,0,0.4,0.5,1,0.7c0.4,0.1,1-0.2,1.4-0.5c-0.2-0.4-0.2-0.9-0.2-1.2c-0.7-0.2-1.2-0.9-1.2-0.9c-0.1-0.1-0.1-0.3,0-0.4
		c0.1-0.1,0.3-0.1,0.4,0c0,0,0.5,0.7,1.2,0.8c0.1,0,0.1,0.1,0.2,0.1c0,0.1,0,0.1,0,0.2c0,0-0.2,0.7,0.2,1.2c0.1,0.1,0.1,0.3,0,0.3
		C9.4,13.9,8.6,14.5,7.8,14.5z"/>
	<path fill="#F99CA7" d="M8.8,17.7C8.8,17.7,8.8,17.7,8.8,17.7c-0.1,0-0.3-0.1-0.2-0.3c0-0.5-0.3-0.7-0.9-0.9
		c-0.3-0.2-0.6-0.3-0.9-0.6c-0.6-0.7-0.1-1.9-0.1-1.9c0.1-0.1,0.2-0.2,0.3-0.1c0.1,0.1,0.2,0.2,0.1,0.3c0,0-0.4,0.9,0,1.4
		c0.2,0.2,0.4,0.3,0.7,0.5c0.5,0.3,1.2,0.6,1.2,1.4C9.1,17.6,9,17.7,8.8,17.7z"/>
	<path fill="#F99CA7" d="M5.1,16.4c-0.1,0-0.2,0-0.2-0.1c0,0-0.2-0.3-0.8-0.4c-0.1,0-0.2-0.2-0.2-0.3c0-0.1,0.2-0.2,0.3-0.2
		c0.8,0.2,1,0.6,1,0.7c0.1,0.1,0,0.3-0.1,0.3C5.2,16.4,5.1,16.4,5.1,16.4z"/>
	<path fill="#F99CA7" d="M4.3,15.9c-0.1,0-0.2-0.1-0.2-0.2c0-0.1-0.3-1.7,0.8-2.1c0.1-0.1,0.3,0,0.3,0.1C5.2,13.8,5.2,14,5,14
		c-0.7,0.3-0.5,1.6-0.5,1.6C4.6,15.7,4.5,15.9,4.3,15.9C4.4,15.9,4.4,15.9,4.3,15.9z"/>
	<path fill="#E27296" d="M4.5,14.4c-0.1,0-0.2-0.1-0.2-0.2c0,0-0.1-0.1-0.2-0.2c-0.1,0-0.2-0.2-0.2-0.3c0-0.1,0.2-0.2,0.3-0.2
		C4.6,13.7,4.7,14,4.8,14C4.8,14.1,4.7,14.3,4.5,14.4C4.6,14.3,4.6,14.4,4.5,14.4z"/>
	<path fill="#F99CA7" d="M9.3,12.5c-0.2,0-0.3-0.1-0.3-0.1c-0.1-0.1-0.2-0.2-0.1-0.3C9,12,9.2,11.9,9.3,12c0,0,0.1,0,0.4-0.1
		c0.1-0.1,0.3,0,0.3,0.1c0.1,0.1,0,0.3-0.1,0.3C9.7,12.4,9.5,12.5,9.3,12.5z"/>
	<path fill="#F99CA7" d="M14.1,21.2c-0.3-0.4-0.2-1-0.2-1.4c0-0.1,0.2-0.2,0.3-0.2c0.1,0,0.2,0.2,0.2,0.3c-0.1,0.4,0,0.8,0.1,1
		L14.1,21.2z"/>
	<path fill="#F99CA7" d="M16.1,22.1c-0.5,0-0.8-0.3-0.8-0.3c-0.1-0.1-0.1-0.3,0-0.4c0.1-0.1,0.2-0.1,0.4,0c0,0,0.4,0.4,1.2,0
		c0.5-0.2,0.5-0.4,0.5-0.5c0-0.1,0-0.3,0.1-0.5c0.1-0.2,0.4-0.3,0.9-0.5c0.4-0.1,0.9-0.4,1-0.6c0.2-0.4,0.1-0.9-0.1-1.1
		c-0.1-0.1-0.1-0.3,0-0.4c0.1-0.1,0.3-0.1,0.4,0c0.4,0.4,0.4,1.1,0.2,1.6c-0.2,0.4-0.7,0.6-1.3,0.8c-0.3,0.1-0.6,0.3-0.7,0.3
		c0,0,0,0.1,0,0.2c0,0.3-0.1,0.6-0.8,1C16.7,22,16.4,22.1,16.1,22.1z"/>
	<path fill="#F99CA7" d="M20.7,19.4c-0.2,0-0.3,0-0.5-0.1c-0.6-0.3-0.6-1.1-0.4-1.5c0-0.1,0.2-0.2,0.3-0.2c0.1,0,0.2,0.2,0.2,0.3
		c0,0-0.2,0.7,0.2,0.9c0.4,0.2,0.7,0,0.9-0.2c0.3-0.3,0.7-0.7,1.2-0.7c1.4-0.2,2.1-0.7,2.1-1.6c0-0.1,0.1-0.2,0.2-0.2
		s0.2,0.1,0.2,0.2c0,0.8-0.4,1.9-2.5,2.1c-0.4,0.1-0.7,0.3-1,0.6C21.4,19.3,21.1,19.4,20.7,19.4z"/>
	<path fill="#F99CA7" d="M26,18.2c-0.4,0-0.9-0.1-1.2-0.3c-0.2-0.1-0.3-0.3-0.3-0.4c-0.1-0.5,0.4-1.2,0.4-1.3
		c0.1-0.1,0.2-0.1,0.3-0.1c0.1,0.1,0.1,0.2,0.1,0.3c-0.1,0.2-0.4,0.6-0.3,0.9c0,0.1,0,0.1,0.1,0.1c0.5,0.3,1.3,0.3,2.1,0
		c0.1-0.1,0.3,0,0.3,0.1c0.1,0.1,0,0.3-0.1,0.3C27,18.1,26.5,18.2,26,18.2z"/>
	<path fill="#F99CA7" d="M27.6,16.5c0,0-0.1,0-0.1,0c-0.1,0-0.5-0.2-0.5-0.6c0-0.1,0-0.3,0.2-0.5c0.4-0.4,1.1-0.2,1.4-0.1
		c0.1,0,0.3,0.1,0.3,0.3c0,0.1-0.1,0.3-0.2,0.3c0,0-0.1,0-0.2,0c-0.2-0.1-0.7-0.2-0.9,0c0,0.1,0.1,0.2,0.2,0.2
		c0.1,0.1,0.2,0.2,0.1,0.3C27.8,16.4,27.7,16.5,27.6,16.5z"/>
	<path fill="#F99CA7" d="M22.4,9.1c-0.1,0-0.2-0.1-0.2-0.2c0-0.2,0-0.4,0-0.6c-0.1,0.1-0.3,0.1-0.4,0.1c-0.1,0-0.3-0.1-0.3-0.2
		c0-0.1,0.1-0.3,0.2-0.3c0.3,0,0.7-0.4,0.9-0.7c0.1-0.1,0.2-0.1,0.3-0.1c0.1,0.1,0.1,0.2,0.1,0.3c-0.1,0.2-0.5,0.9-0.4,1.3
		C22.7,9,22.6,9.1,22.4,9.1C22.5,9.1,22.5,9.1,22.4,9.1z"/>
	<path fill="#F99CA7" d="M25.4,10.7c-0.1,0-0.2-0.1-0.2-0.2c0-0.1,0-0.2,0-0.3c-0.1,0.1-0.2,0.1-0.4,0.1c-0.1,0-0.2-0.1-0.2-0.3
		c0-0.1,0.1-0.2,0.3-0.2c0.2,0,0.5-0.3,0.7-0.6c0.1-0.1,0.2-0.1,0.3-0.1C26,9.2,26,9.3,26,9.4c-0.1,0.3-0.3,0.8-0.3,1
		C25.7,10.6,25.6,10.7,25.4,10.7C25.4,10.7,25.4,10.7,25.4,10.7z"/>
	<path fill="#F99CA7" d="M25.9,14c-0.4,0-0.7-0.1-1-0.4c-0.2-0.2-0.3-0.5-0.3-0.8c0,0,0-0.1,0-0.2c0.1-0.3,0.1-0.6-0.1-0.8
		c-0.2-0.1-0.5-0.1-0.9-0.1c-0.5,0-1.2,0-1.8-0.4c-1-0.6-0.9-2-0.9-2.1C21,9.1,21.1,9,21.2,9c0.1,0,0.2,0.1,0.2,0.3
		c0,0-0.1,1.2,0.7,1.6c0.4,0.3,1,0.3,1.5,0.3c0.5,0,0.9,0,1.2,0.3c0.4,0.4,0.3,0.9,0.3,1.3c0,0.1,0,0.1,0,0.1c0,0.1,0,0.2,0.1,0.4
		c0.2,0.2,0.4,0.3,0.7,0.2c0.5,0,1.2-0.6,1.7-1.5c0.1-0.1,0.2-0.2,0.3-0.1c0.1,0.1,0.2,0.2,0.1,0.3C27.6,13.2,26.7,13.9,25.9,14
		C26,14,25.9,14,25.9,14z"/>
	<path fill="#F99CA7" d="M19.2,9.6c-0.5,0-1-0.1-1.5-0.3c-1.2-0.5-1.4-1-1.5-1.5c0-0.1,0.1-0.3,0.2-0.3c0.1,0,0.3,0,0.3,0.2l0,0.1
		c0.1,0.3,0.1,0.7,1.2,1.1c1.2,0.5,2.7,0,2.7,0c0.1,0,0.3,0,0.3,0.2s0,0.3-0.2,0.3C20.8,9.4,20.1,9.6,19.2,9.6z"/>
	<path fill="#F99CA7" d="M17.5,7c0,0-0.1,0-0.1,0c-0.1-0.1-0.2-0.2-0.1-0.3c0.4-0.7,0.1-1.4,0-1.4c-0.1-0.1,0-0.3,0.1-0.3
		c0.1-0.1,0.3,0,0.3,0.1c0,0,0.5,0.9-0.1,1.9C17.7,6.9,17.6,7,17.5,7z"/>
	<path fill="#F99CA7" d="M19.9,7.4c0,0-0.1,0-0.1,0c-0.1-0.1-0.2-0.2-0.1-0.3c0.1-0.2,0.1-0.8,0.1-1.1c0-0.1,0.1-0.3,0.2-0.3
		c0.1,0,0.3,0.1,0.3,0.2c0,0.2,0.1,1-0.1,1.4C20.1,7.3,20,7.4,19.9,7.4z"/>
	<path fill="#F99CA7" d="M19.5,11.8C19.5,11.8,19.4,11.8,19.5,11.8c-0.2-0.1-0.3-0.2-0.2-0.3c0,0,0,0,0,0c0-0.1,0.1-0.3,0.1-0.6
		c0-0.4-0.2-0.7-0.7-0.8c-0.1,0-0.2-0.2-0.2-0.3c0-0.1,0.2-0.2,0.3-0.2c0.4,0.1,0.7,0.4,0.8,0.7c0,0.1,0.1,0.2,0.1,0.3
		c0.2-0.3,0.6-0.5,1-0.5c0.1,0,0.3,0.1,0.3,0.2c0,0.1-0.1,0.3-0.2,0.3c-0.7,0-1.1,0.9-1.1,1c0,0,0,0,0,0
		C19.7,11.8,19.6,11.8,19.5,11.8z"/>
	<path fill="#F99CA7" d="M19,15.1c-0.1,0-0.2,0-0.2-0.1c-0.1-0.1,0-0.3,0.1-0.3c0.2-0.2,0.3-1.1,0.3-1.9c0-0.1,0.1-0.2,0.2-0.3
		c0.1,0,0.3,0.1,0.3,0.2c0,0.2,0.2,0.8,0.5,0.8c0.1,0,0.2,0.1,0.2,0.3S20.2,14,20,13.9c-0.2,0-0.3-0.1-0.4-0.2
		c0,0.5-0.2,1.1-0.5,1.3C19.1,15.1,19,15.1,19,15.1z"/>
	<path fill="#F99CA7" d="M25.9,15.1c0,0-0.1,0-0.1,0c-0.1-0.1-0.2-0.2-0.1-0.3c0.3-0.7,1-0.9,1.3-1c0-0.3,0-0.7,0.1-0.8
		c0-0.1,0.2-0.2,0.3-0.2c0.1,0,0.2,0.2,0.2,0.3c-0.1,0.3-0.1,0.7,0,0.8c0,0.1,0,0.2,0,0.2c0,0.1-0.1,0.1-0.2,0.1
		c0,0-0.9,0.1-1.2,0.8C26.1,15.1,26,15.1,25.9,15.1z"/>
	<path fill="#F99CA7" d="M25,15.9c-0.1,0-0.2-0.1-0.2-0.2c0-0.3-0.1-0.4-0.2-0.6c-0.1-0.2-0.3-0.5-0.3-1c0-0.6,0.6-1,0.7-1
		c0.1-0.1,0.3,0,0.3,0.1c0.1,0.1,0,0.3-0.1,0.3c-0.1,0.1-0.4,0.3-0.4,0.6c0,0.3,0.1,0.5,0.2,0.7c0.1,0.2,0.3,0.4,0.3,0.8
		C25.2,15.8,25.1,15.9,25,15.9z"/>
	<g>
		<path fill="#E27296" d="M19.2,21.7c0,0-0.3-0.2-1.1-0.4"/>
		<path fill="#F99CA7" d="M19.2,21.9c0,0-0.1,0-0.1,0c0,0-0.3-0.2-1.1-0.4c-0.1,0-0.2-0.2-0.2-0.3c0-0.1,0.2-0.2,0.3-0.2
			c0.8,0.3,1.2,0.4,1.2,0.4c0.1,0.1,0.2,0.2,0.1,0.3C19.4,21.9,19.3,21.9,19.2,21.9z"/>
	</g>
	<path fill="#F99CA7" d="M24.5,20.5C24.4,20.5,24.4,20.5,24.5,20.5c-1.9-0.5-4.4-0.6-4.4-0.6c-0.1,0-0.2-0.1-0.2-0.3
		c0-0.1,0.1-0.2,0.2-0.2c0,0,0,0,0,0c0.1,0,2.6,0,4.5,0.6c0.1,0,0.2,0.2,0.2,0.3C24.7,20.4,24.6,20.5,24.5,20.5z"/>
</g>
</svg>
