<?xml version="1.0" encoding="utf-8"?>
<!-- Generator: Adobe Illustrator 18.0.0, SVG Export Plug-In . SVG Version: 6.00 Build 0)  -->
<!DOCTYPE svg PUBLIC "-//W3C//DTD SVG 1.0//EN" "http://www.w3.org/TR/2001/REC-SVG-20010904/DTD/svg10.dtd">
<svg version="1.0" id="Layer_1" xmlns="http://www.w3.org/2000/svg" xmlns:xlink="http://www.w3.org/1999/xlink" x="0px" y="0px"
	 width="31.7px" height="40.5px" viewBox="0 0 31.7 40.5" enable-background="new 0 0 31.7 40.5" xml:space="preserve">
<g>
	<g opacity="0.6">
		<g opacity="0.8">
			<g>
				<path fill="#FFFFFF" d="M3.1,34.6v3.9H1.2v-10h2.4c1,0,1.8,0.2,2.3,0.7c0.5,0.5,0.7,1.2,0.7,2.2c0,1.3-0.4,2.1-1.3,2.6l1.9,4.4
					h-2l-1.6-3.9H3.1z M3.1,33h0.5c0.4,0,0.8-0.1,0.9-0.4s0.3-0.6,0.3-1.1c0-0.5-0.1-0.9-0.3-1.1c-0.2-0.2-0.5-0.3-0.9-0.3H3.1V33z"
					/>
				<path fill="#FFFFFF" d="M10.9,38.6c-1,0-1.7-0.3-2.3-1c-0.5-0.7-0.8-1.6-0.8-2.9c0-1.3,0.2-2.2,0.7-2.9s1.2-1.1,2.1-1.1
					c0.8,0,1.5,0.3,2,0.9s0.7,1.5,0.7,2.5v1H9.7c0,0.7,0.2,1.2,0.4,1.5s0.6,0.5,1.1,0.5c0.6,0,1.2-0.2,1.8-0.6v1.5
					C12.5,38.4,11.8,38.6,10.9,38.6z M10.7,32.1c-0.3,0-0.5,0.1-0.6,0.4s-0.3,0.7-0.3,1.3h1.8c0-0.6-0.1-1-0.3-1.3
					S10.9,32.1,10.7,32.1z"/>
				<path fill="#FFFFFF" d="M18.7,36.2c0,0.7-0.2,1.3-0.7,1.7c-0.4,0.4-1.1,0.6-1.9,0.6c-0.8,0-1.4-0.1-1.9-0.4v-1.6
					c0.3,0.2,0.5,0.3,0.9,0.4c0.3,0.1,0.6,0.2,0.9,0.2c0.3,0,0.5-0.1,0.6-0.2c0.1-0.1,0.2-0.3,0.2-0.6c0-0.2-0.1-0.4-0.2-0.6
					s-0.4-0.4-0.9-0.6c-0.6-0.3-0.9-0.7-1.2-1c-0.2-0.4-0.4-0.8-0.4-1.3c0-0.6,0.2-1.2,0.7-1.5c0.4-0.4,1.1-0.6,1.8-0.6
					c0.7,0,1.3,0.2,1.9,0.5L18,32.6c-0.5-0.3-0.9-0.4-1.3-0.4c-0.2,0-0.4,0.1-0.5,0.2c-0.1,0.1-0.2,0.3-0.2,0.5
					c0,0.2,0.1,0.4,0.2,0.5c0.1,0.2,0.4,0.4,0.8,0.6c0.5,0.3,0.8,0.5,1,0.7s0.3,0.4,0.4,0.7S18.7,35.9,18.7,36.2z"/>
				<path fill="#FFFFFF" d="M22.6,38.6c-1,0-1.7-0.3-2.3-1c-0.5-0.7-0.8-1.6-0.8-2.9c0-1.3,0.2-2.2,0.7-2.9s1.2-1.1,2.1-1.1
					c0.8,0,1.5,0.3,2,0.9s0.7,1.5,0.7,2.5v1h-3.7c0,0.7,0.2,1.2,0.4,1.5s0.6,0.5,1.1,0.5c0.6,0,1.2-0.2,1.8-0.6v1.5
					C24.1,38.4,23.4,38.6,22.6,38.6z M22.3,32.1c-0.3,0-0.5,0.1-0.6,0.4s-0.3,0.7-0.3,1.3h1.8c0-0.6-0.1-1-0.3-1.3
					S22.6,32.1,22.3,32.1z"/>
				<path fill="#FFFFFF" d="M28.9,37.1c0.3,0,0.5-0.1,0.8-0.2v1.4c-0.3,0.2-0.7,0.3-1.3,0.3c-0.7,0-1.2-0.2-1.5-0.6s-0.5-1-0.5-1.8
					v-3.9h-0.7v-0.8l1-0.7l0.5-1.6h1.2v1.6h1.4v1.4h-1.4v4C28.3,36.8,28.5,37.1,28.9,37.1z"/>
			</g>
		</g>
	</g>
	<path opacity="0.5" fill="#FFFFFF" d="M15.6,1.4c-0.6,0-1,0.4-1,1s0.4,1,1,1c4.7,0,8.6,4,8.6,8.9s-3.9,8.9-8.6,8.9
		c-4.3,0-7.8-3.2-8.5-7.4l1.6,2.8C8.8,16.8,9.2,17,9.5,17c0.2,0,0.3,0,0.5-0.1c0.5-0.3,0.7-0.9,0.4-1.4L7.1,9.6C6.7,9,5.7,9,5.3,9.6
		L2,15.5c-0.3,0.5-0.1,1.1,0.4,1.4c0.5,0.3,1.1,0.1,1.4-0.4L5.1,14c0.8,5.2,5.2,9.1,10.5,9.1c5.9,0,10.6-4.9,10.6-10.9
		S21.4,1.4,15.6,1.4z"/>
</g>
</svg>
