<?xml version="1.0" encoding="utf-8"?>
<!-- Generator: Adobe Illustrator 18.0.0, SVG Export Plug-In . SVG Version: 6.00 Build 0)  -->
<!DOCTYPE svg PUBLIC "-//W3C//DTD SVG 1.0//EN" "http://www.w3.org/TR/2001/REC-SVG-20010904/DTD/svg10.dtd">
<svg version="1.0" id="Layer_1" xmlns="http://www.w3.org/2000/svg" xmlns:xlink="http://www.w3.org/1999/xlink" x="0px" y="0px"
	 width="30px" height="30px" viewBox="0 0 30 30" enable-background="new 0 0 30 30" xml:space="preserve">
<g>
	<polyline fill="#5162B2" points="25.9,30 4.1,30 4.3,22.8 4.9,5.2 25.1,5.2 25.5,17.4 25.9,30 	"/>
	<polyline fill="#5494E0" points="25.1,5.2 12.7,5.2 20.3,30 25.9,30 25.5,18.6 25.5,17.4 25.1,6.8 25.1,5.2 	"/>
	<path fill="#4D4D4D" d="M20.1,8.7L20.1,8.7c-0.4,0-0.6-0.3-0.6-0.6V5.8c0-2.4-1.9-4.4-4.3-4.5c-2.5-0.1-4.5,1.9-4.5,4.4v2.4
		c0,0.4-0.3,0.6-0.6,0.6c-0.4,0-0.6-0.3-0.6-0.6V5.8c0-3.1,2.5-5.7,5.6-5.8c3.2-0.1,5.8,2.5,5.8,5.7v2.4C20.7,8.5,20.4,8.7,20.1,8.7
		z"/>
</g>
</svg>
