<?xml version="1.0" encoding="utf-8"?>
<!-- Generator: Adobe Illustrator 18.0.0, SVG Export Plug-In . SVG Version: 6.00 Build 0)  -->
<!DOCTYPE svg PUBLIC "-//W3C//DTD SVG 1.0//EN" "http://www.w3.org/TR/2001/REC-SVG-20010904/DTD/svg10.dtd">
<svg version="1.0" id="Layer_1" xmlns="http://www.w3.org/2000/svg" xmlns:xlink="http://www.w3.org/1999/xlink" x="0px" y="0px"
	 width="30px" height="30px" viewBox="0 0 30 30" enable-background="new 0 0 30 30" xml:space="preserve">
<g>
	<path fill="#FFD3AE" d="M7.6,3.1v6.5c-0.7,0.9-1,1.9-1.1,3v0c0,0.6,0.1,1.1,0.3,1.7c-0.5-0.1-1-0.2-1.5-0.2V9.8
		c0-0.9-1.3-1.2-0.8-2.3l0,0V3.1c0-0.9,0.7-1.6,1.6-1.6S7.6,2.3,7.6,3.1z"/>
	<path fill="#E5B48F" d="M5.9,4.7V3.1c0-0.6,0.3-1.1,0.8-1.4C6.5,1.6,6.3,1.6,6,1.6c-0.9,0-1.6,0.7-1.6,1.6v1.6v5.7
		c0.1-0.2,0.4,4.7,0.4,3.7c0-0.4,0.7,0.4,1,0.2V4.7z"/>
	<g>
		<path fill="#FFD3AE" d="M25.5,7.6c0.3,1.5-0.8,1.4-0.8,2.3v4.3c-0.5,0-1,0.1-1.5,0.2c0.2-0.5,0.3-1.1,0.3-1.7v0
			c0-1.1-0.4-2.1-1.1-3V3.1c0-0.9,0.7-1.6,1.6-1.6c0.9,0,1.6,0.7,1.6,1.6L25.5,7.6L25.5,7.6z"/>
		<path fill="#FFD3AE" d="M22.4,1.6v8.1c-0.1-0.2-0.3-0.3-0.4-0.5c-0.8-0.8-1.7-1.2-2.7-1.4V1.6C19.3,0.7,20,0,20.9,0
			C21.7,0,22.4,0.7,22.4,1.6z"/>
	</g>
	<g>
		<path fill="#E5B48F" d="M20.7,3.1V1.6c0-0.6,0.3-1.1,0.8-1.4C21.4,0.1,21.1,0,20.9,0c-0.9,0-1.6,0.7-1.6,1.6v1.6v6.5
			c0.1-0.2,0.3-0.3,0.4-0.5c0.3-0.3,0.7-0.6,1-0.8V3.1z"/>
		<path fill="#E5B48F" d="M23.8,4.7V3.1c0-0.6,0.3-1.1,0.8-1.4c-0.2-0.1-0.5-0.2-0.7-0.2c-0.9,0-1.6,0.7-1.6,1.6v1.6v6.5
			c0.1-0.2,1.1,3.2,1.4,3L23.8,4.7L23.8,4.7z"/>
	</g>
	<path fill="#FFD3AE" d="M10.7,1.6v6.2C9.7,7.9,8.8,8.4,8,9.2C7.8,9.3,7.7,9.5,7.6,9.6V1.6C7.6,0.7,8.3,0,9.1,0
		C10,0,10.7,0.7,10.7,1.6z"/>
	<g>
		<path fill="#E5B48F" d="M9,3.1V1.6C9,1,9.4,0.4,9.9,0.2C9.6,0.1,9.4,0,9.1,0C8.3,0,7.6,0.7,7.6,1.6v1.6v6.5C7.7,9.5,7.8,9.3,8,9.2
			c0.3-0.3,0.7-0.6,1-0.8L9,3.1L9,3.1z"/>
		<path fill="#E5B48F" d="M10.7,1.9v5.9C9.7,7.9,8.8,8.4,8,9.2C7.8,9.3,7.7,9.5,7.6,9.6c-0.7,0.9-1,1.9-1.1,3
			c-0.3-0.1-0.7-0.1-1-0.1c-0.1-0.6-0.2-1.3-0.2-2c0-2.4,0.9-4.6,2.3-6.2C8.4,3.3,9.5,2.5,10.7,1.9z"/>
		<path fill="#E5B48F" d="M24.7,10.5c0,0.7-0.1,1.3-0.2,2c-0.3,0-0.7,0-1,0.1c0-1.1-0.4-2.1-1.1-3c-0.1-0.2-0.3-0.3-0.4-0.5
			c-0.8-0.8-1.7-1.2-2.7-1.4V1.9c1.2,0.6,2.3,1.4,3.1,2.4C23.8,6,24.7,8.2,24.7,10.5z"/>
	</g>
	<path fill="#2BA5F7" d="M24.7,12.2c0,0.2,0,0.4,0,0.5c0,0.5-0.1,1-0.2,1.4c-1.3,0-4.9,9.6-4.9,9.6c-1,0.3-3.7,1.6-4.8,1.6
		s-4-1.5-5-1.9l-3.6-1.8c0-3.6,2.7-6-0.8-6.1c-0.1-0.5-0.1-2-0.1-3c0-0.2,0-0.4,0-0.5c0-0.1,0-0.1,0-0.2c0-2.3,0.9-4.3,2.2-5.9
		C7.7,5.9,7.8,5.7,8,5.5c1.4-1.5,3.2-2.5,5.3-2.9c0.6-0.1,1.2-0.2,1.8-0.2c0.6,0,1.2,0.1,1.8,0.2C18.8,3,20.6,4.1,22,5.5
		c0.2,0.2,0.3,0.4,0.5,0.5c1.3,1.6,2.1,3.7,2.2,5.9C24.7,12.1,24.7,12.1,24.7,12.2z"/>
	<path fill="#0F8DD3" d="M17.5,21.6c-0.8,0.2-1.6,0.3-2.5,0.3c-1.1,0-2.1,1.2-3.1,0.8l-1.2-1.4c0-3.6-2.6-5.9-6.2-6
		c-0.1-0.6,0.8-2.5,0.8-3.1c0-5.4,4.3-9.7,9.7-9.7c0.9,0,1.7,0.1,2.5,0.3c-4.2,1.1-7.2,4.9-7.2,9.4C10.2,16.7,13.3,20.5,17.5,21.6z"
		/>
	<path fill="#0569A0" d="M24.7,12h-3.5c0-1.5-0.3-3-0.7-4.3c0.7-0.5,1.4-1,2-1.7l0,0c-0.2-0.2-0.3-0.4-0.5-0.5L22,5.6
		c-0.5,0.6-1.1,1-1.7,1.5c-0.2-0.5-0.4-1-0.6-1.4c-0.8-1.4-1.8-2.5-2.9-3c-0.6-0.1-1.2-0.2-1.8-0.2s-1.2,0.1-1.8,0.2
		c-1.1,0.5-2.1,1.6-2.9,3C10.1,6.1,9.9,6.6,9.7,7C9.1,6.6,8.5,6.1,8,5.6L8,5.5C7.8,5.7,7.7,5.9,7.5,6.1l0,0c0.6,0.6,1.3,1.2,2,1.7
		C9.1,9.1,8.8,10.5,8.8,12H4.9v0.7h3.9c0,1.5,0.3,3,0.7,4.3c-0.7,0.5-1.4,1-2,1.7l-0.2,0.3l0.5,0.5L8,19.1c0.5-0.6,1.1-1,1.7-1.5
		c0.2,0.5,0.4,1,0.6,1.4c1.1,2,2.6,3.2,4.3,3.4v0h0.7v0c1-0.1,1.9-0.6,2.8-1.3l0-0.3c0-0.2,0-0.5,0-0.7c-0.8,1-1.8,1.5-2.8,1.7v-5.7
		c1.4,0.1,2.7,0.4,3.9,1c0.1-0.2,0.3-0.4,0.4-0.6c-1.3-0.7-2.8-1.1-4.3-1.1v-2.6h5.1c0,1.2-0.2,2.3-0.4,3.4c0.3-0.3,0.6-0.5,0.9-0.7
		c0.2-0.8,0.2-1.7,0.3-2.6h3.5c0-0.2,0-0.3,0-0.5C24.7,12.1,24.7,12.1,24.7,12z M14.6,21.7c-1.4-0.2-2.7-1.2-3.7-3
		c-0.2-0.4-0.5-0.9-0.6-1.4c1.3-0.7,2.8-1.2,4.3-1.2V21.7z M14.6,15.3c-1.6,0.1-3.2,0.5-4.5,1.3c-0.4-1.2-0.6-2.5-0.6-3.9h5.1V15.3z
		 M14.6,12H9.5c0-1.4,0.2-2.7,0.6-3.9c1.4,0.8,2.9,1.2,4.5,1.3V12z M14.6,8.7c-1.5-0.1-3-0.5-4.3-1.2c0.2-0.5,0.4-1,0.6-1.4
		c1-1.8,2.3-2.8,3.7-3L14.6,8.7L14.6,8.7z M15.4,3c1.4,0.2,2.7,1.2,3.7,3c0.2,0.4,0.5,0.9,0.6,1.4c-1.3,0.7-2.8,1.2-4.3,1.2L15.4,3
		L15.4,3z M15.4,12V9.4c1.6-0.1,3.2-0.5,4.5-1.3c0.4,1.2,0.6,2.5,0.6,3.9L15.4,12L15.4,12z"/>
	<g>
		<path fill="#FFD3AE" d="M15,21.9V30H5.5v-2.8l-3.7-5.1c-0.4-0.5-0.5-1.1-0.5-1.7V7c0-0.3,0.3-0.6,0.6-0.6c1,0,1.8,0.4,2.5,1
			c0.1,0.1,0.1,0.1,0.2,0.2C5,8.2,5.3,9,5.3,9.8v4.3c0.5,0,1,0.1,1.5,0.2c1.2,0.3,2.3,0.9,3.2,1.8c0.8,0.8,1.4,1.8,1.7,2.9
			c0,0,0,0,0,0c0,0.1,0,0.1,0.1,0.2c0,0.1,0,0.2,0.1,0.3c0,0,0,0.1,0,0.1c0,0,0,0.1,0,0.1c0,0,0,0.1,0,0.1c0,0,0,0.1,0,0.1
			c0,0.2,0,0.5,0,0.7v0.6C12.9,21.7,13.9,21.9,15,21.9z"/>
		<path fill="#FFD3AE" d="M28.8,7v13.5c0,0.6-0.2,1.2-0.5,1.7l-3.7,5.1V30H15v-8.1l2.2-0.2l0.6-0.1l0.2-1.5c0.2-1.5,0.9-2.9,1.9-4
			c0.9-0.9,1.9-1.5,3.2-1.8c0.5-0.1,1-0.2,1.5-0.2V9.8c0-0.9,0.3-1.7,0.8-2.3c0.1-0.1,0.1-0.1,0.2-0.2c0.6-0.6,1.5-1,2.5-1
			C28.5,6.4,28.8,6.7,28.8,7z"/>
	</g>
	<g>
		<path fill="#E5B48F" d="M3.4,22.1c-0.4-0.5-0.5-1.1-0.5-1.7V7c0-0.2,0.1-0.3,0.1-0.4C2.7,6.5,2.3,6.4,1.8,6.4
			c-0.2,0-0.3,0.1-0.4,0.2C1.3,6.7,1.2,6.8,1.2,7v13.5c0,0.6,0.2,1.2,0.5,1.7l3.7,5.1V30h1.7v-2.8L3.4,22.1z"/>
		<polygon fill="#E5B48F" points="17.2,21.7 17.2,30 15,30 15,21.9 		"/>
		<path fill="#E5B48F" d="M28.7,6.6c-0.4,0.2-0.8,0.4-1.2,0.8c-0.1,0.1-0.1,0.1-0.2,0.2c-0.5,0.6-0.8,1.4-0.8,2.3v2.8
			c0,0.8-0.7,1.5-1.5,1.5h-0.5c0.1-0.6,0.2-1.3,0.2-2c0-0.8-0.1-1.6-0.3-2.3l0.1-0.3l0.2,0.7V9.8c0-0.9,0.3-1.7,0.8-2.3
			c0.1-0.1,0.1-0.1,0.2-0.2c0.6-0.6,1.5-1,2.5-1C28.4,6.4,28.5,6.5,28.7,6.6z"/>
	</g>
</g>
</svg>
