<?xml version="1.0" encoding="utf-8"?>
<!-- Generator: Adobe Illustrator 18.0.0, SVG Export Plug-In . SVG Version: 6.00 Build 0)  -->
<!DOCTYPE svg PUBLIC "-//W3C//DTD SVG 1.0//EN" "http://www.w3.org/TR/2001/REC-SVG-20010904/DTD/svg10.dtd">
<svg version="1.0" id="Layer_1" xmlns="http://www.w3.org/2000/svg" xmlns:xlink="http://www.w3.org/1999/xlink" x="0px" y="0px"
	 width="30px" height="30px" viewBox="0 0 30 30" enable-background="new 0 0 30 30" xml:space="preserve">
<g>
	<g>
		<path fill="#EF6070" d="M28.5,7H1.5C0.7,7,0,7.7,0,8.5v16c0,0.8,0.7,1.5,1.5,1.5h27.1c0.8,0,1.5-0.7,1.5-1.5v-16
			C30,7.7,29.3,7,28.5,7z"/>
	</g>
	<g>
		<rect x="13.5" y="23.5" fill="#EF6070" width="2.9" height="2.4"/>
	</g>
	<g>
		<path fill="#49616E" d="M28.1,22v1.5c0,0.3-0.2,0.5-0.5,0.5H2.4c-0.3,0-0.5-0.2-0.5-0.5V22l2.9-1.5l11.6,0.5l9.7-0.5L28.1,22z"/>
	</g>
	<g>
		<path fill="#F1F3F7" d="M2.6,22.7c4-1.6,8.5-1.5,12.4,0.3V5.6C11,3.7,6.3,3.6,2.2,5.4C2.1,5.5,1.9,5.7,1.9,5.9v16.4
			C1.9,22.6,2.3,22.8,2.6,22.7z"/>
	</g>
	<g>
		<path fill="#F1F3F7" d="M15,23c3.9-1.8,8.4-1.9,12.4-0.3c0.3,0.1,0.7-0.1,0.7-0.4V5.9c0-0.2-0.1-0.4-0.3-0.4
			C23.7,3.6,19.1,3.7,15,5.6V23z"/>
	</g>
	<g>
		<g>
			<path fill="#868491" d="M16.9,19.8c-0.2,0-0.4-0.1-0.5-0.3c-0.1-0.3,0.1-0.5,0.3-0.6c0.5-0.2,1-0.3,1.5-0.4
				c0.3-0.1,0.5,0.1,0.6,0.4c0.1,0.3-0.1,0.5-0.4,0.6c-0.5,0.1-0.9,0.2-1.4,0.4C17,19.8,17,19.8,16.9,19.8z"/>
		</g>
	</g>
	<g>
		<g>
			<path fill="#868491" d="M26.1,19.8c0,0-0.1,0-0.1,0c-1.8-0.6-3.7-0.8-5.6-0.6c-0.3,0-0.5-0.2-0.5-0.4c0-0.3,0.2-0.5,0.4-0.5
				c2-0.2,4,0.1,6,0.7c0.3,0.1,0.4,0.4,0.3,0.6C26.5,19.7,26.3,19.8,26.1,19.8z"/>
		</g>
	</g>
	<g>
		<g>
			<path fill="#868491" d="M26.1,17.9c0,0-0.1,0-0.1,0c-2.9-0.9-6-0.9-8.9,0c-0.3,0.1-0.5-0.1-0.6-0.3c-0.1-0.3,0.1-0.5,0.3-0.6
				c3.1-1,6.4-1,9.5,0c0.3,0.1,0.4,0.4,0.3,0.6C26.5,17.8,26.3,17.9,26.1,17.9z"/>
		</g>
	</g>
	<g>
		<g>
			<path fill="#868491" d="M16.9,16c-0.2,0-0.4-0.1-0.5-0.3c-0.1-0.3,0.1-0.5,0.3-0.6c1.8-0.6,3.6-0.8,5.5-0.7
				c0.3,0,0.5,0.2,0.5,0.5c0,0.3-0.2,0.5-0.5,0.5c-1.7-0.1-3.5,0.1-5.2,0.7C17,15.9,17,16,16.9,16z"/>
		</g>
	</g>
	<g>
		<g>
			<path fill="#868491" d="M26.1,16c0,0-0.1,0-0.1,0c-0.6-0.2-1.2-0.3-1.9-0.5c-0.3,0-0.4-0.3-0.4-0.6c0-0.3,0.3-0.4,0.6-0.4
				c0.7,0.1,1.3,0.3,2,0.5c0.3,0.1,0.4,0.4,0.3,0.6C26.5,15.8,26.3,16,26.1,16z"/>
		</g>
	</g>
	<g>
		<g>
			<path fill="#868491" d="M26.1,14c0,0-0.1,0-0.1,0c-2.9-0.9-6-0.9-8.9,0c-0.3,0.1-0.5-0.1-0.6-0.3c-0.1-0.3,0.1-0.5,0.3-0.6
				c3.1-1,6.4-1,9.5,0c0.3,0.1,0.4,0.4,0.3,0.6C26.5,13.9,26.3,14,26.1,14z"/>
		</g>
	</g>
	<g>
		<g>
			<path fill="#868491" d="M16.9,12.1c-0.2,0-0.4-0.1-0.5-0.3c-0.1-0.3,0.1-0.5,0.3-0.6c1-0.3,2-0.5,3-0.6c0.3,0,0.5,0.2,0.5,0.4
				c0,0.3-0.2,0.5-0.4,0.5c-1,0.1-1.9,0.3-2.8,0.6C17,12.1,17,12.1,16.9,12.1z"/>
		</g>
	</g>
	<g>
		<g>
			<path fill="#868491" d="M26.1,12.1c0,0-0.1,0-0.1,0c-1.4-0.4-2.8-0.7-4.2-0.7c-0.3,0-0.5-0.2-0.5-0.5c0-0.3,0.2-0.5,0.5-0.5
				c1.5,0,3,0.3,4.5,0.7c0.3,0.1,0.4,0.4,0.3,0.6C26.5,11.9,26.3,12.1,26.1,12.1z"/>
		</g>
	</g>
	<g>
		<g>
			<path fill="#868491" d="M16.9,10.2c-0.2,0-0.4-0.1-0.5-0.3c-0.1-0.3,0.1-0.5,0.3-0.6c2.1-0.7,4.3-0.9,6.5-0.6
				c0.3,0,0.5,0.3,0.4,0.5c0,0.3-0.3,0.5-0.5,0.4c-2.1-0.2-4.1,0-6.1,0.6C17,10.1,17,10.2,16.9,10.2z"/>
		</g>
	</g>
	<g>
		<g>
			<path fill="#868491" d="M26.1,10.2c0,0-0.1,0-0.1,0c-0.3-0.1-0.6-0.2-0.9-0.3c-0.3-0.1-0.4-0.3-0.4-0.6C24.8,9,25,8.9,25.3,8.9
				c0.3,0.1,0.7,0.2,1,0.3c0.3,0.1,0.4,0.4,0.3,0.6C26.5,10,26.3,10.2,26.1,10.2z"/>
		</g>
	</g>
	<g>
		<g>
			<path fill="#868491" d="M16.9,8.2c-0.2,0-0.4-0.1-0.5-0.3c-0.1-0.3,0.1-0.5,0.3-0.6c0.3-0.1,0.7-0.2,1-0.3
				c0.3-0.1,0.5,0.1,0.6,0.4S18.3,7.9,18,7.9c-0.3,0.1-0.6,0.2-0.9,0.3C17,8.2,17,8.2,16.9,8.2z"/>
		</g>
	</g>
	<g>
		<g>
			<path fill="#868491" d="M26.1,8.2c0,0-0.1,0-0.1,0c-2-0.6-4-0.8-6.1-0.6c-0.3,0-0.5-0.2-0.5-0.4c0-0.3,0.2-0.5,0.4-0.5
				c2.2-0.2,4.4,0,6.5,0.6c0.3,0.1,0.4,0.4,0.3,0.6C26.5,8.1,26.3,8.2,26.1,8.2z"/>
		</g>
	</g>
	<g>
		<g>
			<path fill="#B4B6BC" d="M3.9,19.8c-0.2,0-0.4-0.1-0.5-0.3c-0.1-0.3,0.1-0.5,0.3-0.6c0.5-0.2,1-0.3,1.5-0.4
				c0.3-0.1,0.5,0.1,0.6,0.4c0.1,0.3-0.1,0.5-0.4,0.6C5,19.5,4.5,19.7,4,19.8C4,19.8,3.9,19.8,3.9,19.8z"/>
		</g>
	</g>
	<g>
		<g>
			<path fill="#B4B6BC" d="M13.1,19.8c0,0-0.1,0-0.1,0c-1.8-0.6-3.7-0.8-5.6-0.6c-0.3,0-0.5-0.2-0.5-0.4c0-0.3,0.2-0.5,0.4-0.5
				c2-0.2,4,0.1,6,0.7c0.3,0.1,0.4,0.4,0.3,0.6C13.5,19.7,13.3,19.8,13.1,19.8z"/>
		</g>
	</g>
	<g>
		<g>
			<path fill="#B4B6BC" d="M13.1,17.9c0,0-0.1,0-0.1,0c-2.9-0.9-6-0.9-8.9,0c-0.3,0.1-0.5-0.1-0.6-0.3c-0.1-0.3,0.1-0.5,0.3-0.6
				c3.1-1,6.4-1,9.5,0c0.3,0.1,0.4,0.4,0.3,0.6C13.5,17.8,13.3,17.9,13.1,17.9z"/>
		</g>
	</g>
	<g>
		<g>
			<path fill="#B4B6BC" d="M3.9,16c-0.2,0-0.4-0.1-0.5-0.3c-0.1-0.3,0.1-0.5,0.3-0.6c1.8-0.6,3.6-0.8,5.5-0.7c0.3,0,0.5,0.2,0.5,0.5
				c0,0.3-0.2,0.5-0.5,0.5c-1.7-0.1-3.5,0.1-5.2,0.7C4,15.9,3.9,16,3.9,16z"/>
		</g>
	</g>
	<g>
		<g>
			<path fill="#B4B6BC" d="M13.1,16c0,0-0.1,0-0.1,0c-0.6-0.2-1.2-0.3-1.9-0.5c-0.3,0-0.4-0.3-0.4-0.6c0-0.3,0.3-0.4,0.6-0.4
				c0.7,0.1,1.3,0.3,2,0.5c0.3,0.1,0.4,0.4,0.3,0.6C13.5,15.8,13.3,16,13.1,16z"/>
		</g>
	</g>
	<g>
		<g>
			<path fill="#B4B6BC" d="M3.9,14c-0.2,0-0.4-0.1-0.5-0.3c-0.1-0.3,0.1-0.5,0.3-0.6c2.8-0.9,5.7-1,8.5-0.3c0.3,0.1,0.4,0.3,0.4,0.6
				c-0.1,0.3-0.3,0.4-0.6,0.4c-2.6-0.6-5.4-0.6-8,0.3C4,14,3.9,14,3.9,14z"/>
		</g>
	</g>
	<g>
		<g>
			<path fill="#B4B6BC" d="M3.9,12.1c-0.2,0-0.4-0.1-0.5-0.3c-0.1-0.3,0.1-0.5,0.3-0.6c1-0.3,2-0.5,3-0.6c0.3,0,0.5,0.2,0.5,0.4
				c0,0.3-0.2,0.5-0.4,0.5c-1,0.1-1.9,0.3-2.8,0.6C4,12.1,3.9,12.1,3.9,12.1z"/>
		</g>
	</g>
	<g>
		<g>
			<path fill="#B4B6BC" d="M12.1,11.8c0,0-0.1,0-0.1,0c-1.1-0.3-2.2-0.4-3.3-0.4c-0.3,0-0.5-0.2-0.5-0.5c0-0.3,0.2-0.5,0.5-0.5
				c1.2,0,2.4,0.2,3.5,0.4c0.3,0.1,0.4,0.3,0.4,0.6C12.5,11.7,12.3,11.8,12.1,11.8z"/>
		</g>
	</g>
	<g>
		<g>
			<path fill="#B4B6BC" d="M3.9,10.2c-0.2,0-0.4-0.1-0.5-0.3C3.3,9.6,3.5,9.3,3.7,9.2C5.8,8.5,8,8.3,10.2,8.6c0.3,0,0.5,0.3,0.4,0.5
				c0,0.3-0.3,0.5-0.5,0.4C8.1,9.3,6,9.5,4,10.1C4,10.1,3.9,10.2,3.9,10.2z"/>
		</g>
	</g>
	<g>
		<g>
			<path fill="#B4B6BC" d="M3.9,8.2c-0.2,0-0.4-0.1-0.5-0.3C3.3,7.6,3.5,7.3,3.7,7.3c0.3-0.1,0.7-0.2,1-0.3C5,6.9,5.3,7.1,5.3,7.3
				C5.4,7.6,5.2,7.9,5,7.9C4.7,8,4.3,8.1,4,8.2C4,8.2,3.9,8.2,3.9,8.2z"/>
		</g>
	</g>
	<g>
		<g>
			<path fill="#B4B6BC" d="M12.1,7.9c0,0-0.1,0-0.1,0c-1.7-0.4-3.4-0.5-5.2-0.3c-0.3,0-0.5-0.2-0.5-0.4c0-0.3,0.2-0.5,0.4-0.5
				c1.8-0.2,3.7-0.1,5.5,0.4c0.3,0.1,0.4,0.3,0.4,0.6C12.5,7.8,12.3,7.9,12.1,7.9z"/>
		</g>
	</g>
	<g>
		<path fill="#5D647F" d="M12.1,13.1c0,0.2,0.2,0.3,0.4,0.2l1.1-0.7l1.1,0.7c0.2,0.1,0.4,0,0.4-0.2V5.6c0-0.2-0.1-0.4-0.3-0.4
			c-0.8-0.3-1.5-0.6-2.3-0.8c-0.2,0-0.3,0.1-0.3,0.2L12.1,13.1z"/>
	</g>
</g>
</svg>
