<?xml version="1.0" encoding="utf-8"?>
<!-- Generator: Adobe Illustrator 18.0.0, SVG Export Plug-In . SVG Version: 6.00 Build 0)  -->
<!DOCTYPE svg PUBLIC "-//W3C//DTD SVG 1.0//EN" "http://www.w3.org/TR/2001/REC-SVG-20010904/DTD/svg10.dtd">
<svg version="1.0" id="Layer_1" xmlns="http://www.w3.org/2000/svg" xmlns:xlink="http://www.w3.org/1999/xlink" x="0px" y="0px"
	 width="30px" height="30px" viewBox="0 0 30 30" enable-background="new 0 0 30 30" xml:space="preserve">
<g>
	<g>
		<g>
			<path fill="#FFD45E" d="M20.9,15H9.1c-0.9,0-1.6-0.7-1.6-1.6V1.6C7.5,0.7,8.2,0,9.1,0h11.8c0.9,0,1.6,0.7,1.6,1.6v11.8
				C22.5,14.3,21.8,15,20.9,15z"/>
		</g>
	</g>
	<g>
		<g>
			<path fill="#61B16E" d="M13.4,30H1.6C0.7,30,0,29.3,0,28.4V16.6C0,15.7,0.7,15,1.6,15h11.8c0.9,0,1.6,0.7,1.6,1.6v11.8
				C15,29.3,14.3,30,13.4,30z"/>
		</g>
	</g>
	<g>
		<g>
			<path fill="#EF6070" d="M28.4,30H16.6c-0.9,0-1.6-0.7-1.6-1.6V16.6c0-0.9,0.7-1.6,1.6-1.6h11.8c0.9,0,1.6,0.7,1.6,1.6v11.8
				C30,29.3,29.3,30,28.4,30z"/>
		</g>
	</g>
	<path fill="#FFFFFF" d="M19,11l-2.6-6.6c-0.2-0.5-0.7-0.9-1.3-0.9s-1.1,0.4-1.3,0.9L11,11c-0.2,0.4,0,0.9,0.4,1
		c0.4,0.2,0.9,0,1-0.4l0.4-1.1H17l0.4,1.1c0.1,0.3,0.4,0.5,0.7,0.5c0.1,0,0.2,0,0.3-0.1C18.9,11.8,19.1,11.4,19,11z M13.6,8.8
		L15,5.4l1.4,3.5H13.6z"/>
	<g>
		<g>
			<path fill="#FFFFFF" d="M10.1,21.6c0.2-0.4,0.4-0.8,0.4-1.2c0-1.3-1.1-2.4-2.4-2.4H5.4c-0.4,0-0.8,0.4-0.8,0.8V22v4.3
				c0,0.4,0.4,0.8,0.8,0.8h3.2c1.6,0,2.9-1.3,2.9-2.9C11.5,23,10.9,22.1,10.1,21.6z M6.2,19.6H8c0.4,0,0.8,0.4,0.8,0.8
				c0,0.4-0.4,0.8-0.8,0.8H6.2V19.6z M8.6,25.4H6.2v-2.7H8h0.5c0.7,0,1.3,0.6,1.3,1.3C9.9,24.8,9.3,25.4,8.6,25.4z"/>
		</g>
	</g>
	<g>
		<g>
			<g>
				<path fill="#FFFFFF" d="M23,27.1c-0.3,0-0.6,0-0.9-0.1c-1.8-0.4-3.2-1.8-3.5-3.6c-0.3-1.4,0.1-2.7,1-3.8
					c0.9-1.1,2.2-1.7,3.5-1.7c0.8,0,1.6,0.2,2.3,0.6c0.4,0.2,0.6,0.7,0.6,1.1v0.6c0,0.4-0.4,0.8-0.8,0.8c-0.4,0-0.8-0.4-0.8-0.8
					v-0.5c-0.4-0.2-0.9-0.3-1.3-0.3c-0.9,0-1.7,0.4-2.3,1.1c-0.6,0.7-0.8,1.6-0.6,2.5c0.2,1.1,1.1,2.1,2.3,2.3
					c0.8,0.2,1.6,0,2.3-0.5c0.4-0.3,0.9-0.2,1.1,0.2c0.3,0.4,0.2,0.9-0.2,1.1C24.9,26.8,24,27.1,23,27.1z"/>
			</g>
		</g>
	</g>
	<g>
		<g>
			<path fill="#D24146" d="M16.6,28.4V16.6c0-0.9,0.7-1.6,1.6-1.6h-1.6c-0.9,0-1.6,0.7-1.6,1.6v11.8c0,0.9,0.7,1.6,1.6,1.6h1.6
				C17.3,30,16.6,29.3,16.6,28.4z"/>
		</g>
	</g>
	<g>
		<g>
			<path fill="#00A85C" d="M1.6,28.4V16.6c0-0.9,0.7-1.6,1.6-1.6H1.6C0.7,15,0,15.7,0,16.6v11.8C0,29.3,0.7,30,1.6,30h1.6
				C2.3,30,1.6,29.3,1.6,28.4z"/>
		</g>
	</g>
	<g>
		<g>
			<path fill="#FFB44B" d="M9.1,13.4V1.6C9.1,0.7,9.8,0,10.7,0H9.1C8.2,0,7.5,0.7,7.5,1.6v11.8c0,0.9,0.7,1.6,1.6,1.6h1.6
				C9.8,15,9.1,14.3,9.1,13.4z"/>
		</g>
	</g>
</g>
</svg>
