<?xml version="1.0" encoding="utf-8"?>
<!-- Generator: Adobe Illustrator 18.0.0, SVG Export Plug-In . SVG Version: 6.00 Build 0)  -->
<!DOCTYPE svg PUBLIC "-//W3C//DTD SVG 1.0//EN" "http://www.w3.org/TR/2001/REC-SVG-20010904/DTD/svg10.dtd">
<svg version="1.0" id="Layer_1" xmlns="http://www.w3.org/2000/svg" xmlns:xlink="http://www.w3.org/1999/xlink" x="0px" y="0px"
	 width="30px" height="30px" viewBox="0 0 30 30" enable-background="new 0 0 30 30" xml:space="preserve">
<g>
	<g>
		<rect x="7.5" y="15" fill="#5C546A" width="0.9" height="8"/>
	</g>
	<g>
		<path fill="#8A8895" d="M7.5,14.5H6.1c-0.3,0-0.5-0.2-0.5-0.5v-2.8c0-0.3,0.2-0.5,0.5-0.5h1.4V14.5z"/>
	</g>
	<g>
		<path fill="#565659" d="M19,0h-7.4c-1.1,0-2,0.7-2.2,1.7C7.5,2,5.9,3.6,5.9,5.7v2.8c0,1.5,0.6,2.8,1.7,3.8V9.1
			c0-1.6,1.3-2.8,2.8-2.8h9.6c1.2,0,2.3,1,2.3,2.3v3.8c1.1-1,1.7-2.3,1.7-3.8V5.1C24.1,2.3,21.8,0,19,0z"/>
	</g>
	<g>
		<g>
			<path fill="#FCC78D" d="M15,20.4c-2,0-3.8-1.2-5.2-2.6c0-0.1,0,2,0,2.3c0.1,0.1,0.1,1.1,0.1,1.3c0.3,2.3,2.5,4,5.1,4
				c2.6,0,4.8-1.7,5.1-4c0-0.2-0.1-1.2,0.1-1.3c0-1,0-1.7,0-2.3C18.8,19.2,17,20.4,15,20.4z"/>
		</g>
	</g>
	<g>
		<g>
			<path fill="#FFB87F" d="M20,18.3c-1.3,1.3-3.1,2.1-5,2.1c-2,0-3.8-1.2-5.2-2.6c0,0.6,0,2.7,0,2.3c0.1,0.1,0.1,1.1,0.1,1.3
				c0.1,1,0.6,1.9,1.4,2.6C14.7,23.6,18.6,20.2,20,18.3z"/>
		</g>
	</g>
	<g>
		<path fill="#5C546A" d="M8.4,15.5H7c-0.3,0-0.5-0.2-0.5-0.5v-4.7c0-0.3,0.2-0.5,0.5-0.5h1.4V15.5z"/>
	</g>
	<g>
		<path fill="#8A8895" d="M22.5,14.5h1.4c0.3,0,0.5-0.2,0.5-0.5v-2.8c0-0.3-0.2-0.5-0.5-0.5h-1.4V14.5z"/>
	</g>
	<g>
		<path fill="#5C546A" d="M21.6,15.5H23c0.3,0,0.5-0.2,0.5-0.5v-4.7c0-0.3-0.2-0.5-0.5-0.5h-1.4V15.5z"/>
	</g>
	<g>
		<g>
			<path fill="#FFE0B1" d="M20.1,6.2h-9.6c-1.6,0-2.8,1.3-2.8,2.8v3.4c0,4.4,3.3,7.9,7.4,7.9s7.4-3.6,7.4-7.9v-4
				C22.4,7.2,21.3,6.2,20.1,6.2z"/>
		</g>
	</g>
	<g>
		<g>
			<path fill="#5C546A" d="M19,18.2c-1.1,0-2.3-0.5-3.4-1.5c-0.2-0.2-0.2-0.5,0-0.7c0.2-0.2,0.5-0.2,0.7,0c1.2,1.1,2.5,1.5,3.6,1.1
				c1.1-0.4,2-1.4,2.3-2.8c0.1-0.3,0.3-0.4,0.6-0.4c0.3,0.1,0.4,0.3,0.4,0.6c-0.3,1.6-1.5,3-2.9,3.5C19.8,18.2,19.4,18.2,19,18.2z"
				/>
		</g>
	</g>
	<g>
		<circle fill="#8A8895" cx="15.9" cy="16.4" r="0.9"/>
	</g>
	<g>
		<path fill="#5494E0" d="M25.2,22.8L22,22l-7,3.8L8,22l-3.2,0.8c-1.7,0.4-2.9,1.9-2.9,3.7v2.2c0,0.8,0.6,1.4,1.4,1.4h23.4
			c0.8,0,1.4-0.6,1.4-1.4v-2.2C28.1,24.7,26.9,23.2,25.2,22.8z"/>
	</g>
	<g>
		<rect x="14.5" y="25.3" fill="#5162B2" width="0.9" height="4.7"/>
	</g>
	<g>
		<path fill="#5162B2" d="M15,25.3l-2.8,2.5c-0.5,0.4-1.2,0.3-1.5-0.3L8,22l1.9-1.9L15,25.3z"/>
	</g>
	<g>
		<path fill="#5162B2" d="M15,25.3l2.8,2.5c0.5,0.4,1.2,0.3,1.5-0.3L22,22l-1.9-1.9L15,25.3z"/>
	</g>
</g>
</svg>
