<?xml version="1.0" encoding="utf-8"?>
<!-- Generator: Adobe Illustrator 18.0.0, SVG Export Plug-In . SVG Version: 6.00 Build 0)  -->
<!DOCTYPE svg PUBLIC "-//W3C//DTD SVG 1.0//EN" "http://www.w3.org/TR/2001/REC-SVG-20010904/DTD/svg10.dtd">
<svg version="1.0" id="Layer_1" xmlns="http://www.w3.org/2000/svg" xmlns:xlink="http://www.w3.org/1999/xlink" x="0px" y="0px"
	 width="30px" height="30px" viewBox="0 0 30 30" enable-background="new 0 0 30 30" xml:space="preserve">
<g>
	<g>
		<g>
			<rect x="18.6" y="7.5" fill="#49616E" width="1.6" height="3.6"/>
		</g>
	</g>
	<g>
		<g>
			<path fill="#49616E" d="M20.2,7.5h-1.6c-0.6,0-1-0.5-1-1l0,0c0-0.6,0.5-1,1-1h1.6c0.6,0,1,0.5,1,1l0,0C21.2,7,20.7,7.5,20.2,7.5z
				"/>
		</g>
	</g>
	<polygon fill="#D3D6D8" points="12.4,10.6 12.4,3.9 0,3.9 0,19.4 26.4,19.4 26.4,10.6 	"/>
	<g>
		<g>
			<path fill="#49616E" d="M26.4,22.5H1c-0.6,0-1-0.5-1-1v-2.1h26.4V22.5z"/>
		</g>
	</g>
	<g>
		<g>
			<path fill="#D3D6D8" d="M14.5,15.3h11.9v-4.7h-14v2.6C12.4,14.3,13.3,15.3,14.5,15.3z"/>
		</g>
	</g>
	<g>
		<g>
			<rect x="0" y="18.4" fill="#6A7F89" width="26.4" height="1"/>
		</g>
	</g>
	<g>
		<g>
			<circle fill="#49616E" cx="7.8" cy="20.4" r="5.2"/>
		</g>
	</g>
	<g>
		<g>
			<circle fill="#49616E" cx="17.6" cy="24.1" r="2.6"/>
		</g>
	</g>
	<g>
		<g>
			<circle fill="#49616E" cx="24.3" cy="24.1" r="2.6"/>
		</g>
	</g>
	<g>
		<g>
			<g>
				<path fill="#49616E" d="M7.8,27.2c-3.7,0-6.7-3-6.7-6.7s3-6.7,6.7-6.7s6.7,3,6.7,6.7S11.5,27.2,7.8,27.2z M7.8,14.7
					c-3.1,0-5.7,2.6-5.7,5.7s2.6,5.7,5.7,5.7s5.7-2.6,5.7-5.7S10.9,14.7,7.8,14.7z"/>
			</g>
		</g>
	</g>
	<path fill="#F1F3F7" d="M7.8,14.7c-3.1,0-5.7,2.6-5.7,5.7s2.6,5.7,5.7,5.7s5.7-2.6,5.7-5.7S10.9,14.7,7.8,14.7z M12.4,19.9H9
		l2.4-2.4C11.9,18.2,12.3,19,12.4,19.9z M8.3,15.8c0.9,0.1,1.7,0.5,2.4,1l-2.4,2.4V15.8z M7.2,19.2l-2.4-2.4c0.7-0.5,1.5-0.9,2.4-1
		V19.2z M7.2,25.1c-0.9-0.1-1.7-0.5-2.4-1l2.4-2.4V25.1z M8.3,21.7l2.4,2.4c-0.7,0.5-1.5,0.9-2.4,1V21.7z M4.1,17.5l2.4,2.4H3.1
		C3.2,19,3.6,18.2,4.1,17.5z M3.1,20.9h3.4l-2.4,2.4C3.6,22.7,3.2,21.8,3.1,20.9z M11.4,23.3L9,20.9h3.4
		C12.3,21.8,11.9,22.7,11.4,23.3z"/>
	<path fill="#F1F3F7" d="M19.8,23.5h-1.3l0.7-1.1c0.1-0.2,0.1-0.6-0.2-0.7c-0.2-0.1-0.6-0.1-0.7,0.2L17.6,23l-0.7-1.1
		c-0.1-0.2-0.5-0.3-0.7-0.2c-0.2,0.1-0.3,0.5-0.2,0.7l0.7,1.1h-1.3c-0.3,0-0.5,0.2-0.5,0.5s0.2,0.5,0.5,0.5h1.3L16,25.7
		c-0.1,0.2-0.1,0.6,0.2,0.7c0.1,0,0.2,0.1,0.3,0.1c0.2,0,0.4-0.1,0.4-0.3l0.7-1.1l0.7,1.1c0.1,0.2,0.3,0.3,0.4,0.3
		c0.1,0,0.2,0,0.3-0.1c0.2-0.1,0.3-0.5,0.2-0.7l-0.7-1.1h1.3c0.3,0,0.5-0.2,0.5-0.5S20.1,23.5,19.8,23.5z"/>
	<g>
		<g>
			<g>
				<path fill="#49616E" d="M17.6,27.2c-1.7,0-3.1-1.4-3.1-3.1s1.4-3.1,3.1-3.1s3.1,1.4,3.1,3.1S19.3,27.2,17.6,27.2z M17.6,22
					c-1.1,0-2.1,0.9-2.1,2.1s0.9,2.1,2.1,2.1c1.1,0,2.1-0.9,2.1-2.1S18.7,22,17.6,22z"/>
			</g>
		</g>
	</g>
	<g>
		<g>
			<path fill="#49616E" d="M26.4,24.6H30L28.2,20c-0.2-0.4-0.5-0.7-1-0.7h-0.9V24.6z"/>
		</g>
	</g>
	<path fill="#F1F3F7" d="M26.5,23.5h-1.3l0.7-1.1c0.1-0.2,0.1-0.6-0.2-0.7c-0.2-0.1-0.6-0.1-0.7,0.2L24.3,23l-0.7-1.1
		c-0.1-0.2-0.5-0.3-0.7-0.2c-0.2,0.1-0.3,0.5-0.2,0.7l0.7,1.1h-1.3c-0.3,0-0.5,0.2-0.5,0.5s0.2,0.5,0.5,0.5h1.3l-0.7,1.1
		c-0.1,0.2-0.1,0.6,0.2,0.7c0.1,0,0.2,0.1,0.3,0.1c0.2,0,0.4-0.1,0.4-0.3l0.7-1.1l0.7,1.1c0.1,0.2,0.3,0.3,0.4,0.3
		c0.1,0,0.2,0,0.3-0.1c0.2-0.1,0.3-0.5,0.2-0.7l-0.7-1.1h1.3c0.3,0,0.5-0.2,0.5-0.5S26.8,23.5,26.5,23.5z"/>
	<g>
		<g>
			<g>
				<path fill="#49616E" d="M24.3,27.2c-1.7,0-3.1-1.4-3.1-3.1s1.4-3.1,3.1-3.1s3.1,1.4,3.1,3.1S26,27.2,24.3,27.2z M24.3,22
					c-1.1,0-2.1,0.9-2.1,2.1s0.9,2.1,2.1,2.1s2.1-0.9,2.1-2.1S25.5,22,24.3,22z"/>
			</g>
		</g>
	</g>
	<g>
		<g>
			<path fill="#49616E" d="M14.5,4.4H0V3.9c0-0.6,0.5-1,1-1h12.4L14.5,4.4z"/>
		</g>
	</g>
	<g>
		<g>
			<path fill="#F1F3F7" d="M7.2,10.6H2.6c-0.6,0-1-0.5-1-1V6.5c0-0.6,0.5-1,1-1h4.7c0.6,0,1,0.5,1,1v3.1C8.3,10.1,7.8,10.6,7.2,10.6
				z"/>
		</g>
	</g>
	<g>
		<g>
			<path fill="#F1F3F7" d="M12.4,10.6h-1.6c-0.6,0-1-0.5-1-1V6.5c0-0.6,0.5-1,1-1h1.6V10.6z"/>
		</g>
	</g>
	<g>
		<g>
			<path fill="#49616E" d="M29,16.4l-2.6,3v-8.8l2.6,3c0.3,0.4,0.5,0.9,0.5,1.4v0C29.5,15.5,29.3,16,29,16.4z"/>
		</g>
	</g>
	<g>
		<g>
			<rect x="0" y="4.4" fill="#6A7F89" width="12.4" height="1"/>
		</g>
	</g>
	<g>
		<g>
			<path fill="#D3D6D8" d="M23.8,12.7h1c0.3,0,0.5-0.2,0.5-0.5l0,0c0-0.3-0.2-0.5-0.5-0.5h-1c-0.3,0-0.5,0.2-0.5,0.5l0,0
				C23.3,12.4,23.5,12.7,23.8,12.7z"/>
		</g>
	</g>
	<g>
		<g>
			<path fill="#D3D6D8" d="M16,12.7h5.7c0.3,0,0.5-0.2,0.5-0.5l0,0c0-0.3-0.2-0.5-0.5-0.5H16c-0.3,0-0.5,0.2-0.5,0.5l0,0
				C15.5,12.4,15.7,12.7,16,12.7z"/>
		</g>
	</g>
</g>
</svg>
