<?xml version="1.0" encoding="utf-8"?>
<!-- Generator: Adobe Illustrator 18.0.0, SVG Export Plug-In . SVG Version: 6.00 Build 0)  -->
<!DOCTYPE svg PUBLIC "-//W3C//DTD SVG 1.0//EN" "http://www.w3.org/TR/2001/REC-SVG-20010904/DTD/svg10.dtd">
<svg version="1.0" id="Layer_1" xmlns="http://www.w3.org/2000/svg" xmlns:xlink="http://www.w3.org/1999/xlink" x="0px" y="0px"
	 width="30px" height="30px" viewBox="0 0 30 30" enable-background="new 0 0 30 30" xml:space="preserve">
<g>
	<path fill="#4C545F" d="M5.4,18.8c1.2,0,2.2-1.3,2.2-3s-1-3-2.2-3c-1.2,0-2.2,1.3-2.2,3S4.2,18.8,5.4,18.8z"/>
	<path fill="#4C545F" d="M10.7,18.8c1.2,0,2.2-1.3,2.2-3s-1-3-2.2-3c-1.2,0-2.2,1.3-2.2,3S9.5,18.8,10.7,18.8z"/>
	<path fill="#4C545F" d="M14.8,17.3c-1-0.2-1.9,0.7-2.1,1.9c-0.2,1.3,0.3,2.4,1.3,2.6c1,0.2,1.9-0.7,2.1-1.9
		C16.3,18.6,15.8,17.5,14.8,17.3z"/>
	<path fill="#4C545F" d="M3.5,19.2c-0.2-1.3-1.2-2.1-2.1-1.9c-1,0.2-1.5,1.3-1.3,2.6c0.2,1.3,1.2,2.1,2.1,1.9
		C3.2,21.6,3.7,20.5,3.5,19.2z"/>
	<path fill="#4C545F" d="M11.4,22.5c-0.3-1.6-1.7-2.8-3.3-2.8S5,20.9,4.7,22.5c-1.2,0.5-2,1.7-2,3.1c0,1.9,1.5,3.4,3.4,3.4
		c0.7,0,1.4-0.2,2-0.6c0.6,0.4,1.2,0.6,2,0.6c1.9,0,3.4-1.5,3.4-3.4C13.4,24.2,12.6,23,11.4,22.5z"/>
	<path fill="#4C545F" d="M19.3,7c1.2,0,2.2-1.3,2.2-3s-1-3-2.2-3c-1.2,0-2.2,1.3-2.2,3S18.1,7,19.3,7z"/>
	<path fill="#4C545F" d="M24.6,7c1.2,0,2.2-1.3,2.2-3s-1-3-2.2-3c-1.2,0-2.2,1.3-2.2,3C22.4,5.6,23.3,7,24.6,7z"/>
	<path fill="#4C545F" d="M28.7,5.5c-1-0.2-1.9,0.7-2.1,1.9c-0.2,1.3,0.3,2.4,1.3,2.6c1,0.2,1.9-0.7,2.1-1.9
		C30.2,6.8,29.6,5.7,28.7,5.5z"/>
	<path fill="#4C545F" d="M16.1,10c1-0.2,1.5-1.3,1.3-2.6c-0.2-1.3-1.2-2.1-2.1-1.9c-1,0.2-1.5,1.3-1.3,2.6
		C14.2,9.4,15.1,10.2,16.1,10z"/>
	<path fill="#4C545F" d="M25.3,10.7c-0.3-1.6-1.7-2.8-3.3-2.8s-3.1,1.2-3.3,2.8c-1.2,0.5-2,1.7-2,3.1c0,1.9,1.5,3.4,3.4,3.4
		c0.7,0,1.4-0.2,2-0.6c0.6,0.4,1.2,0.6,2,0.6c1.9,0,3.4-1.5,3.4-3.4C27.3,12.4,26.5,11.2,25.3,10.7z"/>
</g>
</svg>
