<?xml version="1.0" encoding="utf-8"?>
<!-- Generator: Adobe Illustrator 18.0.0, SVG Export Plug-In . SVG Version: 6.00 Build 0)  -->
<!DOCTYPE svg PUBLIC "-//W3C//DTD SVG 1.0//EN" "http://www.w3.org/TR/2001/REC-SVG-20010904/DTD/svg10.dtd">
<svg version="1.0" id="Layer_1" xmlns="http://www.w3.org/2000/svg" xmlns:xlink="http://www.w3.org/1999/xlink" x="0px" y="0px"
	 width="30px" height="30px" viewBox="0 0 30 30" enable-background="new 0 0 30 30" xml:space="preserve">
<g>
	<path fill="#FFD45E" d="M17.2,10.1C17.2,10.1,17.2,10.1,17.2,10.1l0-1.6c0-1.2-1-2.2-2.2-2.2c-1.2,0-2.2,1-2.2,2.2v1.6c0,0,0,0,0,0
		C6.4,10.4,1.3,15.7,1.3,22.2v4.2h13.6h0.2h13.6v-4.2C28.7,15.7,23.6,10.4,17.2,10.1z M15.1,10.1h-0.2h-0.8V8.5
		c0-0.5,0.4-0.9,0.9-0.9c0.5,0,0.9,0.4,0.9,0.9v1.6H15.1z"/>
	<path fill="#FFD45E" d="M2.6,16.8c2-4,6.1-6.7,10.8-6.7h1.5h0.2h1.5c4.7,0,8.8,2.7,10.8,6.7c-2.7,3.5-7.2,5.7-12.4,5.7
		S5.3,20.2,2.6,16.8z M29.3,25.1H0.7c-0.4,0-0.7,0.3-0.7,0.7v0c0,0.4,0.3,0.7,0.7,0.7h28.7c0.4,0,0.7-0.3,0.7-0.7v0
		C30,25.4,29.7,25.1,29.3,25.1z"/>
	<path fill="#FFFFFF" d="M14.3,12.4c0,0.4-0.3,0.7-0.7,0.7c-4.8,0-8.8,3.9-9.1,8.9c0,0.3-0.3,0.6-0.6,0.6c0,0,0,0,0,0
		c-0.4,0-0.6-0.3-0.6-0.7c0.4-5.6,5-10.1,10.4-10.1C14.1,11.7,14.3,12,14.3,12.4z"/>
	<path fill="#FFFFFF" d="M30,9.4c0,1.1-0.9,2-1.9,2h-4.5c-0.4,0-0.6,0.3-0.6,0.6v1.3c0,0.4-0.3,0.7-0.7,0.7s-0.7-0.3-0.7-0.7V12
		c0-1.1,0.9-2,1.9-2h4.5c0.4,0,0.6-0.3,0.6-0.6c0-0.4-0.3-0.6-0.6-0.6h-5.9c-1.1,0-1.9-0.9-1.9-2s0.9-2,1.9-2h2.4
		c0.4,0,0.6-0.3,0.6-0.6c0-0.4,0.3-0.7,0.7-0.7s0.7,0.3,0.7,0.7c0,1.1-0.9,2-1.9,2h-2.4c-0.4,0-0.6,0.3-0.6,0.6
		c0,0.4,0.3,0.6,0.6,0.6h5.9C29.1,7.5,30,8.4,30,9.4z"/>
</g>
</svg>
