<?xml version="1.0" encoding="utf-8"?>
<!-- Generator: Adobe Illustrator 18.0.0, SVG Export Plug-In . SVG Version: 6.00 Build 0)  -->
<!DOCTYPE svg PUBLIC "-//W3C//DTD SVG 1.0//EN" "http://www.w3.org/TR/2001/REC-SVG-20010904/DTD/svg10.dtd">
<svg version="1.0" id="Layer_1" xmlns="http://www.w3.org/2000/svg" xmlns:xlink="http://www.w3.org/1999/xlink" x="0px" y="0px"
	 width="30px" height="30px" viewBox="0 0 30 30" enable-background="new 0 0 30 30" xml:space="preserve">
<g>
	<g>
		<path fill="#61B16E" d="M18.3,2.1c0,0,0.4,4,4.1,6.7l-0.5,0.5c0,0-2.1-1.1-4.7-4.7h-2.6L18.3,2.1z"/>
	</g>
	<g>
		<path fill="#55A0E1" d="M18.6,3.6c-0.3-0.9-0.4-1.5-0.4-1.5l-3.6,2.6h1.9C17.2,4.2,17.9,3.8,18.6,3.6z"/>
	</g>
	<g>
		<path fill="#EBE6E6" d="M10,1.8l2.1,3h3.2c2.5-2,6.1-2.7,6.1-2.7V0l-11,1C10,1,9.7,1.4,10,1.8z"/>
	</g>
	<g>
		<rect x="11.5" y="6.4" fill="#D2CDCD" width="4.1" height="1.7"/>
	</g>
	<g>
		<path fill="#61B16E" d="M16.3,13.7l0.3-4.8c0-0.6-0.4-1.1-1-1.1h-4c-0.3,0-0.7,0.2-0.9,0.5c-0.7,1.1-2.6,4.3-3.3,8.8
			c-0.7,4.1-0.1,9.2,0.3,11.6C7.8,29.4,8.5,30,9.2,30h8.6c0.8,0,1.5-0.7,1.6-1.5l0.4-10.2c0-0.8-0.4-1.5-1-1.9l-1.4-0.8
			C16.6,15.3,16.2,14.5,16.3,13.7z"/>
	</g>
	<g>
		<path fill="#509B59" d="M10.3,28.7c-0.4-2.4-1-7.5-0.3-11.6c0.7-4.5,2.6-7.7,3.3-8.8c0.2-0.3,0.5-0.5,0.9-0.5h-2.6
			c-0.3,0-0.7,0.2-0.9,0.5c-0.7,1.1-2.6,4.3-3.3,8.8c-0.7,4.1-0.1,9.2,0.3,11.6C7.8,29.4,8.5,30,9.2,30h2.6
			C11.1,30,10.4,29.4,10.3,28.7z"/>
	</g>
	<g>
		<path fill="#EBE6E6" d="M15.6,7.8h-4c-0.3,0-0.7,0.2-0.9,0.5c-0.5,0.8-1.4,2.4-2.2,4.7h7.9l0.3-4.1C16.7,8.3,16.2,7.8,15.6,7.8z"
			/>
	</g>
	<g>
		<path fill="#DCD7D7" d="M10.5,8.6c-0.1,0.1-0.1,0.2-0.2,0.3c0,0,0,0,0,0.1c-0.5,0.9-1.2,2.2-1.8,4v0h2.6c0.8-2.3,1.8-4,2.2-4.7
			c0.2-0.3,0.5-0.5,0.9-0.5h-2.6c-0.3,0-0.7,0.2-0.9,0.5C10.6,8.3,10.6,8.4,10.5,8.6C10.5,8.5,10.5,8.6,10.5,8.6z"/>
	</g>
	<g>
		<path fill="#EBE6E6" d="M15.5,6.7h-3.8c-0.3,0-0.6-0.3-0.5-0.6l0.3-1c0.1-0.2,0.3-0.4,0.5-0.4h3.3c0.2,0,0.4,0.2,0.5,0.4l0.3,1
			C16.1,6.4,15.9,6.7,15.5,6.7z"/>
	</g>
	<g>
		<path fill="#DCD7D7" d="M13.1,6.1l0.3-1c0.1-0.2,0.3-0.4,0.5-0.4h-1.9c-0.2,0-0.4,0.2-0.5,0.4l-0.3,1c-0.1,0.3,0.2,0.6,0.5,0.6
			h1.9C13.3,6.7,13,6.4,13.1,6.1z"/>
	</g>
	<g>
		<path fill="#61B16E" d="M22.6,1.7l-1.2,0.4V0l1.2,0.4c0.2,0.1,0.4,0.3,0.4,0.5v0.3C22.9,1.4,22.8,1.6,22.6,1.7z"/>
	</g>
	<g>
		<rect x="13.1" y="7.8" fill="#DCD7D7" width="1" height="5.2"/>
	</g>
	<path fill="#509B59" d="M14.1,27.6V12.9h-1v14.6c-0.3,0.2-0.5,0.5-0.5,0.9V29h2.1v-0.5C14.6,28.1,14.4,27.7,14.1,27.6z"/>
	<g>
		<path fill="#FFFFFF" d="M17.2,26.4H9.5c-0.6,0-1-0.5-1-1v-4.7c0-0.6,0.5-1,1-1h7.8c0.6,0,1,0.5,1,1v4.7
			C18.3,25.9,17.8,26.4,17.2,26.4z"/>
	</g>
	<g>
		<path fill="#EBE6E6" d="M9.8,19.7H9.5c-0.6,0-1,0.5-1,1v4.7c0,0.6,0.5,1,1,1H10C9.8,24.5,9.6,22,9.8,19.7z"/>
	</g>
</g>
</svg>
