<?xml version="1.0" encoding="utf-8"?>
<!-- Generator: Adobe Illustrator 18.0.0, SVG Export Plug-In . SVG Version: 6.00 Build 0)  -->
<!DOCTYPE svg PUBLIC "-//W3C//DTD SVG 1.0//EN" "http://www.w3.org/TR/2001/REC-SVG-20010904/DTD/svg10.dtd">
<svg version="1.0" id="Layer_1" xmlns="http://www.w3.org/2000/svg" xmlns:xlink="http://www.w3.org/1999/xlink" x="0px" y="0px"
	 width="346px" height="155px" viewBox="0 0 346 155" enable-background="new 0 0 346 155" xml:space="preserve">
<g>
	<g>
		<g>
			<path fill="#FFFFFF" d="M232,22.5l-1.1,0.1C220.8,22.5,214.6,16,214,7h-0.2l0.1-0.8c0-0.1,0.1-0.2,0.1-0.3c0-0.1,0.1-0.4,0.1-0.6
				V4h18V22.5z M216.7,7c0.5,7,5.3,12.1,13.3,12.8V7H216.7z"/>
		</g>
		<g>
			<path fill="#FFFFFF" d="M117.3,23h-1h0H115V4h20.4l0,1.7C135.2,16,128.1,23,117.3,23z M118,7v12.7c7-0.1,13.9-3.7,14.7-12.7H118z
				"/>
		</g>
		<g>
			<path fill="#FFFFFF" d="M131,67.3V67h-16V49.1l1.4,0c10.1,0.2,16.5,5.9,17.2,14.9h0.2l0,0.7c0,0.1,0.1,0.2,0.2,0.3
				c0,0.1,0.1,0.3,0.1,0.5V67h-0.4l0,0.2l-1.2,0.1L131,67.3z M118,64h12.9c-0.7-7-5.9-11.6-12.9-12.2V64z"/>
		</g>
		<g>
			<path fill="#FFFFFF" d="M232,67h-19.8l0-1.5c0.2-10.7,9.3-16.5,18.1-16.5h0.7h0.6h0.4V67z M214.9,64H230V52.3
				c0-0.1-0.5-0.3-0.6-0.5C222.5,52.1,215.8,56,214.9,64z"/>
		</g>
		<path fill="#FFFFFF" d="M232.3,67.6H115.3V4.1h116.9V67.6z M118,65h111.6V6.8H118V65z"/>
		<g>
			<circle fill="none" cx="173.5" cy="36.1" r="20.2"/>
			<path fill="#FFFFFF" d="M170.8,56.3c0-1.5,1.2-2.7,2.7-2.7l0,0c1.5,0,2.7,1.2,2.7,2.7l0,0c0,1.5-1.2,2.7-2.7,2.7l0,0
				C172,59,170.8,57.8,170.8,56.3z M164.8,57.2c-1.4-0.6-2-2.1-1.4-3.5l0,0c0.6-1.4,2.1-2,3.5-1.5l0,0c1.4,0.6,2,2.1,1.5,3.5l0,0
				c-0.4,1-1.4,1.6-2.5,1.6l0,0C165.4,57.4,165.1,57.4,164.8,57.2z M178.8,55.8c-0.6-1.4,0.1-2.9,1.4-3.5l0,0
				c1.4-0.6,2.9,0.1,3.5,1.4l0,0c0.6,1.4-0.1,2.9-1.4,3.5l0,0c-0.3,0.1-0.7,0.2-1,0.2l0,0C180.2,57.4,179.2,56.8,178.8,55.8z
				 M157.3,52.3c-1-1-1-2.7,0-3.8l0,0c1-1,2.7-1,3.8,0l0,0c1.1,1,1.1,2.7,0,3.8l0,0c-0.5,0.5-1.2,0.8-1.9,0.8l0,0
				C158.5,53.1,157.8,52.8,157.3,52.3z M185.9,52.3c-1-1-1-2.7,0-3.8l0,0c1-1,2.7-1,3.8,0l0,0c1,1,1,2.7,0,3.8l0,0
				c-0.5,0.5-1.2,0.8-1.9,0.8l0,0C187.1,53,186.4,52.8,185.9,52.3z M152.3,44.9c-0.6-1.4,0.1-2.9,1.4-3.5l0,0
				c1.4-0.6,2.9,0.1,3.5,1.4l0,0c0.6,1.4-0.1,2.9-1.4,3.5l0,0c-0.3,0.1-0.7,0.2-1,0.2l0,0C153.8,46.5,152.8,45.9,152.3,44.9z
				 M191.2,46.3c-1.4-0.6-2-2.1-1.4-3.5l0,0c0.6-1.4,2.1-2,3.5-1.4l0,0c1.4,0.6,2,2.1,1.5,3.5l0,0c-0.4,1-1.4,1.6-2.5,1.6l0,0
				C191.8,46.5,191.5,46.4,191.2,46.3z M150.6,36.1c0-1.5,1.2-2.7,2.7-2.7l0,0c1.5,0,2.7,1.2,2.7,2.7l0,0c0,1.5-1.2,2.7-2.7,2.7l0,0
				C151.8,38.8,150.6,37.6,150.6,36.1z M191,36.1c0,0,0-0.1,0-0.1l0,0c0-1.5,1-2.7,2.5-2.7l0,0c1.5,0,2.5,1.2,2.5,2.7l0,0
				c0,0,0,0,0,0.1l0,0c0,0,0,0,0,0l0,0l0,0l0,0c0,1.5-1,2.7-2.5,2.7l0,0C192,38.7,191,37.6,191,36.1z M153.8,30.8
				c-1.4-0.6-2-2.1-1.4-3.5l0,0c0.5-1.4,2.1-2,3.5-1.5l0,0c1.4,0.6,2,2.1,1.4,3.5l0,0c-0.4,1-1.4,1.7-2.5,1.7l0,0
				C154.4,31,154.1,31,153.8,30.8z M189.7,29.3c-0.6-1.4,0.1-2.9,1.4-3.5l0,0c1.4-0.6,2.9,0.1,3.5,1.4l0,0c0.6,1.4-0.1,2.9-1.4,3.5
				l0,0c-0.3,0.1-0.7,0.2-1,0.2l0,0C191.1,30.9,190.1,30.3,189.7,29.3z M157.3,23.7c-1.1-1-1.1-2.7,0-3.8l0,0c1-1,2.7-1.1,3.8,0l0,0
				c1,1,1.1,2.7,0,3.8l0,0c-0.5,0.5-1.2,0.8-1.9,0.8l0,0C158.5,24.5,157.8,24.2,157.3,23.7z M185.9,23.6c-1-1-1-2.7,0-3.8l0,0
				c1-1,2.7-1,3.8,0l0,0c1,1,1.1,2.7,0,3.8l0,0c-0.5,0.5-1.2,0.8-1.9,0.8l0,0C187.1,24.4,186.4,24.1,185.9,23.6z M163.2,18.4
				c-0.6-1.4,0.1-2.9,1.4-3.5l0,0l0,0l0,0c1.4-0.6,2.9,0.1,3.5,1.4l0,0c0.6,1.4-0.1,2.9-1.4,3.5l0,0c-0.3,0.1-0.7,0.2-1,0.2l0,0
				C164.7,20.1,163.7,19.5,163.2,18.4z M180.2,19.8c-1.4-0.5-2-2.1-1.5-3.5l0,0c0.6-1.4,2.1-2,3.5-1.4l0,0c1.4,0.5,2,2.1,1.5,3.5
				l0,0c-0.4,1-1.4,1.7-2.5,1.7l0,0C180.8,20,180.5,20,180.2,19.8z M170.8,16.1c0-1.5,1.2-2.8,2.7-2.8l0,0c1.5,0,2.7,1.4,2.7,2.8
				l0,0c0,1.5-1.2,2.9-2.7,2.9l0,0c0,0,0,0,0,0l0,0C172,19,170.8,17.6,170.8,16.1z"/>
		</g>
	</g>
</g>
<g>
	<g>
		<path fill="#FFFFFF" d="M13.3,95.9H7.1v-3.4c5.7,0,10.4,0,16.1,0v3.4H17v16.2h-3.7V95.9z"/>
		<path fill="#FFFFFF" d="M28.6,92.6v7.7c1.2-1.6,2.7-2.1,4.3-2.1c3.9,0,5.7,2.7,5.7,6.7v7.3h-3.4v-7.3c0-2.5-1.3-3.6-3.1-3.6
			c-2,0-3.4,1.7-3.4,3.8v7.1h-3.4V92.6H28.6z"/>
		<path fill="#FFFFFF" d="M44.4,106.5c0.2,1.7,1.7,2.9,4.1,2.9c1.3,0,2.9-0.5,3.7-1.3l2.2,2.2c-1.5,1.5-3.8,2.2-5.9,2.2
			c-4.8,0-7.6-2.9-7.6-7.4c0-4.2,2.9-7.2,7.3-7.2c4.6,0,7.5,2.9,7,8.5H44.4z M51.9,103.6c-0.2-1.8-1.6-2.7-3.6-2.7
			c-1.8,0-3.4,0.9-3.9,2.7H51.9z"/>
		<path fill="#FFFFFF" d="M66.8,92.6v7.6c0.8-1.4,3.1-2.2,4.5-2.2c4,0,7,2.5,7,7.2c0,4.5-3.1,7.2-7.1,7.2c-1.7,0-3.4-0.6-4.5-2.2
			l-0.2,1.9h-3.2V92.6H66.8z M67.1,105.2c0,2.5,1.8,4.1,4,4.1c2.2,0,3.9-1.7,3.9-4.1c0-2.5-1.7-4-3.9-4
			C68.9,101.2,67.1,102.8,67.1,105.2z"/>
		<path fill="#FFFFFF" d="M83.8,106.5c0.2,1.7,1.7,2.9,4.1,2.9c1.3,0,2.9-0.5,3.7-1.3l2.2,2.2c-1.5,1.5-3.8,2.2-5.9,2.2
			c-4.8,0-7.6-2.9-7.6-7.4c0-4.2,2.9-7.2,7.3-7.2c4.6,0,7.5,2.9,7,8.5H83.8z M91.3,103.6c-0.2-1.8-1.6-2.7-3.6-2.7
			c-1.8,0-3.4,0.9-3.9,2.7H91.3z"/>
		<path fill="#FFFFFF" d="M106.3,102c-1-0.9-2.1-1.2-3.4-1.2c-1.6,0-2.5,0.5-2.5,1.4c0,0.9,0.8,1.4,2.6,1.5c2.6,0.2,5.9,0.8,5.9,4.4
			c0,2.4-2,4.5-5.9,4.5c-2.2,0-4.4-0.4-6.4-2.5l1.7-2.4c1,1.1,3.2,1.9,4.8,1.9c1.3,0,2.5-0.6,2.5-1.7c0-1-0.8-1.3-2.7-1.5
			c-2.6-0.2-5.7-1.1-5.7-4.3c0-3.2,3.3-4.3,5.8-4.3c2.2,0,3.8,0.4,5.4,1.8L106.3,102z"/>
		<path fill="#FFFFFF" d="M115.8,94.5v3.9h3.8v2.9h-3.8v6c0,1.3,0.7,2,1.8,2c0.5,0,1.1-0.2,1.7-0.4l1,2.9c-1,0.4-1.8,0.6-2.8,0.6
			c-3,0.1-5-1.6-5-5v-6h-2.6v-2.9h2.6v-3.6L115.8,94.5z"/>
		<path fill="#FFFFFF" d="M127.8,117.9V98.3h3.2l0.2,1.9c1.1-1.5,2.9-2.2,4.5-2.2c4.3,0,7.1,3.2,7.1,7.2c0,4-2.5,7.2-7,7.2
			c-1.5,0-3.6-0.4-4.6-2v7.4H127.8z M139.4,105.3c0-2.2-1.5-3.9-3.9-3.9c-2.5,0-3.9,1.8-3.9,3.9s1.6,3.9,3.9,3.9
			C137.8,109.2,139.4,107.4,139.4,105.3z"/>
		<path fill="#FFFFFF" d="M148.7,92.6v19.6h-3.4V92.6H148.7z"/>
		<path fill="#FFFFFF" d="M162.7,98.3h3.3v13.8h-3.2l-0.2-2c-0.8,1.6-2.9,2.4-4.5,2.4c-4.1,0-7.1-2.5-7.1-7.3c0-4.8,3.2-7.3,7.2-7.2
			c1.8,0,3.6,0.9,4.4,2.2L162.7,98.3z M154.4,105.2c0,2.6,1.8,4.2,4.1,4.2c5.4,0,5.4-8.4,0-8.4C156.2,101.1,154.4,102.6,154.4,105.2
			z"/>
		<path fill="#FFFFFF" d="M181,110.4c-1.6,1.6-3.3,2.2-5.3,2.2c-4,0-7.3-2.4-7.3-7.3s3.3-7.3,7.3-7.3c2,0,3.5,0.6,5,2l-2.2,2.3
			c-0.8-0.7-1.8-1.1-2.8-1.1c-2.3,0-4,1.7-4,4.1c0,2.6,1.8,4,3.9,4c1.1,0,2.2-0.3,3-1.1L181,110.4z"/>
		<path fill="#FFFFFF" d="M186,106.5c0.2,1.7,1.7,2.9,4.1,2.9c1.3,0,2.9-0.5,3.7-1.3l2.2,2.2c-1.5,1.5-3.8,2.2-5.9,2.2
			c-4.8,0-7.6-2.9-7.6-7.4c0-4.2,2.9-7.2,7.3-7.2c4.6,0,7.5,2.9,7,8.5H186z M193.5,103.6c-0.2-1.8-1.6-2.7-3.6-2.7
			c-1.8,0-3.4,0.9-3.9,2.7H193.5z"/>
		<path fill="#FFFFFF" d="M208.4,102c-1-0.9-2.1-1.2-3.4-1.2c-1.6,0-2.5,0.5-2.5,1.4c0,0.9,0.8,1.4,2.6,1.5c2.6,0.2,5.9,0.8,5.9,4.4
			c0,2.4-2,4.5-5.9,4.5c-2.2,0-4.4-0.4-6.4-2.5l1.7-2.4c1,1.1,3.2,1.9,4.8,1.9c1.3,0,2.5-0.6,2.5-1.7c0-1-0.8-1.3-2.7-1.5
			c-2.6-0.2-5.7-1.1-5.7-4.3c0-3.2,3.3-4.3,5.8-4.3c2.2,0,3.8,0.4,5.4,1.8L208.4,102z"/>
		<path fill="#FFFFFF" d="M222.5,94.5c0,2.7-4,2.7-4,0C218.5,91.8,222.5,91.8,222.5,94.5z M218.8,98.3v13.9h3.4V98.3H218.8z"/>
		<path fill="#FFFFFF" d="M235.4,112.2v-7.2c0-2.1-1.1-3.7-3.3-3.7c-2.1,0-3.5,1.8-3.5,3.9v7.1h-3.4V98.3h3.1l0.2,1.9
			c1.4-1.4,2.8-2.1,4.5-2.1c3.2,0,5.9,2.4,5.9,6.8v7.3H235.4z"/>
		<path fill="#FFFFFF" d="M262.3,112.2h-14.7c0-6.5,0-13.1,0-19.6h14.7v3.6h-11v4.5h10.6v3.4h-10.6v4.4h11V112.2z"/>
		<path fill="#FFFFFF" d="M268.4,98.3v7.2c0,2.1,1.1,3.7,3.3,3.7c2.1,0,3.5-1.8,3.5-3.9v-7.1h3.4v13.8h-3.1l-0.2-1.9
			c-1.4,1.4-2.7,2.1-4.7,2.1c-3.3,0-5.7-2.5-5.7-6.8v-7.3H268.4z"/>
		<path fill="#FFFFFF" d="M284.8,98.3l0.3,1.6c1.1-1.7,2.5-2,3.9-2c1.4,0,2.8,0.6,3.6,1.3l-1.5,3c-0.7-0.6-1.3-0.9-2.5-0.9
			c-1.8,0-3.4,1-3.4,3.5v7.3h-3.4V98.3H284.8z"/>
		<path fill="#FFFFFF" d="M307.6,105.3c0,4-2.7,7.2-7.2,7.2s-7.2-3.2-7.2-7.2c0-3.9,2.7-7.2,7.1-7.2
			C304.7,98.1,307.6,101.3,307.6,105.3z M296.6,105.3c0,2.1,1.3,4.1,3.8,4.1c2.5,0,3.8-2,3.8-4.1c0-2.1-1.5-4.1-3.8-4.1
			C297.9,101.2,296.6,103.2,296.6,105.3z"/>
		<path fill="#FFFFFF" d="M309.9,117.9V98.3h3.2l0.2,1.9c1.1-1.5,2.9-2.2,4.5-2.2c4.3,0,7.1,3.2,7.1,7.2c0,4-2.5,7.2-7,7.2
			c-1.5,0-3.6-0.4-4.6-2v7.4H309.9z M321.5,105.3c0-2.2-1.5-3.9-3.9-3.9c-2.5,0-3.9,1.8-3.9,3.9s1.6,3.9,3.9,3.9
			C319.9,109.2,321.5,107.4,321.5,105.3z"/>
		<path fill="#FFFFFF" d="M330.3,106.5c0.2,1.7,1.7,2.9,4.1,2.9c1.3,0,2.9-0.5,3.7-1.3l2.2,2.2c-1.5,1.5-3.8,2.2-5.9,2.2
			c-4.8,0-7.6-2.9-7.6-7.4c0-4.2,2.9-7.2,7.3-7.2c4.6,0,7.5,2.9,7,8.5H330.3z M337.8,103.6c-0.2-1.8-1.6-2.7-3.6-2.7
			c-1.8,0-3.4,0.9-3.9,2.7H337.8z"/>
		<path fill="#FFFFFF" d="M80.8,144.2v-12.5H78v-1.2h2.8v-1.4c0-2.7,1.1-4.7,4.1-4.7c1,0,2,0.4,2.7,1l-0.7,1
			c-0.8-0.4-1.3-0.7-2.1-0.7c-1.7,0-2.7,1.1-2.7,3.5v1.4h4.6v1.2h-4.6v12.5H80.8z"/>
		<path fill="#FFFFFF" d="M87.9,137.3c0-4.4,3.1-7.2,7-7.2s7,2.8,7,7.2c0,4.4-3.1,7.1-7,7.1S87.9,141.7,87.9,137.3z M100.6,137.3
			c0-3.6-2.5-5.9-5.7-5.9c-3.1,0-5.7,2.3-5.7,5.9s2.5,5.7,5.7,5.7C98,143.1,100.6,140.9,100.6,137.3z"/>
		<path fill="#FFFFFF" d="M106.8,130.4l0.1,2.5c0.9-1.9,2.8-2.6,4.6-2.6c1,0,2,0.3,3,0.8l-0.6,1.1c-0.7-0.4-1.5-0.6-2.4-0.6
			c-2.6,0-4.6,2.1-4.6,4.6v8.1h-1.4v-13.8H106.8z"/>
		<path fill="#FFFFFF" d="M134.5,130.4l-8.8,20.5h-1.5l2.9-6.9l-5.5-13.7h1.5l3.2,8.2l1.6,4l1.6-4l3.5-8.1H134.5z"/>
		<path fill="#FFFFFF" d="M136.2,137.3c0-4.4,3.1-7.2,7-7.2s7,2.8,7,7.2c0,4.4-3.1,7.1-7,7.1S136.2,141.7,136.2,137.3z M148.9,137.3
			c0-3.6-2.5-5.9-5.7-5.9c-3.1,0-5.7,2.3-5.7,5.9s2.5,5.7,5.7,5.7C146.3,143.1,148.9,140.9,148.9,137.3z"/>
		<path fill="#FFFFFF" d="M164.8,144.2v-2.5c-1.1,1.9-3,2.7-4.9,2.7c-3.7,0-6.2-2.3-6.2-6.1v-8h1.4v8c0,3.1,1.9,4.8,4.9,4.8
			c2.9,0,4.8-2.2,4.8-5v-7.7h1.4v13.9H164.8z"/>
		<path fill="#FFFFFF" d="M172,130.4l0.1,2.5c0.9-1.9,2.8-2.6,4.6-2.6c1,0,2,0.3,3,0.8l-0.6,1.1c-0.7-0.4-1.5-0.6-2.4-0.6
			c-2.6,0-4.6,2.1-4.6,4.6v8.1h-1.4v-13.8H172z"/>
		<path fill="#FFFFFF" d="M199.9,142.4c-1.4,1.4-3.2,2.1-5,2.1c-3.9,0-7.1-2.8-7.1-7.1s3.1-7.1,7.1-7.1c1.8,0,3.6,0.7,5,2.1
			l-0.9,0.9c-1.1-1.1-2.7-1.7-4.2-1.7c-3.1,0-5.8,2.1-5.8,5.9c0,3.7,2.6,5.9,5.8,5.9c1.5,0,3-0.6,4.1-1.7L199.9,142.4z"/>
		<path fill="#FFFFFF" d="M216.1,130.4c0,4.6,0,9.2,0,13.8h-1.4v-2.9c-1.3,2.2-3.4,3.2-5.7,3.2c-3.9,0-7-2.9-7-7.1
			c0-4.2,3.2-7.1,7-7.1c2.2,0,4.5,1,5.7,3.2v-3H216.1z M203.4,137.3c0,3.5,2.5,5.8,5.7,5.8c7.7,0,7.7-11.6,0-11.6
			C205.9,131.5,203.4,133.8,203.4,137.3z"/>
		<path fill="#FFFFFF" d="M221.9,130.4l0.1,2.5c0.9-1.9,2.8-2.6,4.6-2.6c1,0,2,0.3,3,0.8l-0.6,1.1c-0.7-0.4-1.5-0.6-2.4-0.6
			c-2.6,0-4.6,2.1-4.6,4.6v8.1h-1.4v-13.8H221.9z"/>
		<path fill="#FFFFFF" d="M230.3,137.3c0-4.1,3.1-7.1,7-7.1s7.4,2.4,6.8,7.8h-12.5c0.3,3.2,2.8,5.2,5.6,5.2c1.8,0,3.9-0.7,5-2.1
			l1,0.8c-1.3,1.8-3.8,2.7-6,2.7C233.5,144.4,230.3,141.7,230.3,137.3z M242.9,136.7c0-3.4-2.3-5.3-5.6-5.3c-2.9,0-5.3,1.9-5.6,5.3
			H242.9z"/>
		<path fill="#FFFFFF" d="M246.8,137.3c0-4.1,3.1-7.1,7-7.1s7.4,2.4,6.8,7.8h-12.5c0.3,3.2,2.8,5.2,5.6,5.2c1.8,0,3.9-0.7,5-2.1
			l1,0.8c-1.3,1.8-3.8,2.7-6,2.7C249.9,144.4,246.8,141.7,246.8,137.3z M259.4,136.7c0-3.4-2.3-5.3-5.6-5.3c-2.9,0-5.3,1.9-5.6,5.3
			H259.4z"/>
		<path fill="#FFFFFF" d="M265.4,130.4l0.1,2.5c0.9-1.9,2.8-2.6,4.6-2.6c1,0,2,0.3,3,0.8l-0.6,1.1c-0.7-0.4-1.5-0.6-2.4-0.6
			c-2.6,0-4.6,2.1-4.6,4.6v8.1h-1.4v-13.8H265.4z"/>
	</g>
</g>
</svg>
