<?xml version="1.0" encoding="utf-8"?>
<!-- Generator: Adobe Illustrator 18.0.0, SVG Export Plug-In . SVG Version: 6.00 Build 0)  -->
<!DOCTYPE svg PUBLIC "-//W3C//DTD SVG 1.0//EN" "http://www.w3.org/TR/2001/REC-SVG-20010904/DTD/svg10.dtd">
<svg version="1.0" id="Layer_1" xmlns="http://www.w3.org/2000/svg" xmlns:xlink="http://www.w3.org/1999/xlink" x="0px" y="0px"
	 width="337px" height="54px" viewBox="0 0 337 54" enable-background="new 0 0 337 54" xml:space="preserve">
<g>
	<g>
		<path fill="#FFFFFF" d="M111.1,11.3h-4.2V9c3.8,0,7.1,0,10.9,0v2.3h-4.2v11h-2.5V11.3z"/>
		<path fill="#FFFFFF" d="M121.5,9v5.2c0.8-1.1,1.9-1.4,2.9-1.4c2.7,0,3.8,1.8,3.8,4.6v4.9h-2.3v-4.9c0-1.7-0.9-2.4-2.1-2.4
			c-1.4,0-2.3,1.2-2.3,2.6v4.8h-2.3V9H121.5z"/>
		<path fill="#FFFFFF" d="M132.2,18.4c0.2,1.2,1.2,2,2.8,2c0.9,0,2-0.3,2.5-0.9L139,21c-1,1-2.6,1.5-4,1.5c-3.2,0-5.1-2-5.1-5
			c0-2.8,1.9-4.9,5-4.9c3.1,0,5.1,1.9,4.7,5.8H132.2z M137.3,16.5c-0.2-1.2-1.1-1.8-2.4-1.8c-1.3,0-2.3,0.6-2.6,1.8H137.3z"/>
		<path fill="#FFFFFF" d="M147.5,9v5.2c0.6-1,2.1-1.5,3.1-1.5c2.7,0,4.8,1.7,4.8,4.9c0,3.1-2.1,4.9-4.8,4.9c-1.1,0-2.3-0.4-3-1.5
			l-0.2,1.3h-2.2V9H147.5z M147.6,17.6c0,1.7,1.3,2.8,2.7,2.8c1.5,0,2.7-1.1,2.7-2.8c0-1.7-1.2-2.7-2.7-2.7
			C148.9,14.9,147.6,16,147.6,17.6z"/>
		<path fill="#FFFFFF" d="M159,18.4c0.2,1.2,1.2,2,2.8,2c0.9,0,2-0.3,2.5-0.9l1.5,1.5c-1,1-2.6,1.5-4,1.5c-3.2,0-5.1-2-5.1-5
			c0-2.8,1.9-4.9,5-4.9c3.1,0,5.1,1.9,4.7,5.8H159z M164.1,16.5c-0.2-1.2-1.1-1.8-2.4-1.8c-1.3,0-2.3,0.6-2.6,1.8H164.1z"/>
		<path fill="#FFFFFF" d="M174.2,15.4c-0.7-0.6-1.4-0.8-2.3-0.8c-1.1,0-1.7,0.3-1.7,0.9c0,0.6,0.6,1,1.7,1c1.8,0.1,4,0.5,4,3
			c0,1.7-1.3,3.1-4,3.1c-1.5,0-3-0.2-4.3-1.7l1.1-1.7c0.7,0.7,2.2,1.3,3.2,1.3c0.9,0,1.7-0.4,1.7-1.1c0-0.6-0.5-0.9-1.9-1
			c-1.8-0.1-3.9-0.8-3.9-2.9c0-2.2,2.2-2.9,4-2.9c1.5,0,2.6,0.3,3.6,1.2L174.2,15.4z"/>
		<path fill="#FFFFFF" d="M180.7,10.3v2.7h2.6v2h-2.6v4c0,0.9,0.5,1.3,1.2,1.3c0.4,0,0.8-0.1,1.1-0.3l0.6,2
			c-0.7,0.3-1.2,0.4-1.9,0.4c-2,0.1-3.4-1.1-3.4-3.4v-4h-1.7v-2h1.7v-2.4L180.7,10.3z"/>
		<path fill="#FFFFFF" d="M188.8,26.2V12.9h2.2l0.2,1.3c0.7-1,2-1.5,3-1.5c2.9,0,4.8,2.1,4.8,4.9c0,2.7-1.7,4.9-4.7,4.9
			c-1,0-2.5-0.3-3.1-1.3v5H188.8z M196.7,17.6c0-1.5-1-2.7-2.7-2.7s-2.7,1.2-2.7,2.7s1.1,2.7,2.7,2.7S196.7,19.1,196.7,17.6z"/>
		<path fill="#FFFFFF" d="M203,9v13.3h-2.3V9H203z"/>
		<path fill="#FFFFFF" d="M212.5,12.9h2.2v9.4h-2.2l-0.1-1.4c-0.5,1.1-2,1.6-3,1.7c-2.8,0-4.8-1.7-4.8-5c0-3.2,2.1-4.9,4.9-4.9
			c1.3,0,2.5,0.6,3,1.5L212.5,12.9z M206.9,17.6c0,1.8,1.2,2.8,2.8,2.8c3.6,0,3.6-5.7,0-5.7C208.1,14.8,206.9,15.8,206.9,17.6z"/>
		<path fill="#FFFFFF" d="M224.9,21.1c-1.1,1.1-2.2,1.5-3.6,1.5c-2.7,0-5-1.6-5-5c0-3.3,2.3-5,5-5c1.3,0,2.4,0.4,3.4,1.4l-1.5,1.5
			c-0.6-0.5-1.2-0.7-1.9-0.7c-1.6,0-2.7,1.1-2.7,2.8c0,1.8,1.2,2.7,2.7,2.7c0.7,0,1.5-0.2,2.1-0.8L224.9,21.1z"/>
		<path fill="#FFFFFF" d="M228.3,18.4c0.2,1.2,1.2,2,2.8,2c0.9,0,2-0.3,2.5-0.9l1.5,1.5c-1,1-2.6,1.5-4,1.5c-3.2,0-5.1-2-5.1-5
			c0-2.8,1.9-4.9,5-4.9c3.1,0,5.1,1.9,4.7,5.8H228.3z M233.4,16.5c-0.2-1.2-1.1-1.8-2.4-1.8c-1.3,0-2.3,0.6-2.6,1.8H233.4z"/>
		<path fill="#FFFFFF" d="M243.5,15.4c-0.7-0.6-1.4-0.8-2.3-0.8c-1.1,0-1.7,0.3-1.7,0.9c0,0.6,0.6,1,1.7,1c1.8,0.1,4,0.5,4,3
			c0,1.7-1.3,3.1-4,3.1c-1.5,0-3-0.2-4.3-1.7l1.1-1.7c0.7,0.7,2.2,1.3,3.2,1.3c0.9,0,1.7-0.4,1.7-1.1c0-0.6-0.5-0.9-1.9-1
			c-1.8-0.1-3.9-0.8-3.9-2.9c0-2.2,2.2-2.9,4-2.9c1.5,0,2.6,0.3,3.6,1.2L243.5,15.4z"/>
		<path fill="#FFFFFF" d="M253.1,10.3c0,1.8-2.7,1.8-2.7,0S253.1,8.5,253.1,10.3z M250.5,12.9v9.4h2.3v-9.4H250.5z"/>
		<path fill="#FFFFFF" d="M261.9,22.3v-4.9c0-1.4-0.8-2.5-2.3-2.5c-1.4,0-2.4,1.2-2.4,2.6v4.8h-2.3v-9.4h2.1l0.2,1.3
			c0.9-0.9,1.9-1.4,3.1-1.4c2.2,0,4,1.7,4,4.6v4.9H261.9z"/>
		<path fill="#FFFFFF" d="M280.1,22.3h-10c0-4.4,0-8.9,0-13.3h10v2.4h-7.5v3.1h7.2v2.3h-7.2v3h7.5V22.3z"/>
		<path fill="#FFFFFF" d="M284.2,12.9v4.9c0,1.4,0.8,2.5,2.3,2.5c1.4,0,2.4-1.2,2.4-2.6v-4.8h2.3v9.4h-2.1L289,21
			c-1,1-1.9,1.4-3.2,1.4c-2.2,0-3.9-1.7-3.9-4.6v-4.9H284.2z"/>
		<path fill="#FFFFFF" d="M295.4,12.9l0.2,1.1c0.7-1.2,1.7-1.3,2.6-1.3c1,0,1.9,0.4,2.4,0.9l-1,2c-0.5-0.4-0.9-0.6-1.7-0.6
			c-1.2,0-2.3,0.6-2.3,2.4v4.9h-2.3v-9.4H295.4z"/>
		<path fill="#FFFFFF" d="M310.8,17.6c0,2.7-1.8,4.9-4.9,4.9c-3,0-4.9-2.2-4.9-4.9c0-2.7,1.9-4.9,4.8-4.9S310.8,14.9,310.8,17.6z
			 M303.4,17.6c0,1.4,0.9,2.8,2.5,2.8c1.7,0,2.5-1.3,2.5-2.8c0-1.4-1-2.8-2.5-2.8C304.2,14.8,303.4,16.2,303.4,17.6z"/>
		<path fill="#FFFFFF" d="M312.4,26.2V12.9h2.2l0.2,1.3c0.7-1,2-1.5,3-1.5c2.9,0,4.8,2.1,4.8,4.9c0,2.7-1.7,4.9-4.7,4.9
			c-1,0-2.5-0.3-3.1-1.3v5H312.4z M320.2,17.6c0-1.5-1-2.7-2.7-2.7s-2.7,1.2-2.7,2.7s1.1,2.7,2.7,2.7
			C319.2,20.3,320.2,19.1,320.2,17.6z"/>
		<path fill="#FFFFFF" d="M326.2,18.4c0.2,1.2,1.2,2,2.8,2c0.9,0,2-0.3,2.5-0.9L333,21c-1,1-2.6,1.5-4,1.5c-3.2,0-5.1-2-5.1-5
			c0-2.8,1.9-4.9,5-4.9c3.1,0,5.1,1.9,4.7,5.8H326.2z M331.3,16.5c-0.2-1.2-1.1-1.8-2.4-1.8c-1.3,0-2.3,0.6-2.6,1.8H331.3z"/>
		<path fill="#FFFFFF" d="M109.3,46.3v-8.5h-1.9V37h1.9v-1c0-1.9,0.7-3.2,2.8-3.2c0.7,0,1.3,0.2,1.9,0.6l-0.5,0.7
			c-0.5-0.3-0.9-0.5-1.4-0.5c-1.2,0-1.9,0.7-1.9,2.4v1h3.1v0.8h-3.1v8.5H109.3z"/>
		<path fill="#FFFFFF" d="M114.1,41.6c0-3,2.1-4.9,4.8-4.9s4.8,1.9,4.8,4.9s-2.1,4.8-4.8,4.8S114.1,44.6,114.1,41.6z M122.7,41.6
			c0-2.4-1.7-4-3.9-4c-2.1,0-3.9,1.6-3.9,4s1.7,3.9,3.9,3.9C121,45.5,122.7,44.1,122.7,41.6z"/>
		<path fill="#FFFFFF" d="M127,36.9l0,1.7c0.6-1.3,1.9-1.8,3.1-1.8c0.7,0,1.4,0.2,2,0.6l-0.4,0.8c-0.5-0.3-1-0.4-1.6-0.4
			c-1.7,0-3.1,1.4-3.1,3.1v5.5h-0.9v-9.4H127z"/>
		<path fill="#FFFFFF" d="M145.7,36.9l-6,13.9h-1l2-4.7l-3.8-9.3h1l2.2,5.5l1.1,2.7l1.1-2.7l2.4-5.5H145.7z"/>
		<path fill="#FFFFFF" d="M146.9,41.6c0-3,2.1-4.9,4.8-4.9s4.8,1.9,4.8,4.9s-2.1,4.8-4.8,4.8S146.9,44.6,146.9,41.6z M155.5,41.6
			c0-2.4-1.7-4-3.9-4c-2.1,0-3.9,1.6-3.9,4s1.7,3.9,3.9,3.9C153.8,45.5,155.5,44.1,155.5,41.6z"/>
		<path fill="#FFFFFF" d="M166.3,46.3v-1.7c-0.7,1.3-2,1.8-3.3,1.8c-2.5,0-4.2-1.5-4.2-4.1v-5.4h0.9v5.4c0,2.1,1.3,3.3,3.3,3.2
			c1.9,0,3.3-1.5,3.3-3.4v-5.2h0.9v9.4H166.3z"/>
		<path fill="#FFFFFF" d="M171.2,36.9l0,1.7c0.6-1.3,1.9-1.8,3.1-1.8c0.7,0,1.4,0.2,2,0.6l-0.4,0.8c-0.5-0.3-1-0.4-1.6-0.4
			c-1.7,0-3.1,1.4-3.1,3.1v5.5h-0.9v-9.4H171.2z"/>
		<path fill="#FFFFFF" d="M190.1,45c-1,1-2.2,1.4-3.4,1.4c-2.6,0-4.8-1.9-4.8-4.8c0-3,2.1-4.8,4.8-4.8c1.2,0,2.5,0.5,3.4,1.4
			l-0.6,0.6c-0.8-0.8-1.8-1.1-2.8-1.1c-2.1,0-3.9,1.4-3.9,4c0,2.5,1.8,4,3.9,4c1,0,2-0.4,2.8-1.2L190.1,45z"/>
		<path fill="#FFFFFF" d="M201.1,36.9c0,3.1,0,6.2,0,9.4h-0.9v-2c-0.9,1.5-2.3,2.1-3.8,2.1c-2.6,0-4.8-2-4.8-4.8s2.1-4.8,4.8-4.8
			c1.5,0,3.1,0.7,3.8,2.2v-2.1H201.1z M192.5,41.6c0,2.4,1.7,3.9,3.8,3.9c5.2,0,5.2-7.8,0-7.8C194.2,37.7,192.5,39.2,192.5,41.6z"/>
		<path fill="#FFFFFF" d="M205,36.9l0,1.7c0.6-1.3,1.9-1.8,3.1-1.8c0.7,0,1.4,0.2,2,0.6l-0.4,0.8c-0.5-0.3-1-0.4-1.6-0.4
			c-1.7,0-3.1,1.4-3.1,3.1v5.5h-0.9v-9.4H205z"/>
		<path fill="#FFFFFF" d="M210.8,41.6c0-2.8,2.1-4.8,4.8-4.8s5,1.6,4.6,5.3h-8.5c0.2,2.2,1.9,3.5,3.8,3.5c1.2,0,2.7-0.5,3.4-1.4
			l0.7,0.5c-0.9,1.2-2.5,1.8-4,1.8C212.9,46.4,210.8,44.6,210.8,41.6z M219.3,41.2c0-2.3-1.5-3.6-3.8-3.6c-1.9,0-3.6,1.3-3.8,3.6
			H219.3z"/>
		<path fill="#FFFFFF" d="M221.9,41.6c0-2.8,2.1-4.8,4.8-4.8s5,1.6,4.6,5.3h-8.5c0.2,2.2,1.9,3.5,3.8,3.5c1.2,0,2.7-0.5,3.4-1.4
			l0.7,0.5c-0.9,1.2-2.5,1.8-4,1.8C224,46.4,221.9,44.6,221.9,41.6z M230.5,41.2c0-2.3-1.5-3.6-3.8-3.6c-1.9,0-3.6,1.3-3.8,3.6
			H230.5z"/>
		<path fill="#FFFFFF" d="M234.6,36.9l0,1.7c0.6-1.3,1.9-1.8,3.1-1.8c0.7,0,1.4,0.2,2,0.6l-0.4,0.8c-0.5-0.3-1-0.4-1.6-0.4
			c-1.7,0-3.1,1.4-3.1,3.1v5.5h-0.9v-9.4H234.6z"/>
	</g>
</g>
<g>
	<g>
		<path fill="none" stroke="#FFFFFF" stroke-width="2" stroke-miterlimit="10" d="M78,4c0,1,0.1-0.1,0.1,0c0,6.6,3.9,11.7,11.9,11.9
			V4H78z"/>
	</g>
	<g>
		<path fill="none" stroke="#FFFFFF" stroke-width="2" stroke-miterlimit="10" d="M4,15.7c1,0,0.6,0.1,0.7,0.1
			c6.6,0,12.4-3.7,12.6-11.7H4V15.7z"/>
	</g>
	<g>
		<path fill="none" stroke="#FFFFFF" stroke-width="2" stroke-miterlimit="10" d="M16,49c0-1-0.1,0.4-0.1,0.3
			c0-6.6-3.9-11.4-11.9-11.6V49H16z"/>
	</g>
	<g>
		<path fill="none" stroke="#FFFFFF" stroke-width="2" stroke-miterlimit="10" d="M90,38.4c-1,0-0.6-0.6-0.7-0.6
			c-6.6,0-12.4,4.2-12.6,11.2H90V38.4z"/>
	</g>
	<rect x="4.2" y="4.1" fill="none" stroke="#FFFFFF" stroke-width="2" stroke-miterlimit="10" width="85.6" height="45.6"/>
	<g>
		
			<circle fill="none" stroke="#FFFFFF" stroke-width="4" stroke-linecap="round" stroke-linejoin="round" stroke-dasharray="0,5.9476" cx="46.8" cy="27" r="15.1"/>
	</g>
</g>
</svg>
